Vollkorn-BoldItalic.ufo
<glyph name="percent" format="2">
  <advance width="791"/>
  <unicode hex="0025"/>
  <outline>
    <contour>
      <point x="198" y="-9" type="curve"/>
      <point x="400" y="247"/>
      <point x="502" y="372"/>
      <point x="707" y="617" type="curve"/>
      <point x="701" y="647"/>
      <point x="679" y="673"/>
      <point x="649" y="685" type="curve"/>
      <point x="139" y="59" type="line"/>
      <point x="143" y="31"/>
      <point x="170" y="0"/>
    </contour>
    <component base="_part.percent" xOffset="62"/>
    <component base="_part.percent" xOffset="-298" yOffset="368"/>
  </outline>
</glyph>
<glyph name="ampersand" format="2">
  <advance width="818"/>
  <unicode hex="0026"/>
  <outline>
    <contour>
      <point x="408" y="717" type="curve" smooth="yes"/>
      <point x="221" y="717"/>
      <point x="158" y="658"/>
      <point x="147" y="593" type="curve" smooth="yes"/>
      <point x="132" y="507"/>
      <point x="152" y="437"/>
      <point x="317" y="222" type="curve" smooth="yes"/>
      <point x="482" y="8"/>
      <point x="521" y="-9"/>
      <point x="645" y="-9" type="curve" smooth="yes"/>
      <point x="723" y="-9"/>
      <point x="798" y="34"/>
      <point x="823" y="65" type="curve"/>
      <point x="823" y="83"/>
      <point x="805" y="118"/>
      <point x="790" y="130" type="curve"/>
      <point x="769" y="118"/>
      <point x="749" y="112"/>
      <point x="726" y="112" type="curve" smooth="yes"/>
      <point x="662" y="112"/>
      <point x="634" y="123"/>
      <point x="493" y="304" type="curve" smooth="yes"/>
      <point x="356" y="477"/>
      <point x="325" y="538"/>
      <point x="335" y="593" type="curve" smooth="yes"/>
      <point x="340" y="622"/>
      <point x="363" y="642"/>
      <point x="398" y="642" type="curve" smooth="yes"/>
      <point x="450" y="642"/>
      <point x="473" y="601"/>
      <point x="463" y="550" type="curve" smooth="yes"/>
      <point x="426" y="360"/>
      <point x="50" y="440"/>
      <point x="7" y="211" type="curve" smooth="yes"/>
      <point x="-22" y="56"/>
      <point x="89" y="-9"/>
      <point x="285" y="-9" type="curve" smooth="yes"/>
      <point x="546" y="-9"/>
      <point x="758" y="147"/>
      <point x="791" y="315" type="curve" smooth="yes"/>
      <point x="808" y="405"/>
      <point x="784" y="453"/>
      <point x="739" y="467" type="curve"/>
      <point x="698" y="451"/>
      <point x="605" y="430"/>
      <point x="552" y="426" type="curve"/>
      <point x="544" y="404"/>
      <point x="540" y="379"/>
      <point x="540" y="350" type="curve"/>
      <point x="617" y="350"/>
      <point x="657" y="321"/>
      <point x="644" y="254" type="curve" smooth="yes"/>
      <point x="620" y="134"/>
      <point x="471" y="66"/>
      <point x="333" y="66" type="curve" smooth="yes"/>
      <point x="255" y="66"/>
      <point x="194" y="113"/>
      <point x="210" y="201" type="curve" smooth="yes"/>
      <point x="251" y="428"/>
      <point x="575" y="335"/>
      <point x="619" y="556" type="curve" smooth="yes"/>
      <point x="639" y="657"/>
      <point x="564" y="717"/>
    </contour>
  </outline>
</glyph>
<glyph name="quotesingle" format="2">
  <advance width="233"/>
  <unicode hex="0027"/>
  <outline>
    <contour>
      <point x="246" y="717" type="curve"/>
      <point x="217" y="701"/>
      <point x="180" y="691"/>
      <point x="140" y="687" type="curve"/>
      <point x="140" y="611"/>
      <point x="132" y="515"/>
      <point x="118" y="426" type="curve"/>
      <point x="139" y="415"/>
      <point x="165" y="411"/>
      <point x="192" y="411" type="curve"/>
      <point x="215" y="507"/>
      <point x="238" y="587"/>
      <point x="258" y="635" type="curve" smooth="yes"/>
      <point x="275" y="676"/>
      <point x="270" y="706"/>
    </contour>
  </outline>
</glyph>
<glyph name="comma" format="2">
  <advance width="270"/>
  <unicode hex="002C"/>
  <outline>
    <contour>
      <point x="173" y="185" type="curve"/>
      <point x="139" y="165"/>
      <point x="86" y="150"/>
      <point x="33" y="148" type="curve"/>
      <point x="12" y="115"/>
      <point x="2" y="79"/>
      <point x="2" y="38" type="curve"/>
      <point x="104" y="24"/>
      <point x="79" y="-56"/>
      <point x="-17" y="-147" type="curve"/>
      <point x="-6" y="-167"/>
      <point x="14" y="-180"/>
      <point x="45" y="-184" type="curve"/>
      <point x="123" y="-127"/>
      <point x="184" y="-40"/>
      <point x="203" y="65" type="curve" smooth="yes"/>
      <point x="218" y="143"/>
      <point x="198" y="174"/>
    </contour>
  </outline>
</glyph>
<glyph name="hyphen" format="2">
  <advance width="367"/>
  <unicode hex="002D"/>
  <outline>
    <contour>
      <point x="43" y="206" type="curve"/>
      <point x="158" y="209"/>
      <point x="246" y="209"/>
      <point x="312" y="209" type="curve"/>
      <point x="326" y="240"/>
      <point x="332" y="267"/>
      <point x="333" y="306" type="curve"/>
      <point x="68" y="306" type="line"/>
      <point x="55" y="281"/>
      <point x="48" y="253"/>
    </contour>
  </outline>
</glyph>
<glyph name="slash" format="2">
  <advance width="302"/>
  <unicode hex="002F"/>
  <guideline x="48.3" y="241.677" angle="79"/>
  <outline>
    <contour>
      <point x="301" y="717" type="curve"/>
      <point x="-28" y="31" type="line"/>
      <point x="-10" y="8"/>
      <point x="18" y="-5"/>
      <point x="51" y="-9" type="curve"/>
      <point x="185" y="288"/>
      <point x="237" y="401"/>
      <point x="381" y="687" type="curve"/>
      <point x="359" y="707"/>
      <point x="335" y="716"/>
    </contour>
  </outline>
</glyph>
<glyph name="one" format="2">
  <advance width="448"/>
  <unicode hex="0031"/>
  <outline>
    <contour>
      <point x="26" y="-3" type="curve"/>
      <point x="71" y="-1"/>
      <point x="127" y="0"/>
      <point x="199" y="0" type="curve" smooth="yes"/>
      <point x="266" y="0"/>
      <point x="308" y="0"/>
      <point x="366" y="-3" type="curve"/>
      <point x="369" y="25"/>
      <point x="368" y="49"/>
      <point x="364" y="75" type="curve"/>
      <point x="310" y="84"/>
      <point x="300" y="92"/>
      <point x="317" y="180" type="curve" smooth="yes"/>
      <point x="341" y="305" type="line" smooth="yes"/>
      <point x="360" y="406"/>
      <point x="365" y="419"/>
      <point x="420" y="425" type="curve"/>
      <point x="430" y="452"/>
      <point x="434" y="478"/>
      <point x="434" y="503" type="curve"/>
      <point x="375" y="500"/>
      <point x="314" y="500"/>
      <point x="262" y="500" type="curve" smooth="yes"/>
      <point x="198" y="500"/>
      <point x="143" y="500"/>
      <point x="94" y="503" type="curve"/>
      <point x="90" y="476"/>
      <point x="91" y="447"/>
      <point x="95" y="425" type="curve"/>
      <point x="152" y="417"/>
      <point x="157" y="403"/>
      <point x="144" y="325" type="curve" smooth="yes"/>
      <point x="117" y="177" type="line" smooth="yes"/>
      <point x="101" y="92"/>
      <point x="92" y="82"/>
      <point x="43" y="75" type="curve"/>
      <point x="31" y="50"/>
      <point x="28" y="26"/>
    </contour>
  </outline>
</glyph>
<glyph name="three" format="2">
  <advance width="513"/>
  <unicode hex="0033"/>
  <outline>
    <contour>
      <point x="85" y="458" type="curve"/>
      <point x="144" y="491"/>
      <point x="207" y="506"/>
      <point x="285" y="506" type="curve" smooth="yes"/>
      <point x="437" y="506"/>
      <point x="498" y="449"/>
      <point x="475" y="357" type="curve" smooth="yes"/>
      <point x="460" y="299"/>
      <point x="421" y="249"/>
      <point x="249" y="198" type="curve"/>
      <point x="289" y="254" type="line"/>
      <point x="412" y="228"/>
      <point x="472" y="138"/>
      <point x="443" y="28" type="curve" smooth="yes"/>
      <point x="410" y="-98"/>
      <point x="281" y="-171"/>
      <point x="132" y="-171" type="curve" smooth="yes"/>
      <point x="73" y="-171"/>
      <point x="35" y="-162"/>
      <point x="7" y="-141" type="curve"/>
      <point x="8" y="-123"/>
      <point x="29" y="-82"/>
      <point x="41" y="-75" type="curve"/>
      <point x="64" y="-86"/>
      <point x="91" y="-91"/>
      <point x="125" y="-91" type="curve" smooth="yes"/>
      <point x="196" y="-91"/>
      <point x="239" y="-54"/>
      <point x="253" y="11" type="curve" smooth="yes"/>
      <point x="270" y="89"/>
      <point x="228" y="144"/>
      <point x="143" y="138" type="curve"/>
      <point x="130" y="157"/>
      <point x="126" y="194"/>
      <point x="132" y="219" type="curve"/>
      <point x="222" y="240"/>
      <point x="275" y="271"/>
      <point x="289" y="340" type="curve" smooth="yes"/>
      <point x="300" y="392"/>
      <point x="279" y="430"/>
      <point x="238" y="430" type="curve" smooth="yes"/>
      <point x="202" y="430"/>
      <point x="188" y="400"/>
      <point x="177" y="304" type="curve"/>
      <point x="142" y="302"/>
      <point x="97" y="308"/>
      <point x="65" y="323" type="curve"/>
      <point x="77" y="363"/>
      <point x="84" y="416"/>
    </contour>
  </outline>
</glyph>
<glyph name="seven" format="2">
  <advance width="491"/>
  <unicode hex="0037"/>
  <outline>
    <contour>
      <point x="473" y="503" type="curve"/>
      <point x="420" y="500"/>
      <point x="338" y="500"/>
      <point x="290" y="500" type="curve" smooth="yes"/>
      <point x="223" y="500"/>
      <point x="157" y="500"/>
      <point x="100" y="503" type="curve"/>
      <point x="93" y="436"/>
      <point x="80" y="370"/>
      <point x="61" y="303" type="curve"/>
      <point x="87" y="290"/>
      <point x="121" y="283"/>
      <point x="166" y="284" type="curve"/>
      <point x="177" y="324"/>
      <point x="202" y="341"/>
      <point x="250" y="341" type="curve" smooth="yes"/>
      <point x="401" y="341" type="line"/>
      <point x="392" y="402" type="line"/>
      <point x="95" y="42"/>
      <point x="84" y="-39"/>
      <point x="84" y="-101" type="curve" smooth="yes"/>
      <point x="84" y="-135"/>
      <point x="100" y="-161"/>
      <point x="124" y="-170" type="curve"/>
      <point x="165" y="-141"/>
      <point x="222" y="-118"/>
      <point x="274" y="-107" type="curve"/>
      <point x="274" y="15"/>
      <point x="286" y="81"/>
      <point x="305" y="129" type="curve" smooth="yes"/>
      <point x="334" y="202"/>
      <point x="367" y="261"/>
      <point x="493" y="421" type="curve"/>
      <point x="495" y="447"/>
      <point x="488" y="478"/>
    </contour>
  </outline>
</glyph>
<glyph name="equal" format="2">
  <advance width="550"/>
  <unicode hex="003D"/>
  <outline>
    <contour>
      <point x="32" y="117" type="curve"/>
      <point x="124" y="119"/>
      <point x="179" y="119"/>
      <point x="268" y="119" type="curve" smooth="yes"/>
      <point x="356" y="119"/>
      <point x="397" y="119"/>
      <point x="478" y="118" type="curve"/>
      <point x="488" y="145"/>
      <point x="492" y="175"/>
      <point x="492" y="206" type="curve"/>
      <point x="46" y="206" type="line"/>
      <point x="35" y="181"/>
      <point x="32" y="147"/>
    </contour>
    <contour>
      <point x="69" y="303" type="curve"/>
      <point x="161" y="305"/>
      <point x="215" y="305"/>
      <point x="304" y="305" type="curve" smooth="yes"/>
      <point x="392" y="305"/>
      <point x="432" y="305"/>
      <point x="513" y="304" type="curve"/>
      <point x="526" y="333"/>
      <point x="527" y="359"/>
      <point x="527" y="392" type="curve"/>
      <point x="83" y="392" type="line"/>
      <point x="73" y="366"/>
      <point x="69" y="340"/>
    </contour>
  </outline>
</glyph>
<glyph name="at" format="2">
  <advance width="892"/>
  <unicode hex="0040"/>
  <outline>
    <contour>
      <point x="529" y="660" type="curve" smooth="yes"/>
      <point x="273" y="660"/>
      <point x="74" y="502"/>
      <point x="32" y="264" type="curve" smooth="yes"/>
      <point x="-20" y="-34"/>
      <point x="145" y="-202"/>
      <point x="436" y="-202" type="curve" smooth="yes"/>
      <point x="570" y="-202"/>
      <point x="683" y="-154"/>
      <point x="758" y="-83" type="curve"/>
      <point x="754" y="-64"/>
      <point x="741" y="-43"/>
      <point x="720" y="-35" type="curve"/>
      <point x="645" y="-88"/>
      <point x="549" y="-124"/>
      <point x="453" y="-124" type="curve" smooth="yes"/>
      <point x="202" y="-124"/>
      <point x="85" y="19"/>
      <point x="129" y="272" type="curve" smooth="yes"/>
      <point x="162" y="463"/>
      <point x="311" y="586"/>
      <point x="503" y="586" type="curve" smooth="yes"/>
      <point x="720" y="586"/>
      <point x="822" y="470"/>
      <point x="786" y="263" type="curve" smooth="yes"/>
      <point x="765" y="161"/>
      <point x="731" y="104"/>
      <point x="696" y="104" type="curve" smooth="yes"/>
      <point x="682" y="104"/>
      <point x="674" y="116"/>
      <point x="690" y="184" type="curve" smooth="yes"/>
      <point x="735" y="379" type="line" smooth="yes"/>
      <point x="744" y="420"/>
      <point x="737" y="445"/>
      <point x="709" y="467" type="curve"/>
      <point x="640" y="451"/>
      <point x="567" y="446"/>
      <point x="478" y="446" type="curve"/>
      <point x="555" y="389" type="line"/>
      <point x="490" y="172" type="line"/>
      <point x="508" y="172" type="line"/>
      <point x="483" y="62"/>
      <point x="503" y="-9"/>
      <point x="601" y="-9" type="curve"/>
      <point x="731" y="-9"/>
      <point x="849" y="124"/>
      <point x="877" y="284" type="curve" smooth="yes"/>
      <point x="918" y="521"/>
      <point x="793" y="660"/>
    </contour>
    <component base="bauch.comp" xOffset="116"/>
  </outline>
</glyph>
<glyph name="C" format="2">
  <advance width="613"/>
  <unicode hex="0043"/>
  <anchor x="319" y="0" name="bottom"/>
  <anchor x="573" y="54" name="bottomright"/>
  <anchor x="149" y="338" name="center"/>
  <anchor x="445" y="676" name="top"/>
  <outline>
    <contour>
      <point x="660" y="632" type="curve"/>
      <point x="596" y="672"/>
      <point x="523" y="685"/>
      <point x="442" y="685" type="curve" smooth="yes"/>
      <point x="270" y="685"/>
      <point x="88" y="578"/>
      <point x="51" y="362" type="curve" smooth="yes"/>
      <point x="13" y="144"/>
      <point x="124" y="-9"/>
      <point x="343" y="-9" type="curve" smooth="yes"/>
      <point x="436" y="-9"/>
      <point x="509" y="13"/>
      <point x="573" y="54" type="curve"/>
      <point x="571" y="82"/>
      <point x="564" y="106"/>
      <point x="548" y="123" type="curve"/>
      <point x="491" y="95"/>
      <point x="442" y="85"/>
      <point x="400" y="85" type="curve" smooth="yes"/>
      <point x="264" y="85"/>
      <point x="227" y="197"/>
      <point x="253" y="347" type="curve" smooth="yes"/>
      <point x="276" y="481"/>
      <point x="341" y="608"/>
      <point x="444" y="608" type="curve" smooth="yes"/>
      <point x="506" y="608"/>
      <point x="545" y="581"/>
      <point x="532" y="470" type="curve"/>
      <point x="565" y="464"/>
      <point x="601" y="467"/>
      <point x="627" y="477" type="curve"/>
      <point x="633" y="534"/>
      <point x="644" y="585"/>
    </contour>
  </outline>
</glyph>
<glyph name="E" format="2">
  <advance width="638"/>
  <unicode hex="0045"/>
  <anchor x="293" y="0" name="bottom"/>
  <anchor x="505" y="0" name="ogonek"/>
  <anchor x="382" y="676" name="top"/>
  <anchor x="94" y="676" name="topleft"/>
  <outline>
    <contour>
      <point x="10" y="-3" type="curve"/>
      <point x="74" y="0"/>
      <point x="240" y="0"/>
      <point x="310" y="0" type="curve"/>
      <point x="363" y="75" type="line"/>
      <point x="302" y="75"/>
      <point x="288" y="90"/>
      <point x="304" y="182" type="curve" smooth="yes"/>
      <point x="386" y="676" type="line"/>
      <point x="312" y="676"/>
      <point x="171" y="676"/>
      <point x="108" y="679" type="curve"/>
      <point x="103" y="649"/>
      <point x="104" y="626"/>
      <point x="108" y="601" type="curve"/>
      <point x="160" y="593"/>
      <point x="174" y="581"/>
      <point x="160" y="501" type="curve" smooth="yes"/>
      <point x="107" y="197" type="line" smooth="yes"/>
      <point x="89" y="95"/>
      <point x="81" y="80"/>
      <point x="29" y="76" type="curve"/>
      <point x="16" y="48"/>
      <point x="11" y="24"/>
    </contour>
    <contour>
      <point x="575" y="-3" type="curve"/>
      <point x="583" y="63"/>
      <point x="602" y="133"/>
      <point x="618" y="180" type="curve"/>
      <point x="589" y="202"/>
      <point x="562" y="212"/>
      <point x="521" y="218" type="curve"/>
      <point x="488" y="111"/>
      <point x="445" y="75"/>
      <point x="377" y="75" type="curve" smooth="yes"/>
      <point x="363" y="75" type="line"/>
      <point x="310" y="0" type="line"/>
      <point x="395" y="0"/>
      <point x="515" y="0"/>
    </contour>
    <contour>
      <point x="485" y="215" type="curve"/>
      <point x="486" y="249"/>
      <point x="490" y="289"/>
      <point x="495" y="325" type="curve" smooth="yes"/>
      <point x="502" y="375"/>
      <point x="510" y="417"/>
      <point x="519" y="454" type="curve"/>
      <point x="487" y="457"/>
      <point x="456" y="455"/>
      <point x="428" y="449" type="curve"/>
      <point x="421" y="393"/>
      <point x="403" y="382"/>
      <point x="343" y="382" type="curve" smooth="yes"/>
      <point x="285" y="382" type="line"/>
      <point x="272" y="307" type="line"/>
      <point x="333" y="307" type="line" smooth="yes"/>
      <point x="392" y="307"/>
      <point x="399" y="269"/>
      <point x="399" y="230" type="curve"/>
      <point x="425" y="220"/>
      <point x="453" y="216"/>
    </contour>
    <contour>
      <point x="551" y="485" type="curve"/>
      <point x="585" y="485"/>
      <point x="618" y="489"/>
      <point x="649" y="497" type="curve"/>
      <point x="644" y="557"/>
      <point x="649" y="624"/>
      <point x="658" y="679" type="curve"/>
      <point x="601" y="677"/>
      <point x="526" y="676"/>
      <point x="376" y="676" type="curve"/>
      <point x="332" y="601" type="line"/>
      <point x="430" y="601" type="line" smooth="yes"/>
      <point x="529" y="601"/>
      <point x="546" y="555"/>
    </contour>
  </outline>
</glyph>
<glyph name="F" format="2">
  <advance width="606"/>
  <unicode hex="0046"/>
  <outline>
    <contour>
      <point x="304" y="187" type="curve" smooth="yes"/>
      <point x="385" y="676" type="line"/>
      <point x="316" y="676"/>
      <point x="199" y="676"/>
      <point x="108" y="679" type="curve"/>
      <point x="105" y="651"/>
      <point x="105" y="624"/>
      <point x="109" y="601" type="curve"/>
      <point x="161" y="593"/>
      <point x="173" y="581"/>
      <point x="159" y="501" type="curve" smooth="yes"/>
      <point x="106" y="197" type="line" smooth="yes"/>
      <point x="89" y="95"/>
      <point x="77" y="79"/>
      <point x="25" y="75" type="curve"/>
      <point x="15" y="52"/>
      <point x="9" y="26"/>
      <point x="6" y="-3" type="curve"/>
      <point x="62" y="0"/>
      <point x="131" y="0"/>
      <point x="197" y="0" type="curve" smooth="yes"/>
      <point x="266" y="0"/>
      <point x="333" y="0"/>
      <point x="388" y="-3" type="curve"/>
      <point x="391" y="23"/>
      <point x="390" y="53"/>
      <point x="386" y="75" type="curve"/>
      <point x="295" y="89"/>
      <point x="289" y="101"/>
    </contour>
    <contour>
      <point x="657" y="679" type="curve"/>
      <point x="600" y="677"/>
      <point x="525" y="676"/>
      <point x="375" y="676" type="curve"/>
      <point x="331" y="601" type="line"/>
      <point x="429" y="601" type="line" smooth="yes"/>
      <point x="528" y="601"/>
      <point x="545" y="555"/>
      <point x="550" y="485" type="curve"/>
      <point x="584" y="485"/>
      <point x="617" y="489"/>
      <point x="648" y="497" type="curve"/>
      <point x="643" y="557"/>
      <point x="648" y="624"/>
    </contour>
    <contour>
      <point x="440" y="403" type="curve"/>
      <point x="433" y="347"/>
      <point x="415" y="336"/>
      <point x="355" y="336" type="curve" smooth="yes"/>
      <point x="297" y="336" type="line"/>
      <point x="284" y="261" type="line"/>
      <point x="345" y="261" type="line" smooth="yes"/>
      <point x="404" y="261"/>
      <point x="412" y="229"/>
      <point x="411" y="180" type="curve"/>
      <point x="437" y="170"/>
      <point x="465" y="166"/>
      <point x="497" y="165" type="curve"/>
      <point x="498" y="199"/>
      <point x="502" y="243"/>
      <point x="507" y="279" type="curve" smooth="yes"/>
      <point x="514" y="329"/>
      <point x="522" y="371"/>
      <point x="531" y="408" type="curve"/>
      <point x="499" y="411"/>
      <point x="468" y="409"/>
    </contour>
  </outline>
</glyph>
<glyph name="H" format="2">
  <advance width="810"/>
  <unicode hex="0048"/>
  <anchor x="378" y="0" name="bottom"/>
  <anchor x="742" y="75" name="bottomright"/>
  <anchor x="452" y="478" name="center"/>
  <anchor x="684" y="0" name="ogonek"/>
  <anchor x="476" y="676" name="top"/>
  <anchor x="94" y="676" name="topleft"/>
  <outline>
    <contour>
      <point x="406" y="-3" type="curve"/>
      <point x="452" y="-1"/>
      <point x="508" y="0"/>
      <point x="581" y="0" type="curve" smooth="yes"/>
      <point x="646" y="0"/>
      <point x="687" y="0"/>
      <point x="744" y="-3" type="curve"/>
      <point x="747" y="25"/>
      <point x="746" y="49"/>
      <point x="742" y="75" type="curve"/>
      <point x="693" y="84"/>
      <point x="684" y="95"/>
      <point x="699" y="180" type="curve" smooth="yes"/>
      <point x="751" y="481" type="line" smooth="yes"/>
      <point x="769" y="582"/>
      <point x="775" y="595"/>
      <point x="830" y="601" type="curve"/>
      <point x="840" y="628"/>
      <point x="844" y="654"/>
      <point x="844" y="679" type="curve"/>
      <point x="785" y="676"/>
      <point x="724" y="676"/>
      <point x="672" y="676" type="curve" smooth="yes"/>
      <point x="608" y="676"/>
      <point x="553" y="676"/>
      <point x="504" y="679" type="curve"/>
      <point x="500" y="652"/>
      <point x="501" y="623"/>
      <point x="505" y="601" type="curve"/>
      <point x="562" y="593"/>
      <point x="567" y="579"/>
      <point x="554" y="501" type="curve" smooth="yes"/>
      <point x="499" y="177" type="line" smooth="yes"/>
      <point x="484" y="93"/>
      <point x="474" y="82"/>
      <point x="425" y="75" type="curve"/>
      <point x="414" y="48"/>
      <point x="409" y="26"/>
    </contour>
    <contour>
      <point x="10" y="-3" type="curve"/>
      <point x="56" y="-1"/>
      <point x="112" y="0"/>
      <point x="185" y="0" type="curve" smooth="yes"/>
      <point x="250" y="0"/>
      <point x="291" y="0"/>
      <point x="348" y="-3" type="curve"/>
      <point x="351" y="25"/>
      <point x="350" y="49"/>
      <point x="346" y="75" type="curve"/>
      <point x="297" y="84"/>
      <point x="288" y="95"/>
      <point x="303" y="180" type="curve" smooth="yes"/>
      <point x="355" y="481" type="line" smooth="yes"/>
      <point x="373" y="582"/>
      <point x="379" y="595"/>
      <point x="434" y="601" type="curve"/>
      <point x="444" y="628"/>
      <point x="448" y="654"/>
      <point x="448" y="679" type="curve"/>
      <point x="389" y="676"/>
      <point x="328" y="676"/>
      <point x="276" y="676" type="curve" smooth="yes"/>
      <point x="212" y="676"/>
      <point x="157" y="676"/>
      <point x="108" y="679" type="curve"/>
      <point x="104" y="652"/>
      <point x="105" y="623"/>
      <point x="109" y="601" type="curve"/>
      <point x="166" y="593"/>
      <point x="171" y="579"/>
      <point x="158" y="501" type="curve" smooth="yes"/>
      <point x="103" y="177" type="line" smooth="yes"/>
      <point x="88" y="93"/>
      <point x="78" y="82"/>
      <point x="29" y="75" type="curve"/>
      <point x="18" y="48"/>
      <point x="13" y="26"/>
    </contour>
    <contour>
      <point x="247" y="285" type="line"/>
      <point x="335" y="294"/>
      <point x="458" y="296"/>
      <point x="561" y="296" type="curve"/>
      <point x="572" y="377" type="line"/>
      <point x="260" y="377" type="line"/>
    </contour>
  </outline>
</glyph>
<glyph name="U" format="2">
  <advance width="677"/>
  <unicode hex="0055"/>
  <anchor x="361" y="0" name="bottom"/>
  <anchor x="442" y="348" name="center"/>
  <anchor x="471" y="16" name="ogonek"/>
  <anchor x="477" y="676" name="top"/>
  <anchor x="745" y="679" name="topright"/>
  <outline>
    <contour>
      <point x="337" y="-9" type="curve" smooth="yes"/>
      <point x="510" y="-9"/>
      <point x="579" y="71"/>
      <point x="616" y="277" type="curve" smooth="yes"/>
      <point x="649" y="466" type="line" smooth="yes"/>
      <point x="670" y="588"/>
      <point x="676" y="594"/>
      <point x="731" y="601" type="curve"/>
      <point x="739" y="623"/>
      <point x="744" y="653"/>
      <point x="745" y="679" type="curve"/>
      <point x="709" y="676"/>
      <point x="684" y="676"/>
      <point x="641" y="676" type="curve" smooth="yes"/>
      <point x="616" y="676"/>
      <point x="576" y="676"/>
      <point x="533" y="679" type="curve"/>
      <point x="529" y="649"/>
      <point x="530" y="625"/>
      <point x="534" y="601" type="curve"/>
      <point x="587" y="589"/>
      <point x="589" y="582"/>
      <point x="571" y="477" type="curve" smooth="yes"/>
      <point x="534" y="267" type="line" smooth="yes"/>
      <point x="514" y="151"/>
      <point x="472" y="72"/>
      <point x="385" y="72" type="curve" smooth="yes"/>
      <point x="315" y="72"/>
      <point x="286" y="131"/>
      <point x="311" y="266" type="curve" smooth="yes"/>
      <point x="350" y="481" type="line" smooth="yes"/>
      <point x="368" y="582"/>
      <point x="374" y="595"/>
      <point x="429" y="601" type="curve"/>
      <point x="439" y="628"/>
      <point x="443" y="654"/>
      <point x="443" y="679" type="curve"/>
      <point x="384" y="676"/>
      <point x="323" y="676"/>
      <point x="271" y="676" type="curve" smooth="yes"/>
      <point x="207" y="676"/>
      <point x="152" y="676"/>
      <point x="103" y="679" type="curve"/>
      <point x="99" y="652"/>
      <point x="100" y="623"/>
      <point x="104" y="601" type="curve"/>
      <point x="161" y="593"/>
      <point x="166" y="579"/>
      <point x="153" y="501" type="curve" smooth="yes"/>
      <point x="110" y="259" type="line" smooth="yes"/>
      <point x="79" y="84"/>
      <point x="142" y="-9"/>
    </contour>
  </outline>
</glyph>
<glyph name="Y" format="2">
  <advance width="605"/>
  <unicode hex="0059"/>
  <guideline x="389" y="265" angle="79"/>
  <guideline x="330" y="261" angle="0"/>
  <anchor x="285" y="0" name="bottom"/>
  <anchor x="329" y="228" name="center"/>
  <anchor x="405" y="676" name="top"/>
  <anchor x="86" y="676" name="topleft"/>
  <outline>
    <contour>
      <point x="259" y="166" type="curve"/>
      <point x="370" y="166" type="line"/>
      <point x="447" y="278"/>
      <point x="519" y="392"/>
      <point x="590" y="515" type="curve" smooth="yes"/>
      <point x="631" y="587"/>
      <point x="647" y="596"/>
      <point x="669" y="601" type="curve"/>
      <point x="677" y="624"/>
      <point x="682" y="652"/>
      <point x="683" y="679" type="curve"/>
      <point x="641" y="676"/>
      <point x="617" y="676"/>
      <point x="580" y="676" type="curve" smooth="yes"/>
      <point x="551" y="676"/>
      <point x="496" y="676"/>
      <point x="463" y="679" type="curve"/>
      <point x="459" y="651"/>
      <point x="459" y="625"/>
      <point x="464" y="601" type="curve"/>
      <point x="509" y="594"/>
      <point x="514" y="572"/>
      <point x="493" y="526" type="curve" smooth="yes"/>
      <point x="462" y="458"/>
      <point x="429" y="392"/>
      <point x="392" y="326" type="curve"/>
      <point x="412" y="308" type="line"/>
      <point x="400" y="385"/>
      <point x="385" y="456"/>
      <point x="365" y="521" type="curve" smooth="yes"/>
      <point x="350" y="569"/>
      <point x="356" y="594"/>
      <point x="413" y="601" type="curve"/>
      <point x="420" y="620"/>
      <point x="426" y="647"/>
      <point x="427" y="679" type="curve"/>
      <point x="364" y="676"/>
      <point x="285" y="676"/>
      <point x="249" y="676" type="curve" smooth="yes"/>
      <point x="221" y="676"/>
      <point x="143" y="676"/>
      <point x="92" y="679" type="curve"/>
      <point x="88" y="649"/>
      <point x="89" y="620"/>
      <point x="93" y="601" type="curve"/>
      <point x="121" y="594"/>
      <point x="135" y="582"/>
      <point x="160" y="509" type="curve" smooth="yes"/>
      <point x="199" y="394"/>
      <point x="231" y="282"/>
    </contour>
    <contour>
      <point x="87" y="-3" type="curve"/>
      <point x="141" y="0"/>
      <point x="220" y="0"/>
      <point x="309" y="0" type="curve" smooth="yes"/>
      <point x="390" y="0"/>
      <point x="461" y="0"/>
      <point x="505" y="-3" type="curve"/>
      <point x="507" y="21"/>
      <point x="507" y="50"/>
      <point x="502" y="75" type="curve"/>
      <point x="413" y="88"/>
      <point x="407" y="106"/>
      <point x="421" y="187" type="curve" smooth="yes"/>
      <point x="439" y="291" type="line"/>
      <point x="239" y="291" type="line"/>
      <point x="223" y="197" type="line" smooth="yes"/>
      <point x="206" y="98"/>
      <point x="193" y="86"/>
      <point x="105" y="75" type="curve"/>
      <point x="97" y="55"/>
      <point x="89" y="26"/>
    </contour>
  </outline>
</glyph>
<glyph name="Z" format="2">
  <advance width="570"/>
  <unicode hex="005A"/>
  <anchor x="240" y="0" name="bottom"/>
  <anchor x="359" y="676" name="top"/>
  <outline>
    <contour>
      <point x="6" y="-3" type="curve"/>
      <point x="67" y="0"/>
      <point x="148" y="0"/>
      <point x="234" y="0" type="curve" smooth="yes"/>
      <point x="307" y="0"/>
      <point x="413" y="0"/>
      <point x="491" y="-3" type="curve"/>
      <point x="500" y="50"/>
      <point x="525" y="130"/>
      <point x="546" y="180" type="curve"/>
      <point x="516" y="202"/>
      <point x="484" y="215"/>
      <point x="442" y="221" type="curve"/>
      <point x="397" y="110"/>
      <point x="357" y="75"/>
      <point x="266" y="75" type="curve" smooth="yes"/>
      <point x="168" y="75" type="line"/>
      <point x="203" y="33" type="line"/>
      <point x="361" y="237"/>
      <point x="480" y="402"/>
      <point x="617" y="600" type="curve"/>
      <point x="619" y="634"/>
      <point x="613" y="658"/>
      <point x="599" y="679" type="curve"/>
      <point x="538" y="676"/>
      <point x="440" y="676"/>
      <point x="369" y="676" type="curve" smooth="yes"/>
      <point x="304" y="676"/>
      <point x="190" y="676"/>
      <point x="137" y="679" type="curve"/>
      <point x="127" y="623"/>
      <point x="105" y="538"/>
      <point x="80" y="482" type="curve"/>
      <point x="106" y="463"/>
      <point x="139" y="453"/>
      <point x="186" y="451" type="curve"/>
      <point x="230" y="569"/>
      <point x="264" y="601"/>
      <point x="328" y="601" type="curve" smooth="yes"/>
      <point x="457" y="601" type="line"/>
      <point x="399" y="636" type="line"/>
      <point x="262" y="434"/>
      <point x="144" y="278"/>
      <point x="-14" y="78" type="curve"/>
      <point x="-15" y="45"/>
      <point x="-7" y="17"/>
    </contour>
  </outline>
</glyph>
<glyph name="underscore" format="2">
  <advance width="550"/>
  <unicode hex="005F"/>
  <outline>
    <contour>
      <point x="-51" y="-153" type="curve"/>
      <point x="55" y="-152"/>
      <point x="116" y="-151"/>
      <point x="195" y="-151" type="curve" smooth="yes"/>
      <point x="285" y="-151"/>
      <point x="337" y="-151"/>
      <point x="453" y="-152" type="curve"/>
      <point x="465" y="-130"/>
      <point x="467" y="-96"/>
      <point x="467" y="-72" type="curve"/>
      <point x="-37" y="-72" type="line"/>
      <point x="-48" y="-96"/>
      <point x="-51" y="-122"/>
    </contour>
  </outline>
</glyph>
<glyph name="h" format="2">
  <advance width="669"/>
  <unicode hex="0068"/>
  <anchor x="311" y="0" name="bottom"/>
  <anchor x="650" y="52" name="bottomright"/>
  <anchor x="222" y="511" name="center"/>
  <anchor x="378" y="676" name="top"/>
  <outline>
    <contour>
      <point x="34" y="0" type="line"/>
      <point x="227" y="0" type="line"/>
      <point x="274" y="265" type="line"/>
      <point x="259" y="265" type="line"/>
      <point x="279" y="326"/>
      <point x="295" y="393"/>
      <point x="337" y="622" type="curve" smooth="yes"/>
      <point x="346" y="673"/>
      <point x="337" y="686"/>
      <point x="311" y="710" type="curve"/>
      <point x="245" y="684"/>
      <point x="165" y="671"/>
      <point x="83" y="669" type="curve"/>
      <point x="74" y="646"/>
      <point x="70" y="618"/>
      <point x="70" y="594" type="curve"/>
      <point x="134" y="594"/>
      <point x="135" y="577"/>
      <point x="123" y="506" type="curve" smooth="yes"/>
    </contour>
    <component base="schulter.comp" xOffset="6"/>
  </outline>
</glyph>
<glyph name="m" format="2">
  <advance width="978"/>
  <unicode hex="006D"/>
  <anchor x="444" y="0" name="bottom"/>
  <anchor x="959" y="52" name="bottomright"/>
  <anchor x="534" y="458" name="top"/>
  <outline>
    <contour>
      <point x="797" y="-9" type="curve" smooth="yes"/>
      <point x="855" y="-9"/>
      <point x="915" y="9"/>
      <point x="959" y="52" type="curve"/>
      <point x="956" y="75"/>
      <point x="940" y="105"/>
      <point x="927" y="118" type="curve"/>
      <point x="910" y="107"/>
      <point x="902" y="104"/>
      <point x="894" y="104" type="curve" smooth="yes"/>
      <point x="880" y="104"/>
      <point x="876" y="112"/>
      <point x="892" y="184" type="curve" smooth="yes"/>
      <point x="908" y="258" type="line" smooth="yes"/>
      <point x="937" y="392"/>
      <point x="917" y="467"/>
      <point x="817" y="467" type="curve" smooth="yes"/>
      <point x="738" y="467"/>
      <point x="642" y="413"/>
      <point x="597" y="305" type="curve" smooth="yes"/>
      <point x="580" y="265" type="line"/>
      <point x="579" y="265" type="line"/>
      <point x="594" y="307"/>
      <point x="598" y="339"/>
      <point x="598" y="365" type="curve" smooth="yes"/>
      <point x="598" y="427"/>
      <point x="572" y="467"/>
      <point x="499" y="467" type="curve" smooth="yes"/>
      <point x="414" y="467"/>
      <point x="327" y="405"/>
      <point x="281" y="311" type="curve" smooth="yes"/>
      <point x="259" y="265" type="line"/>
      <point x="258" y="265" type="line"/>
      <point x="286" y="327"/>
      <point x="299" y="369"/>
      <point x="302" y="402" type="curve" smooth="yes"/>
      <point x="305" y="435"/>
      <point x="297" y="452"/>
      <point x="271" y="467" type="curve"/>
      <point x="205" y="441"/>
      <point x="125" y="428"/>
      <point x="43" y="426" type="curve"/>
      <point x="34" y="404"/>
      <point x="30" y="375"/>
      <point x="30" y="351" type="curve"/>
      <point x="94" y="351"/>
      <point x="95" y="334"/>
      <point x="82" y="262" type="curve" smooth="yes"/>
      <point x="33" y="0" type="line"/>
      <point x="226" y="0" type="line"/>
      <point x="235" y="50" type="line" smooth="yes"/>
      <point x="272" y="244"/>
      <point x="337" y="320"/>
      <point x="380" y="320" type="curve" smooth="yes"/>
      <point x="411" y="320"/>
      <point x="410" y="288"/>
      <point x="391" y="190" type="curve" smooth="yes"/>
      <point x="355" y="0" type="line"/>
      <point x="543" y="0" type="line"/>
      <point x="552" y="52" type="line" smooth="yes"/>
      <point x="585" y="238"/>
      <point x="651" y="320"/>
      <point x="692" y="320" type="curve" smooth="yes"/>
      <point x="722" y="320"/>
      <point x="721" y="284"/>
      <point x="696" y="184" type="curve" smooth="yes"/>
      <point x="693" y="172" type="line" smooth="yes"/>
      <point x="667" y="67"/>
      <point x="679" y="-9"/>
    </contour>
  </outline>
</glyph>
<glyph name="p" format="2">
  <advance width="620.819"/>
  <unicode hex="0070"/>
  <anchor x="265" y="0" name="bottom"/>
  <anchor x="90" y="-104" name="center"/>
  <anchor x="355" y="458" name="top"/>
  <outline>
    <contour>
      <point x="-6" y="-243" type="line"/>
      <point x="187" y="-243" type="line"/>
      <point x="200" y="-170" type="line" smooth="yes"/>
      <point x="217" y="-76"/>
      <point x="224" y="-12"/>
      <point x="214" y="21" type="curve"/>
      <point x="241" y="235" type="line"/>
      <point x="251" y="271" type="line"/>
      <point x="261" y="300"/>
      <point x="278" y="364"/>
      <point x="282" y="392" type="curve" smooth="yes"/>
      <point x="287" y="425"/>
      <point x="280" y="444"/>
      <point x="256" y="467" type="curve"/>
      <point x="190" y="441"/>
      <point x="125" y="428"/>
      <point x="43" y="426" type="curve"/>
      <point x="34" y="403"/>
      <point x="30" y="375"/>
      <point x="30" y="351" type="curve"/>
      <point x="94" y="351"/>
      <point x="95" y="334"/>
      <point x="83" y="263" type="curve" smooth="yes"/>
    </contour>
    <component base="bauch.comp" xScale="-1" yScale="-1" xOffset="655" yOffset="458"/>
  </outline>
</glyph>
<glyph name="u" format="2">
  <advance width="668"/>
  <unicode hex="0075"/>
  <anchor x="288" y="0" name="bottom"/>
  <anchor x="649" y="52" name="bottomright"/>
  <anchor x="598" y="16" name="ogonek"/>
  <anchor x="348" y="458" name="top"/>
  <anchor x="630" y="458" name="topright"/>
  <outline>
    <contour>
      <point x="152" y="-9" type="curve" smooth="yes"/>
      <point x="252" y="-9"/>
      <point x="341" y="53"/>
      <point x="392" y="156" type="curve"/>
      <point x="393" y="156" type="line"/>
      <point x="385" y="139"/>
      <point x="380" y="122"/>
      <point x="377" y="108" type="curve" smooth="yes"/>
      <point x="364" y="48"/>
      <point x="384" y="-9"/>
      <point x="488" y="-9" type="curve" smooth="yes"/>
      <point x="546" y="-9"/>
      <point x="606" y="10"/>
      <point x="649" y="52" type="curve"/>
      <point x="648" y="76"/>
      <point x="632" y="105"/>
      <point x="618" y="117" type="curve"/>
      <point x="605" y="107"/>
      <point x="595" y="102"/>
      <point x="588" y="102" type="curve" smooth="yes"/>
      <point x="571" y="102"/>
      <point x="569" y="114"/>
      <point x="585" y="205" type="curve" smooth="yes"/>
      <point x="630" y="458" type="line"/>
      <point x="441" y="458" type="line"/>
      <point x="431" y="405" type="line" smooth="yes"/>
      <point x="396" y="217"/>
      <point x="333" y="149"/>
      <point x="292" y="149" type="curve" smooth="yes"/>
      <point x="261" y="149"/>
      <point x="250" y="171"/>
      <point x="275" y="285" type="curve" smooth="yes"/>
      <point x="306" y="427"/>
      <point x="306" y="442"/>
      <point x="266" y="467" type="curve"/>
      <point x="202" y="441"/>
      <point x="122" y="428"/>
      <point x="43" y="426" type="curve"/>
      <point x="34" y="404"/>
      <point x="30" y="376"/>
      <point x="30" y="353" type="curve"/>
      <point x="100" y="349"/>
      <point x="102" y="344"/>
      <point x="70" y="202" type="curve" smooth="yes"/>
      <point x="32" y="34"/>
      <point x="75" y="-9"/>
    </contour>
  </outline>
</glyph>
<glyph name="v" format="2">
  <advance width="566"/>
  <unicode hex="0076"/>
  <outline>
    <contour>
      <point x="503" y="467" type="curve"/>
      <point x="462" y="451"/>
      <point x="369" y="430"/>
      <point x="316" y="426" type="curve"/>
      <point x="308" y="404"/>
      <point x="304" y="379"/>
      <point x="304" y="350" type="curve"/>
      <point x="356" y="353"/>
      <point x="385" y="326"/>
      <point x="385" y="278" type="curve" smooth="yes"/>
      <point x="385" y="227"/>
      <point x="363" y="177"/>
      <point x="289" y="107" type="curve"/>
      <point x="320" y="70" type="line"/>
      <point x="305" y="181"/>
      <point x="283" y="293"/>
      <point x="249" y="411" type="curve" smooth="yes"/>
      <point x="238" y="448"/>
      <point x="229" y="459"/>
      <point x="203" y="467" type="curve"/>
      <point x="162" y="451"/>
      <point x="69" y="430"/>
      <point x="16" y="426" type="curve"/>
      <point x="8" y="404"/>
      <point x="4" y="379"/>
      <point x="4" y="350" type="curve"/>
      <point x="56" y="353"/>
      <point x="73" y="338"/>
      <point x="87" y="292" type="curve" smooth="yes"/>
      <point x="107" y="228"/>
      <point x="131" y="131"/>
      <point x="153" y="11" type="curve"/>
      <point x="174" y="-3"/>
      <point x="215" y="-9"/>
      <point x="246" y="-9" type="curve"/>
      <point x="484" y="151"/>
      <point x="559" y="256"/>
      <point x="559" y="366" type="curve" smooth="yes"/>
      <point x="559" y="425"/>
      <point x="541" y="455"/>
    </contour>
  </outline>
</glyph>
<glyph name="bar" format="2">
  <advance width="180"/>
  <unicode hex="007C"/>
  <outline>
    <contour>
      <point x="-46" y="-245" type="line"/>
      <point x="-15" y="-249"/>
      <point x="20" y="-247"/>
      <point x="45" y="-236" type="curve"/>
      <point x="100" y="71"/>
      <point x="160" y="388"/>
      <point x="228" y="717" type="curve"/>
      <point x="198" y="721"/>
      <point x="170" y="719"/>
      <point x="138" y="710" type="curve"/>
    </contour>
  </outline>
</glyph>
<glyph name="sterling" format="2">
  <advance width="639"/>
  <unicode hex="00A3"/>
  <outline>
    <contour>
      <point x="410" y="-9" type="curve" smooth="yes"/>
      <point x="510" y="-9"/>
      <point x="563" y="81"/>
      <point x="581" y="190" type="curve"/>
      <point x="565" y="205"/>
      <point x="534" y="219"/>
      <point x="507" y="223" type="curve"/>
      <point x="498" y="198"/>
      <point x="480" y="185"/>
      <point x="460" y="185" type="curve" smooth="yes"/>
      <point x="429" y="185"/>
      <point x="406" y="207"/>
      <point x="366" y="207" type="curve" smooth="yes"/>
      <point x="316" y="207"/>
      <point x="282" y="197"/>
      <point x="188" y="139" type="curve"/>
      <point x="192" y="136" type="line"/>
      <point x="297" y="222"/>
      <point x="319" y="247"/>
      <point x="333" y="324" type="curve" smooth="yes"/>
      <point x="351" y="427"/>
      <point x="293" y="458"/>
      <point x="308" y="540" type="curve" smooth="yes"/>
      <point x="315" y="581"/>
      <point x="339" y="606"/>
      <point x="374" y="606" type="curve" smooth="yes"/>
      <point x="425" y="606"/>
      <point x="466" y="569"/>
      <point x="461" y="482" type="curve"/>
      <point x="495" y="479"/>
      <point x="542" y="483"/>
      <point x="568" y="496" type="curve"/>
      <point x="569" y="542"/>
      <point x="579" y="595"/>
      <point x="594" y="641" type="curve"/>
      <point x="555" y="665"/>
      <point x="483" y="685"/>
      <point x="404" y="685" type="curve" smooth="yes"/>
      <point x="223" y="685"/>
      <point x="116" y="614"/>
      <point x="98" y="514" type="curve" smooth="yes"/>
      <point x="78" y="402"/>
      <point x="136" y="332"/>
      <point x="117" y="227" type="curve" smooth="yes"/>
      <point x="105" y="160"/>
      <point x="75" y="121"/>
      <point x="-5" y="74" type="curve"/>
      <point x="-3" y="42"/>
      <point x="13" y="8"/>
      <point x="38" y="-8" type="curve"/>
      <point x="88" y="26"/>
      <point x="121" y="38"/>
      <point x="174" y="38" type="curve" smooth="yes"/>
      <point x="274" y="38"/>
      <point x="298" y="-9"/>
    </contour>
    <contour>
      <point x="460" y="375" type="curve"/>
      <point x="51" y="375" type="line"/>
      <point x="35" y="350"/>
      <point x="27" y="316"/>
      <point x="29" y="284" type="curve"/>
      <point x="112" y="288"/>
      <point x="369" y="288"/>
      <point x="439" y="288" type="curve"/>
      <point x="453" y="311"/>
      <point x="462" y="344"/>
    </contour>
  </outline>
</glyph>
<glyph name="currency" format="2">
  <advance width="527.237"/>
  <unicode hex="00A4"/>
  <outline>
    <contour>
      <point x="278" y="436" type="curve" smooth="yes"/>
      <point x="183" y="436"/>
      <point x="109" y="378"/>
      <point x="94" y="291" type="curve" smooth="yes"/>
      <point x="74" y="177"/>
      <point x="137" y="80"/>
      <point x="254" y="80" type="curve" smooth="yes"/>
      <point x="352" y="80"/>
      <point x="429" y="145"/>
      <point x="446" y="242" type="curve" smooth="yes"/>
      <point x="466" y="351"/>
      <point x="396" y="436"/>
    </contour>
    <contour>
      <point x="270" y="365" type="curve" smooth="yes"/>
      <point x="338" y="365"/>
      <point x="378" y="310"/>
      <point x="366" y="238" type="curve" smooth="yes"/>
      <point x="357" y="186"/>
      <point x="315" y="151"/>
      <point x="262" y="151" type="curve" smooth="yes"/>
      <point x="197" y="151"/>
      <point x="161" y="208"/>
      <point x="173" y="277" type="curve" smooth="yes"/>
      <point x="183" y="330"/>
      <point x="221" y="365"/>
    </contour>
    <contour>
      <point x="477" y="76" type="curve"/>
      <point x="365" y="195" type="line"/>
      <point x="313" y="152" type="line"/>
      <point x="406" y="47" type="line"/>
      <point x="431" y="49"/>
      <point x="464" y="60"/>
    </contour>
    <contour>
      <point x="364" y="379" type="line"/>
      <point x="404" y="334" type="line"/>
      <point x="517" y="422" type="line"/>
      <point x="505" y="440"/>
      <point x="481" y="457"/>
      <point x="458" y="462" type="curve"/>
    </contour>
    <contour>
      <point x="60" y="436" type="curve"/>
      <point x="154" y="335" type="line"/>
      <point x="208" y="376" type="line"/>
      <point x="131" y="461" type="line"/>
      <point x="107" y="461"/>
      <point x="75" y="451"/>
    </contour>
    <contour>
      <point x="194" y="146" type="line"/>
      <point x="147" y="189" type="line"/>
      <point x="27" y="85" type="line"/>
      <point x="42" y="67"/>
      <point x="69" y="51"/>
      <point x="94" y="50" type="curve"/>
    </contour>
  </outline>
</glyph>
<glyph name="copyright" format="2">
  <advance width="747"/>
  <unicode hex="00A9"/>
  <outline>
    <contour>
      <point x="351" y="-117" type="curve" smooth="yes"/>
      <point x="538" y="-117"/>
      <point x="673" y="-11"/>
      <point x="712" y="179" type="curve" smooth="yes"/>
      <point x="759" y="406"/>
      <point x="632" y="577"/>
      <point x="399" y="577" type="curve" smooth="yes"/>
      <point x="220" y="577"/>
      <point x="78" y="477"/>
      <point x="35" y="280" type="curve" smooth="yes"/>
      <point x="-15" y="49"/>
      <point x="116" y="-117"/>
    </contour>
    <contour>
      <point x="357" y="-46" type="curve" smooth="yes"/>
      <point x="158" y="-46"/>
      <point x="64" y="98"/>
      <point x="104" y="278" type="curve" smooth="yes"/>
      <point x="134" y="414"/>
      <point x="232" y="507"/>
      <point x="391" y="507" type="curve" smooth="yes"/>
      <point x="586" y="507"/>
      <point x="683" y="366"/>
      <point x="642" y="182" type="curve" smooth="yes"/>
      <point x="610" y="39"/>
      <point x="510" y="-46"/>
    </contour>
    <component base="c" xScale="0.9" yScale="0.9" xOffset="130" yOffset="27"/>
  </outline>
</glyph>
<glyph name="ordfeminine" format="2">
  <advance width="561"/>
  <unicode hex="00AA"/>
  <outline>
    <contour>
      <point x="517" y="717" type="curve"/>
      <point x="467" y="705"/>
      <point x="402" y="701"/>
      <point x="335" y="701" type="curve"/>
      <point x="393" y="659" type="line"/>
      <point x="347" y="448" type="line"/>
      <point x="353" y="448" type="line"/>
      <point x="345" y="401"/>
      <point x="363" y="360"/>
      <point x="428" y="360" type="curve" smooth="yes"/>
      <point x="473" y="360"/>
      <point x="512" y="373"/>
      <point x="545" y="405" type="curve"/>
      <point x="549" y="425"/>
      <point x="542" y="460"/>
      <point x="531" y="473" type="curve"/>
      <point x="525" y="468"/>
      <point x="517" y="465"/>
      <point x="511" y="465" type="curve" smooth="yes"/>
      <point x="501" y="465"/>
      <point x="498" y="472"/>
      <point x="508" y="519" type="curve" smooth="yes"/>
      <point x="538" y="651" type="line" smooth="yes"/>
      <point x="545" y="682"/>
      <point x="540" y="700"/>
    </contour>
    <contour>
      <point x="434" y="702" type="line"/>
      <point x="409" y="711"/>
      <point x="380" y="717"/>
      <point x="339" y="717" type="curve" smooth="yes"/>
      <point x="195" y="717"/>
      <point x="130" y="633"/>
      <point x="112" y="540" type="curve" smooth="yes"/>
      <point x="98" y="471"/>
      <point x="109" y="360"/>
      <point x="206" y="360" type="curve" smooth="yes"/>
      <point x="292" y="360"/>
      <point x="377" y="444"/>
      <point x="414" y="590" type="curve" smooth="yes"/>
      <point x="432" y="673" type="line"/>
      <point x="377" y="679" type="line"/>
      <point x="363" y="620" type="line" smooth="yes"/>
      <point x="339" y="520"/>
      <point x="310" y="481"/>
      <point x="288" y="481" type="curve" smooth="yes"/>
      <point x="274" y="481"/>
      <point x="270" y="510"/>
      <point x="277" y="543" type="curve" smooth="yes"/>
      <point x="291" y="618"/>
      <point x="319" y="644"/>
      <point x="341" y="644" type="curve" smooth="yes"/>
      <point x="353" y="644"/>
      <point x="372" y="641"/>
      <point x="382" y="636" type="curve"/>
    </contour>
  </outline>
</glyph>
<glyph name="guillemetleft" format="2">
  <advance width="499"/>
  <unicode hex="00AB"/>
  <outline>
    <contour>
      <point x="212" y="413" type="curve"/>
      <point x="166" y="369"/>
      <point x="124" y="333"/>
      <point x="72" y="295" type="curve"/>
      <point x="56" y="275"/>
      <point x="44" y="238"/>
      <point x="41" y="205" type="curve"/>
      <point x="84" y="161"/>
      <point x="131" y="106"/>
      <point x="167" y="59" type="curve"/>
      <point x="195" y="72"/>
      <point x="212" y="87"/>
      <point x="232" y="112" type="curve"/>
      <point x="212" y="154"/>
      <point x="190" y="210"/>
      <point x="178" y="255" type="curve"/>
      <point x="208" y="297"/>
      <point x="252" y="350"/>
      <point x="283" y="384" type="curve"/>
      <point x="268" y="401"/>
      <point x="241" y="415"/>
    </contour>
    <contour>
      <point x="419" y="403" type="curve"/>
      <point x="384" y="367"/>
      <point x="342" y="332"/>
      <point x="292" y="295" type="curve"/>
      <point x="276" y="275"/>
      <point x="264" y="238"/>
      <point x="261" y="205" type="curve"/>
      <point x="303" y="161"/>
      <point x="338" y="118"/>
      <point x="374" y="69" type="curve"/>
      <point x="402" y="82"/>
      <point x="419" y="97"/>
      <point x="439" y="122" type="curve"/>
      <point x="421" y="164"/>
      <point x="407" y="210"/>
      <point x="398" y="255" type="curve"/>
      <point x="427" y="298"/>
      <point x="460" y="340"/>
      <point x="490" y="374" type="curve"/>
      <point x="475" y="391"/>
      <point x="448" y="405"/>
    </contour>
  </outline>
</glyph>
<glyph name="logicalnot" format="2">
  <advance width="550"/>
  <unicode hex="00AC"/>
  <outline>
    <contour>
      <point x="394" y="120" type="line"/>
      <point x="421" y="113"/>
      <point x="451" y="119"/>
      <point x="475" y="135" type="curve"/>
      <point x="520" y="367" type="line"/>
      <point x="77" y="367" type="line"/>
      <point x="70" y="340"/>
      <point x="66" y="304"/>
      <point x="66" y="279" type="curve"/>
      <point x="212" y="283"/>
      <point x="337" y="283"/>
      <point x="475" y="283" type="curve"/>
      <point x="437" y="319" type="line"/>
    </contour>
  </outline>
</glyph>
<glyph name="plusminus" format="2">
  <advance width="550"/>
  <unicode hex="00B1"/>
  <outline>
    <contour>
      <point x="220" y="162" type="curve"/>
      <point x="254" y="152"/>
      <point x="286" y="151"/>
      <point x="309" y="160" type="curve"/>
      <point x="367" y="513" type="line"/>
      <point x="347" y="517"/>
      <point x="312" y="518"/>
      <point x="278" y="512" type="curve"/>
      <point x="272" y="460"/>
      <point x="250" y="330"/>
    </contour>
    <contour>
      <point x="27" y="39" type="curve"/>
      <point x="112" y="42"/>
      <point x="173" y="42"/>
      <point x="254" y="42" type="curve" smooth="yes"/>
      <point x="337" y="42"/>
      <point x="350" y="42"/>
      <point x="453" y="41" type="curve"/>
      <point x="466" y="66"/>
      <point x="467" y="91"/>
      <point x="463" y="120" type="curve"/>
      <point x="36" y="120" type="line"/>
      <point x="27" y="103"/>
      <point x="24" y="61"/>
    </contour>
    <contour>
      <point x="104" y="287" type="curve"/>
      <point x="195" y="289"/>
      <point x="256" y="289"/>
      <point x="299" y="289" type="curve" smooth="yes"/>
      <point x="386" y="289"/>
      <point x="405" y="290"/>
      <point x="472" y="289" type="curve"/>
      <point x="483" y="313"/>
      <point x="486" y="340"/>
      <point x="482" y="371" type="curve"/>
      <point x="113" y="371" type="line"/>
      <point x="105" y="348"/>
      <point x="102" y="317"/>
    </contour>
  </outline>
</glyph>
<glyph name="paragraph" format="2">
  <advance width="586"/>
  <unicode hex="00B6"/>
  <outline>
    <contour>
      <point x="409" y="681" type="curve" smooth="yes"/>
      <point x="204" y="681"/>
      <point x="85" y="614"/>
      <point x="63" y="487" type="curve" smooth="yes"/>
      <point x="41" y="361"/>
      <point x="104" y="279"/>
      <point x="265" y="279" type="curve" smooth="yes"/>
      <point x="305" y="279"/>
      <point x="319" y="282"/>
      <point x="344" y="287" type="curve"/>
      <point x="355" y="354" type="line"/>
      <point x="335" y="354" type="line" smooth="yes"/>
      <point x="290" y="354"/>
      <point x="242" y="393"/>
      <point x="261" y="498" type="curve" smooth="yes"/>
      <point x="275" y="577"/>
      <point x="311" y="607"/>
      <point x="409" y="607" type="curve" smooth="yes"/>
      <point x="449" y="607"/>
      <point x="478" y="601"/>
      <point x="508" y="591" type="curve"/>
      <point x="494" y="622" type="line"/>
      <point x="343" y="-238" type="line"/>
      <point x="368" y="-249"/>
      <point x="401" y="-250"/>
      <point x="431" y="-250" type="curve"/>
      <point x="482" y="71"/>
      <point x="500" y="188"/>
      <point x="559" y="501" type="curve" smooth="yes"/>
      <point x="574" y="581"/>
      <point x="583" y="596"/>
      <point x="634" y="601" type="curve"/>
      <point x="643" y="623"/>
      <point x="648" y="653"/>
      <point x="648" y="679" type="curve"/>
      <point x="616" y="677"/>
      <point x="587" y="677"/>
      <point x="557" y="677" type="curve" smooth="yes"/>
      <point x="510" y="677"/>
      <point x="460" y="681"/>
    </contour>
    <contour>
      <point x="374" y="644" type="line"/>
      <point x="220" y="-231" type="line"/>
      <point x="245" y="-246"/>
      <point x="277" y="-250"/>
      <point x="307" y="-250" type="curve"/>
      <point x="358" y="71"/>
      <point x="402" y="331"/>
      <point x="461" y="644" type="curve"/>
    </contour>
  </outline>
</glyph>
<glyph name="eng" format="2">
  <advance width="642"/>
  <unicode hex="014B"/>
  <outline>
    <contour>
      <point x="43" y="426" type="curve"/>
      <point x="34" y="404"/>
      <point x="30" y="375"/>
      <point x="30" y="351" type="curve"/>
      <point x="94" y="351"/>
      <point x="95" y="334"/>
      <point x="82" y="262" type="curve" smooth="yes"/>
      <point x="33" y="0" type="line"/>
      <point x="226" y="0" type="line"/>
      <point x="235" y="50" type="line"/>
      <point x="264" y="278" type="line"/>
      <point x="287" y="329"/>
      <point x="296" y="359"/>
      <point x="302" y="402" type="curve" smooth="yes"/>
      <point x="306" y="430"/>
      <point x="297" y="453"/>
      <point x="271" y="467" type="curve"/>
      <point x="205" y="441"/>
      <point x="125" y="428"/>
    </contour>
    <contour>
      <point x="406" y="217" type="curve" smooth="yes"/>
      <point x="378" y="52" type="line" smooth="yes"/>
      <point x="357" y="-70"/>
      <point x="304" y="-132"/>
      <point x="235" y="-167" type="curve"/>
      <point x="235" y="-203"/>
      <point x="245" y="-228"/>
      <point x="266" y="-246" type="curve"/>
      <point x="458" y="-183"/>
      <point x="540" y="-101"/>
      <point x="583" y="125" type="curve" smooth="yes"/>
      <point x="607" y="254" type="line" smooth="yes"/>
      <point x="640" y="431"/>
      <point x="600" y="467"/>
      <point x="517" y="467" type="curve" smooth="yes"/>
      <point x="417" y="467"/>
      <point x="324" y="400"/>
      <point x="281" y="311" type="curve" smooth="yes"/>
      <point x="236" y="218" type="line"/>
      <point x="235" y="50" type="line"/>
      <point x="270" y="238"/>
      <point x="332" y="305"/>
      <point x="373" y="305" type="curve" smooth="yes"/>
      <point x="403" y="305"/>
      <point x="417" y="283"/>
    </contour>
  </outline>
</glyph>
<glyph name="longs" format="2">
  <advance width="354.131"/>
  <unicode hex="017F"/>
  <outline>
    <contour>
      <point x="424" y="714" type="curve" smooth="yes"/>
      <point x="206" y="714"/>
      <point x="154" y="618"/>
      <point x="123" y="454" type="curve" smooth="yes"/>
      <point x="95" y="282"/>
      <point x="77" y="125"/>
      <point x="69" y="35" type="curve" smooth="yes"/>
      <point x="57" y="-96"/>
      <point x="37" y="-117"/>
      <point x="-27" y="-117" type="curve" smooth="yes"/>
      <point x="-65" y="-117"/>
      <point x="-102" y="-111"/>
      <point x="-134" y="-95" type="curve"/>
      <point x="-148" y="-123"/>
      <point x="-157" y="-168"/>
      <point x="-157" y="-199" type="curve"/>
      <point x="-127" y="-234"/>
      <point x="-89" y="-248"/>
      <point x="-47" y="-248" type="curve" smooth="yes"/>
      <point x="120" y="-248"/>
      <point x="236" y="-49"/>
      <point x="269" y="167" type="curve" smooth="yes"/>
      <point x="284" y="264"/>
      <point x="297" y="343"/>
      <point x="317" y="448" type="curve" smooth="yes"/>
      <point x="345" y="599"/>
      <point x="358" y="639"/>
      <point x="395" y="639" type="curve" smooth="yes"/>
      <point x="428" y="639"/>
      <point x="422" y="570"/>
      <point x="423" y="524" type="curve"/>
      <point x="455" y="524"/>
      <point x="507" y="529"/>
      <point x="524" y="537" type="curve"/>
      <point x="524" y="576"/>
      <point x="537" y="656"/>
      <point x="550" y="696" type="curve"/>
      <point x="529" y="706"/>
      <point x="480" y="714"/>
    </contour>
    <contour>
      <point x="41" y="448" type="line"/>
      <point x="30" y="429"/>
      <point x="27" y="397"/>
      <point x="27" y="369" type="curve"/>
      <point x="51" y="369"/>
      <point x="86" y="364"/>
      <point x="128" y="348" type="curve"/>
      <point x="128" y="448" type="line"/>
    </contour>
  </outline>
</glyph>
<glyph name="Ereversed" format="2">
  <advance width="635"/>
  <unicode hex="018E"/>
  <anchor x="272" y="0" name="bottom"/>
  <anchor x="404" y="676" name="top"/>
  <outline>
    <contour>
      <point x="567" y="-3" type="curve"/>
      <point x="573" y="22"/>
      <point x="575" y="52"/>
      <point x="574" y="75" type="curve"/>
      <point x="521" y="79"/>
      <point x="512" y="95"/>
      <point x="530" y="187" type="curve" smooth="yes"/>
      <point x="589" y="491" type="line" smooth="yes"/>
      <point x="606" y="581"/>
      <point x="620" y="593"/>
      <point x="677" y="601" type="curve"/>
      <point x="690" y="620"/>
      <point x="699" y="656"/>
      <point x="699" y="679" type="curve"/>
      <point x="636" y="677"/>
      <point x="499" y="676"/>
      <point x="425" y="676" type="curve"/>
      <point x="331" y="192" type="line" smooth="yes"/>
      <point x="313" y="100"/>
      <point x="290" y="75"/>
      <point x="230" y="75" type="curve"/>
      <point x="258" y="0" type="line"/>
      <point x="328" y="0"/>
      <point x="521" y="-2"/>
    </contour>
    <contour>
      <point x="-3" y="-2" type="curve"/>
      <point x="56" y="-1"/>
      <point x="174" y="0"/>
      <point x="258" y="0" type="curve"/>
      <point x="230" y="75" type="line"/>
      <point x="213" y="75" type="line" smooth="yes"/>
      <point x="142" y="75"/>
      <point x="114" y="108"/>
      <point x="104" y="203" type="curve"/>
      <point x="62" y="206"/>
      <point x="20" y="198"/>
      <point x="2" y="189" type="curve"/>
      <point x="9" y="138"/>
      <point x="6" y="70"/>
    </contour>
    <contour>
      <point x="166" y="221" type="curve"/>
      <point x="203" y="221"/>
      <point x="230" y="223"/>
      <point x="254" y="231" type="curve"/>
      <point x="270" y="286"/>
      <point x="292" y="299"/>
      <point x="351" y="299" type="curve" smooth="yes"/>
      <point x="408" y="299" type="line"/>
      <point x="422" y="374" type="line"/>
      <point x="365" y="374" type="line" smooth="yes"/>
      <point x="300" y="374"/>
      <point x="289" y="393"/>
      <point x="298" y="445" type="curve"/>
      <point x="277" y="454"/>
      <point x="242" y="457"/>
      <point x="212" y="457" type="curve"/>
      <point x="208" y="425"/>
      <point x="203" y="390"/>
      <point x="194" y="340" type="curve" smooth="yes"/>
      <point x="183" y="284"/>
      <point x="174" y="250"/>
    </contour>
    <contour>
      <point x="202" y="476" type="curve"/>
      <point x="226" y="548"/>
      <point x="265" y="601"/>
      <point x="361" y="601" type="curve" smooth="yes"/>
      <point x="454" y="601" type="line"/>
      <point x="435" y="676" type="line"/>
      <point x="285" y="676"/>
      <point x="215" y="677"/>
      <point x="158" y="679" type="curve"/>
      <point x="149" y="635"/>
      <point x="125" y="555"/>
      <point x="107" y="512" type="curve"/>
      <point x="130" y="495"/>
      <point x="157" y="483"/>
    </contour>
  </outline>
</glyph>
<glyph name="Schwa" format="2">
  <advance width="685"/>
  <unicode hex="018F"/>
  <anchor x="298" y="0" name="bottom"/>
  <anchor x="400" y="676" name="top"/>
  <outline>
    <contour>
      <point x="284" y="-7" type="curve" smooth="yes"/>
      <point x="478" y="-7"/>
      <point x="636" y="118"/>
      <point x="681" y="336" type="curve" smooth="yes"/>
      <point x="719" y="521"/>
      <point x="655" y="685"/>
      <point x="373" y="685" type="curve" smooth="yes"/>
      <point x="297" y="685"/>
      <point x="205" y="673"/>
      <point x="136" y="650" type="curve"/>
      <point x="136" y="595"/>
      <point x="124" y="545"/>
      <point x="111" y="498" type="curve"/>
      <point x="129" y="476"/>
      <point x="169" y="463"/>
      <point x="202" y="460" type="curve"/>
      <point x="228" y="559"/>
      <point x="260" y="610"/>
      <point x="351" y="610" type="curve" smooth="yes"/>
      <point x="489" y="610"/>
      <point x="506" y="493"/>
      <point x="475" y="331" type="curve" smooth="yes"/>
      <point x="437" y="132"/>
      <point x="366" y="68"/>
      <point x="296" y="68" type="curve" smooth="yes"/>
      <point x="219" y="68"/>
      <point x="198" y="144"/>
      <point x="228" y="280" type="curve"/>
      <point x="325" y="292"/>
      <point x="390" y="294"/>
      <point x="485" y="294" type="curve"/>
      <point x="496" y="369" type="line"/>
      <point x="85" y="374" type="line"/>
      <point x="66" y="360"/>
      <point x="50" y="339"/>
      <point x="43" y="323" type="curve"/>
      <point x="14" y="146"/>
      <point x="69" y="-7"/>
    </contour>
  </outline>
</glyph>
<glyph name="florin" format="2">
  <advance width="441"/>
  <unicode hex="0192"/>
  <outline>
    <contour>
      <point x="419" y="714" type="curve" smooth="yes"/>
      <point x="205" y="714"/>
      <point x="156" y="620"/>
      <point x="124" y="454" type="curve" smooth="yes"/>
      <point x="96" y="308"/>
      <point x="74" y="86"/>
      <point x="69" y="35" type="curve" smooth="yes"/>
      <point x="54" y="-119"/>
      <point x="15" y="-173"/>
      <point x="-19" y="-173" type="curve" smooth="yes"/>
      <point x="-55" y="-173"/>
      <point x="-49" y="-115"/>
      <point x="-50" y="-58" type="curve"/>
      <point x="-82" y="-58"/>
      <point x="-134" y="-63"/>
      <point x="-151" y="-71" type="curve"/>
      <point x="-151" y="-110"/>
      <point x="-164" y="-190"/>
      <point x="-177" y="-230" type="curve"/>
      <point x="-156" y="-240"/>
      <point x="-106" y="-248"/>
      <point x="-53" y="-248" type="curve" smooth="yes"/>
      <point x="167" y="-248"/>
      <point x="226" y="-112"/>
      <point x="266" y="137" type="curve" smooth="yes"/>
      <point x="276" y="200"/>
      <point x="291" y="309"/>
      <point x="317" y="448" type="curve" smooth="yes"/>
      <point x="344" y="593"/>
      <point x="358" y="639"/>
      <point x="392" y="639" type="curve" smooth="yes"/>
      <point x="427" y="639"/>
      <point x="422" y="589"/>
      <point x="423" y="524" type="curve"/>
      <point x="455" y="524"/>
      <point x="507" y="529"/>
      <point x="524" y="537" type="curve"/>
      <point x="524" y="576"/>
      <point x="537" y="656"/>
      <point x="550" y="696" type="curve"/>
      <point x="529" y="706"/>
      <point x="482" y="714"/>
    </contour>
    <contour>
      <point x="128" y="448" type="line"/>
      <point x="41" y="448" type="line"/>
      <point x="30" y="429"/>
      <point x="27" y="397"/>
      <point x="27" y="369" type="curve"/>
      <point x="51" y="369"/>
      <point x="86" y="364"/>
      <point x="128" y="348" type="curve"/>
    </contour>
    <contour>
      <point x="409" y="448" type="curve"/>
      <point x="290" y="448" type="line"/>
      <point x="290" y="349" type="line"/>
      <point x="330" y="362"/>
      <point x="360" y="365"/>
      <point x="399" y="365" type="curve"/>
      <point x="407" y="382"/>
      <point x="409" y="416"/>
    </contour>
  </outline>
</glyph>
<glyph name="verticallinemod" format="2">
  <advance width="243"/>
  <unicode hex="02C8"/>
  <outline>
    <contour>
      <point x="110" y="433" type="curve"/>
      <point x="143" y="420"/>
      <point x="179" y="416"/>
      <point x="213" y="418" type="curve"/>
      <point x="232" y="525"/>
      <point x="248" y="600"/>
      <point x="267" y="686" type="curve"/>
      <point x="228" y="701"/>
      <point x="192" y="702"/>
      <point x="152" y="697" type="curve"/>
      <point x="144" y="617"/>
      <point x="126" y="519"/>
    </contour>
  </outline>
</glyph>
<glyph name="gravecomb" format="2">
  <unicode hex="0300"/>
  <anchor x="260" y="458" name="_top"/>
  <anchor x="306" y="710" name="top"/>
  <outline>
    <contour>
      <point x="286" y="705" type="curve"/>
      <point x="231" y="715"/>
      <point x="172" y="709"/>
      <point x="124" y="696" type="curve"/>
      <point x="174" y="637"/>
      <point x="205" y="595"/>
      <point x="236" y="543" type="curve"/>
      <point x="263" y="534"/>
      <point x="302" y="534"/>
      <point x="330" y="542" type="curve"/>
      <point x="311" y="593"/>
      <point x="295" y="656"/>
    </contour>
  </outline>
</glyph>
<glyph name="tildecomb" format="2">
  <unicode hex="0303"/>
  <anchor x="312" y="458" name="_top"/>
  <anchor x="358" y="697" name="top"/>
  <outline>
    <contour>
      <point x="390" y="537" type="curve" smooth="yes"/>
      <point x="451" y="537"/>
      <point x="503" y="573"/>
      <point x="560" y="644" type="curve"/>
      <point x="548" y="668"/>
      <point x="527" y="684"/>
      <point x="502" y="694" type="curve"/>
      <point x="482" y="669"/>
      <point x="452" y="646"/>
      <point x="419" y="646" type="curve" smooth="yes"/>
      <point x="370" y="646"/>
      <point x="355" y="697"/>
      <point x="282" y="697" type="curve" smooth="yes"/>
      <point x="250" y="697"/>
      <point x="195" y="687"/>
      <point x="126" y="626" type="curve"/>
      <point x="122" y="589"/>
      <point x="131" y="566"/>
      <point x="150" y="539" type="curve"/>
      <point x="181" y="567"/>
      <point x="216" y="591"/>
      <point x="252" y="591" type="curve" smooth="yes"/>
      <point x="306" y="591"/>
      <point x="317" y="537"/>
    </contour>
  </outline>
</glyph>
<glyph name="brevecomb" format="2">
  <unicode hex="0306"/>
  <anchor x="278" y="458" name="_top"/>
  <anchor x="349" y="716" name="top"/>
  <outline>
    <contour>
      <point x="294" y="517" type="curve" smooth="yes"/>
      <point x="431" y="517"/>
      <point x="516" y="582"/>
      <point x="540" y="706" type="curve"/>
      <point x="517" y="715"/>
      <point x="485" y="719"/>
      <point x="451" y="713" type="curve"/>
      <point x="438" y="665"/>
      <point x="395" y="638"/>
      <point x="332" y="638" type="curve" smooth="yes"/>
      <point x="268" y="638"/>
      <point x="232" y="665"/>
      <point x="234" y="713" type="curve"/>
      <point x="198" y="718"/>
      <point x="157" y="713"/>
      <point x="125" y="701" type="curve"/>
      <point x="102" y="580"/>
      <point x="159" y="517"/>
    </contour>
  </outline>
</glyph>
<glyph name="dotaccentcomb" format="2">
  <unicode hex="0307"/>
  <anchor x="182" y="458" name="_top"/>
  <anchor x="227" y="690" name="top"/>
  <outline>
    <contour>
      <point x="190" y="510" type="curve" smooth="yes"/>
      <point x="265" y="510"/>
      <point x="306" y="538"/>
      <point x="315" y="592" type="curve" smooth="yes"/>
      <point x="325" y="651"/>
      <point x="286" y="690"/>
      <point x="229" y="690" type="curve" smooth="yes"/>
      <point x="157" y="690"/>
      <point x="112" y="660"/>
      <point x="104" y="606" type="curve" smooth="yes"/>
      <point x="96" y="548"/>
      <point x="130" y="510"/>
    </contour>
  </outline>
</glyph>
<glyph name="hookabovecomb" format="2">
  <unicode hex="0309"/>
  <anchor x="241" y="458" name="_top"/>
  <anchor x="291" y="717" name="top"/>
  <outline>
    <contour>
      <point x="215" y="516" type="curve"/>
      <point x="245" y="507"/>
      <point x="288" y="505"/>
      <point x="313" y="508" type="curve"/>
      <point x="309" y="521"/>
      <point x="309" y="522"/>
      <point x="310" y="528" type="curve" smooth="yes"/>
      <point x="319" y="578"/>
      <point x="401" y="568"/>
      <point x="419" y="630" type="curve" smooth="yes"/>
      <point x="434" y="683"/>
      <point x="386" y="717"/>
      <point x="286" y="717" type="curve" smooth="yes"/>
      <point x="231" y="717"/>
      <point x="176" y="707"/>
      <point x="140" y="693" type="curve"/>
      <point x="142" y="668"/>
      <point x="135" y="641"/>
      <point x="129" y="621" type="curve"/>
      <point x="150" y="603"/>
      <point x="174" y="594"/>
      <point x="210" y="587" type="curve"/>
      <point x="227" y="633"/>
      <point x="250" y="650"/>
      <point x="272" y="650" type="curve" smooth="yes"/>
      <point x="284" y="650"/>
      <point x="295" y="645"/>
      <point x="292" y="632" type="curve" smooth="yes"/>
      <point x="285" y="605"/>
      <point x="219" y="607"/>
      <point x="207" y="566" type="curve" smooth="yes"/>
      <point x="202" y="548"/>
      <point x="206" y="525"/>
    </contour>
  </outline>
</glyph>
<glyph name="horncomb" format="2">
  <unicode hex="031B"/>
  <anchor x="45" y="458" name="_topright"/>
  <anchor x="45" y="458" name="topright"/>
  <outline>
    <contour>
      <point x="10" y="384" type="line"/>
      <point x="92" y="384"/>
      <point x="155" y="430"/>
      <point x="167" y="493" type="curve" smooth="yes"/>
      <point x="173" y="525"/>
      <point x="164" y="555"/>
      <point x="153" y="569" type="curve"/>
      <point x="116" y="573"/>
      <point x="80" y="569"/>
      <point x="46" y="556" type="curve"/>
      <point x="48" y="542"/>
      <point x="48" y="527"/>
      <point x="45" y="513" type="curve" smooth="yes"/>
      <point x="37" y="477"/>
      <point x="13" y="458"/>
      <point x="-65" y="458" type="curve"/>
    </contour>
  </outline>
</glyph>
<glyph name="strokelongcomb" format="2">
  <unicode hex="0336"/>
  <anchor x="385" y="248" name="_center"/>
  <outline>
    <contour>
      <point x="47" y="207" type="curve"/>
      <point x="317" y="212"/>
      <point x="456" y="212"/>
      <point x="708" y="212" type="curve"/>
      <point x="717" y="235"/>
      <point x="723" y="256"/>
      <point x="723" y="288" type="curve"/>
      <point x="62" y="288" type="line"/>
      <point x="54" y="269"/>
      <point x="47" y="242"/>
    </contour>
  </outline>
</glyph>
<glyph name="Gamma" format="2">
  <advance width="606"/>
  <unicode hex="0393"/>
  <anchor x="382" y="676" name="top"/>
  <outline>
    <contour>
      <point x="6" y="-3" type="curve"/>
      <point x="62" y="0"/>
      <point x="131" y="0"/>
      <point x="197" y="0" type="curve" smooth="yes"/>
      <point x="266" y="0"/>
      <point x="333" y="0"/>
      <point x="388" y="-3" type="curve"/>
      <point x="391" y="23"/>
      <point x="390" y="53"/>
      <point x="386" y="75" type="curve"/>
      <point x="295" y="89"/>
      <point x="289" y="101"/>
      <point x="304" y="187" type="curve" smooth="yes"/>
      <point x="385" y="676" type="line"/>
      <point x="316" y="676"/>
      <point x="199" y="676"/>
      <point x="108" y="679" type="curve"/>
      <point x="105" y="651"/>
      <point x="105" y="624"/>
      <point x="109" y="601" type="curve"/>
      <point x="161" y="593"/>
      <point x="173" y="581"/>
      <point x="159" y="501" type="curve" smooth="yes"/>
      <point x="106" y="197" type="line" smooth="yes"/>
      <point x="89" y="95"/>
      <point x="77" y="79"/>
      <point x="25" y="75" type="curve"/>
      <point x="15" y="52"/>
      <point x="9" y="26"/>
    </contour>
    <contour>
      <point x="550" y="485" type="curve"/>
      <point x="584" y="485"/>
      <point x="617" y="489"/>
      <point x="648" y="497" type="curve"/>
      <point x="643" y="557"/>
      <point x="648" y="624"/>
      <point x="657" y="679" type="curve"/>
      <point x="600" y="677"/>
      <point x="525" y="676"/>
      <point x="375" y="676" type="curve"/>
      <point x="331" y="601" type="line"/>
      <point x="429" y="601" type="line" smooth="yes"/>
      <point x="528" y="601"/>
      <point x="545" y="555"/>
    </contour>
  </outline>
</glyph>
<glyph name="Delta" format="2">
  <advance width="668"/>
  <unicode hex="0394"/>
  <guideline x="241" y="411" angle="22.572"/>
  <guideline x="343" y="65" angle="22.572"/>
  <guideline x="201" y="45" angle="337"/>
  <guideline x="501" y="299" angle="337"/>
  <anchor x="411" y="676" name="top"/>
  <outline>
    <contour>
      <point x="380" y="677" type="curve"/>
      <point x="-26" y="72" type="line"/>
      <point x="-29" y="45"/>
      <point x="-21" y="21"/>
      <point x="-12" y="0" type="curve"/>
      <point x="595" y="0" type="line"/>
      <point x="613" y="22"/>
      <point x="624" y="46"/>
      <point x="631" y="72" type="curve"/>
      <point x="455" y="685" type="line"/>
      <point x="430" y="685"/>
      <point x="405" y="683"/>
    </contour>
    <contour>
      <point x="314" y="451" type="curve"/>
      <point x="309" y="465" type="line"/>
      <point x="317" y="418"/>
      <point x="330" y="371"/>
      <point x="343" y="324" type="curve" smooth="yes"/>
      <point x="428" y="11" type="line"/>
      <point x="504" y="75" type="line"/>
      <point x="19" y="75" type="line"/>
      <point x="22" y="11" type="line"/>
      <point x="226" y="311" type="line" smooth="yes"/>
      <point x="257" y="358"/>
      <point x="288" y="404"/>
    </contour>
  </outline>
</glyph>
<glyph name="Lambda" format="2">
  <advance width="710"/>
  <unicode hex="039B"/>
  <anchor x="252" y="0" name="bottom"/>
  <anchor x="596" y="0" name="ogonek"/>
  <anchor x="418" y="676" name="top"/>
  <outline>
    <contour>
      <point x="-36" y="-3" type="curve"/>
      <point x="-15" y="-1"/>
      <point x="23" y="0"/>
      <point x="56" y="0" type="curve" smooth="yes"/>
      <point x="89" y="0"/>
      <point x="157" y="-1"/>
      <point x="179" y="-3" type="curve"/>
      <point x="185" y="25"/>
      <point x="184" y="51"/>
      <point x="181" y="75" type="curve"/>
      <point x="139" y="82"/>
      <point x="131" y="115"/>
      <point x="153" y="152" type="curve" smooth="yes"/>
      <point x="193" y="218"/>
      <point x="232" y="286"/>
      <point x="268" y="354" type="curve" smooth="yes"/>
      <point x="290" y="396"/>
      <point x="325" y="465"/>
      <point x="352" y="528" type="curve"/>
      <point x="315" y="528" type="line"/>
      <point x="314" y="467"/>
      <point x="323" y="396"/>
      <point x="336" y="352" type="curve" smooth="yes"/>
      <point x="356" y="285"/>
      <point x="373" y="218"/>
      <point x="389" y="151" type="curve" smooth="yes"/>
      <point x="400" y="106"/>
      <point x="393" y="85"/>
      <point x="337" y="75" type="curve"/>
      <point x="329" y="55"/>
      <point x="324" y="29"/>
      <point x="323" y="-3" type="curve"/>
      <point x="362" y="0"/>
      <point x="468" y="0"/>
      <point x="500" y="0" type="curve" smooth="yes"/>
      <point x="532" y="0"/>
      <point x="619" y="0"/>
      <point x="659" y="-3" type="curve"/>
      <point x="663" y="27"/>
      <point x="662" y="57"/>
      <point x="658" y="75" type="curve"/>
      <point x="630" y="78"/>
      <point x="618" y="92"/>
      <point x="594" y="195" type="curve" smooth="yes"/>
      <point x="569" y="302"/>
      <point x="519" y="488"/>
      <point x="457" y="682" type="curve"/>
      <point x="426" y="682"/>
      <point x="407" y="682"/>
      <point x="380" y="676" type="curve"/>
      <point x="203" y="373"/>
      <point x="130" y="252"/>
      <point x="81" y="176" type="curve" smooth="yes"/>
      <point x="32" y="100"/>
      <point x="12" y="81"/>
      <point x="-21" y="75" type="curve"/>
      <point x="-31" y="50"/>
      <point x="-35" y="27"/>
    </contour>
  </outline>
</glyph>
<glyph name="beta" format="2">
  <advance width="627"/>
  <unicode hex="03B2"/>
  <anchor x="411" y="708" name="top"/>
  <outline>
    <contour>
      <point x="0" y="-249" type="curve"/>
      <point x="62" y="-219"/>
      <point x="120" y="-200"/>
      <point x="185" y="-198" type="curve"/>
      <point x="181" y="-163"/>
      <point x="187" y="-104"/>
      <point x="198" y="-45" type="curve" smooth="yes"/>
      <point x="307" y="512" type="line" smooth="yes"/>
      <point x="328" y="619"/>
      <point x="354" y="644"/>
      <point x="395" y="644" type="curve" smooth="yes"/>
      <point x="447" y="644"/>
      <point x="458" y="616"/>
      <point x="446" y="554" type="curve" smooth="yes"/>
      <point x="429" y="465"/>
      <point x="391" y="407"/>
      <point x="331" y="410" type="curve"/>
      <point x="318" y="386"/>
      <point x="310" y="355"/>
      <point x="317" y="333" type="curve"/>
      <point x="390" y="326"/>
      <point x="418" y="286"/>
      <point x="402" y="204" type="curve" smooth="yes"/>
      <point x="385" y="117"/>
      <point x="344" y="67"/>
      <point x="282" y="67" type="curve" smooth="yes"/>
      <point x="251" y="67"/>
      <point x="235" y="75"/>
      <point x="219" y="113" type="curve"/>
      <point x="182" y="42" type="line"/>
      <point x="215" y="6"/>
      <point x="252" y="-9"/>
      <point x="307" y="-9" type="curve" smooth="yes"/>
      <point x="454" y="-9"/>
      <point x="568" y="60"/>
      <point x="593" y="190" type="curve" smooth="yes"/>
      <point x="619" y="324"/>
      <point x="545" y="398"/>
      <point x="401" y="398" type="curve"/>
      <point x="406" y="391" type="line"/>
      <point x="534" y="391"/>
      <point x="610" y="443"/>
      <point x="628" y="538" type="curve" smooth="yes"/>
      <point x="649" y="647"/>
      <point x="596" y="717"/>
      <point x="434" y="717" type="curve" smooth="yes"/>
      <point x="258" y="717"/>
      <point x="143" y="646"/>
      <point x="111" y="484" type="curve" smooth="yes"/>
      <point x="7" y="-46" type="line" smooth="yes"/>
      <point x="-13" y="-151"/>
      <point x="-16" y="-167"/>
      <point x="-31" y="-188" type="curve"/>
      <point x="-28" y="-216"/>
      <point x="-22" y="-236"/>
    </contour>
  </outline>
</glyph>
<glyph name="eta" format="2">
  <advance width="637"/>
  <unicode hex="03B7"/>
  <anchor x="350" y="458" name="top"/>
  <outline>
    <contour>
      <point x="324" y="-249" type="curve"/>
      <point x="388" y="-217"/>
      <point x="446" y="-200"/>
      <point x="514" y="-191" type="curve"/>
      <point x="512" y="-157"/>
      <point x="517" y="-98"/>
      <point x="528" y="-39" type="curve" smooth="yes"/>
      <point x="587" y="271" type="line" smooth="yes"/>
      <point x="613" y="407"/>
      <point x="569" y="467"/>
      <point x="486" y="467" type="curve" smooth="yes"/>
      <point x="402" y="467"/>
      <point x="317" y="405"/>
      <point x="271" y="311" type="curve" smooth="yes"/>
      <point x="226" y="218" type="line"/>
      <point x="225" y="50" type="line"/>
      <point x="260" y="237"/>
      <point x="323" y="320"/>
      <point x="365" y="320" type="curve" smooth="yes"/>
      <point x="389" y="320"/>
      <point x="403" y="292"/>
      <point x="393" y="242" type="curve" smooth="yes"/>
      <point x="335" y="-54" type="line" smooth="yes"/>
      <point x="314" y="-160"/>
      <point x="310" y="-177"/>
      <point x="295" y="-203" type="curve"/>
      <point x="298" y="-224"/>
      <point x="304" y="-240"/>
    </contour>
    <contour>
      <point x="33" y="0" type="line"/>
      <point x="216" y="0" type="line"/>
      <point x="225" y="50" type="line"/>
      <point x="254" y="278" type="line"/>
      <point x="267" y="306"/>
      <point x="288" y="359"/>
      <point x="292" y="402" type="curve" smooth="yes"/>
      <point x="295" y="435"/>
      <point x="287" y="452"/>
      <point x="261" y="467" type="curve"/>
      <point x="198" y="441"/>
      <point x="121" y="428"/>
      <point x="43" y="426" type="curve"/>
      <point x="34" y="404"/>
      <point x="30" y="375"/>
      <point x="30" y="351" type="curve"/>
      <point x="94" y="351"/>
      <point x="95" y="334"/>
      <point x="82" y="262" type="curve" smooth="yes"/>
    </contour>
  </outline>
</glyph>
<glyph name="theta" format="2">
  <advance width="600"/>
  <unicode hex="03B8"/>
  <anchor x="393" y="708" name="top"/>
  <outline>
    <contour>
      <point x="259" y="-9" type="curve" smooth="yes"/>
      <point x="434" y="-9"/>
      <point x="547" y="110"/>
      <point x="593" y="346" type="curve" smooth="yes"/>
      <point x="640" y="588"/>
      <point x="569" y="717"/>
      <point x="389" y="717" type="curve" smooth="yes"/>
      <point x="215" y="717"/>
      <point x="102" y="601"/>
      <point x="58" y="373" type="curve" smooth="yes"/>
      <point x="9" y="123"/>
      <point x="80" y="-9"/>
    </contour>
    <contour>
      <point x="273" y="65" type="curve" smooth="yes"/>
      <point x="222" y="65"/>
      <point x="218" y="169"/>
      <point x="258" y="373" type="curve" smooth="yes"/>
      <point x="292" y="548"/>
      <point x="334" y="642"/>
      <point x="376" y="642" type="curve" smooth="yes"/>
      <point x="426" y="642"/>
      <point x="431" y="542"/>
      <point x="393" y="345" type="curve" smooth="yes"/>
      <point x="357" y="163"/>
      <point x="314" y="65"/>
    </contour>
    <contour>
      <point x="209" y="312" type="line"/>
      <point x="307" y="318"/>
      <point x="356" y="318"/>
      <point x="435" y="318" type="curve"/>
      <point x="449" y="404" type="line"/>
      <point x="224" y="404" type="line"/>
    </contour>
  </outline>
</glyph>
<glyph name="rho" format="2">
  <advance width="602"/>
  <unicode hex="03C1"/>
  <anchor x="347" y="458" name="top"/>
  <outline>
    <contour>
      <point x="-26" y="-251" type="curve"/>
      <point x="36" y="-221"/>
      <point x="94" y="-202"/>
      <point x="159" y="-200" type="curve"/>
      <point x="153" y="-158"/>
      <point x="164" y="-93"/>
      <point x="173" y="-47" type="curve" smooth="yes"/>
      <point x="222" y="211" type="line" smooth="yes"/>
      <point x="246" y="339"/>
      <point x="299" y="393"/>
      <point x="347" y="393" type="curve" smooth="yes"/>
      <point x="402" y="393"/>
      <point x="398" y="324"/>
      <point x="384" y="253" type="curve" smooth="yes"/>
      <point x="352" y="92"/>
      <point x="294" y="62"/>
      <point x="247" y="62" type="curve" smooth="yes"/>
      <point x="221" y="62"/>
      <point x="206" y="71"/>
      <point x="194" y="102" type="curve"/>
      <point x="178" y="2" type="line"/>
      <point x="201" y="-5"/>
      <point x="217" y="-9"/>
      <point x="250" y="-9" type="curve" smooth="yes"/>
      <point x="416" y="-9"/>
      <point x="541" y="95"/>
      <point x="574" y="247" type="curve" smooth="yes"/>
      <point x="607" y="398"/>
      <point x="524" y="467"/>
      <point x="363" y="467" type="curve" smooth="yes"/>
      <point x="180" y="467"/>
      <point x="63" y="377"/>
      <point x="30" y="204" type="curve" smooth="yes"/>
      <point x="-18" y="-48" type="line" smooth="yes"/>
      <point x="-38" y="-153"/>
      <point x="-42" y="-169"/>
      <point x="-57" y="-190" type="curve"/>
      <point x="-54" y="-218"/>
      <point x="-48" y="-238"/>
    </contour>
  </outline>
</glyph>
<glyph name="sigma" format="2">
  <advance width="700"/>
  <unicode hex="03C3"/>
  <anchor x="339" y="458" name="top"/>
  <outline>
    <contour>
      <point x="249" y="-9" type="curve" smooth="yes"/>
      <point x="420" y="-9"/>
      <point x="529" y="80"/>
      <point x="553" y="191" type="curve" smooth="yes"/>
      <point x="572" y="279"/>
      <point x="529" y="329"/>
      <point x="491" y="360" type="curve"/>
      <point x="506" y="314" type="line"/>
      <point x="563" y="314"/>
      <point x="592" y="303"/>
      <point x="630" y="303" type="curve" smooth="yes"/>
      <point x="647" y="303"/>
      <point x="664" y="305"/>
      <point x="674" y="319" type="curve"/>
      <point x="687" y="388"/>
      <point x="703" y="448"/>
      <point x="724" y="504" type="curve"/>
      <point x="703" y="518"/>
      <point x="670" y="526"/>
      <point x="644" y="531" type="curve"/>
      <point x="634" y="492"/>
      <point x="608" y="458"/>
      <point x="577" y="458" type="curve" smooth="yes"/>
      <point x="472" y="458"/>
      <point x="404" y="466"/>
      <point x="353" y="466" type="curve" smooth="yes"/>
      <point x="179" y="466"/>
      <point x="65" y="393"/>
      <point x="32" y="238" type="curve" smooth="yes"/>
      <point x="-1" y="82"/>
      <point x="77" y="-9"/>
    </contour>
    <contour>
      <point x="266" y="68" type="curve" smooth="yes"/>
      <point x="234" y="68"/>
      <point x="196" y="100"/>
      <point x="215" y="207" type="curve" smooth="yes"/>
      <point x="230" y="291"/>
      <point x="268" y="360"/>
      <point x="316" y="360" type="curve" smooth="yes"/>
      <point x="352" y="360"/>
      <point x="385" y="318"/>
      <point x="367" y="216" type="curve" smooth="yes"/>
      <point x="351" y="127"/>
      <point x="313" y="68"/>
    </contour>
  </outline>
</glyph>
<glyph name="phi" format="2">
  <advance width="848"/>
  <unicode hex="03C6"/>
  <anchor x="472" y="458" name="top"/>
  <outline>
    <contour>
      <point x="272" y="-251" type="curve"/>
      <point x="333" y="-221"/>
      <point x="391" y="-202"/>
      <point x="456" y="-200" type="curve"/>
      <point x="452" y="-165"/>
      <point x="458" y="-106"/>
      <point x="469" y="-47" type="curve" smooth="yes"/>
      <point x="530" y="268" type="line" smooth="yes"/>
      <point x="545" y="343"/>
      <point x="575" y="392"/>
      <point x="608" y="392" type="curve" smooth="yes"/>
      <point x="640" y="392"/>
      <point x="650" y="344"/>
      <point x="633" y="257" type="curve" smooth="yes"/>
      <point x="610" y="137"/>
      <point x="566" y="63"/>
      <point x="489" y="63" type="curve"/>
      <point x="474" y="-9" type="line"/>
      <point x="665" y="-9"/>
      <point x="789" y="82"/>
      <point x="818" y="233" type="curve" smooth="yes"/>
      <point x="847" y="384"/>
      <point x="771" y="464"/>
      <point x="617" y="464" type="curve" smooth="yes"/>
      <point x="464" y="464"/>
      <point x="364" y="395"/>
      <point x="339" y="266" type="curve" smooth="yes"/>
      <point x="279" y="-48" type="line" smooth="yes"/>
      <point x="259" y="-153"/>
      <point x="255" y="-169"/>
      <point x="240" y="-190" type="curve"/>
      <point x="243" y="-218"/>
      <point x="249" y="-238"/>
    </contour>
    <contour>
      <point x="292" y="-9" type="curve"/>
      <point x="301" y="63" type="line"/>
      <point x="219" y="63"/>
      <point x="203" y="142"/>
      <point x="216" y="213" type="curve" smooth="yes"/>
      <point x="229" y="283"/>
      <point x="268" y="346"/>
      <point x="331" y="381" type="curve"/>
      <point x="332" y="418"/>
      <point x="320" y="451"/>
      <point x="295" y="466" type="curve"/>
      <point x="130" y="414"/>
      <point x="52" y="342"/>
      <point x="31" y="232" type="curve" smooth="yes"/>
      <point x="2" y="82"/>
      <point x="85" y="-9"/>
    </contour>
  </outline>
</glyph>
<glyph name="psi" format="2">
  <advance width="836"/>
  <unicode hex="03C8"/>
  <anchor x="519" y="708" name="top"/>
  <outline>
    <contour>
      <point x="271" y="-249" type="curve"/>
      <point x="332" y="-219"/>
      <point x="391" y="-200"/>
      <point x="456" y="-198" type="curve"/>
      <point x="451" y="-160"/>
      <point x="456" y="-106"/>
      <point x="468" y="-45" type="curve" smooth="yes"/>
      <point x="603" y="646" type="line" smooth="yes"/>
      <point x="610" y="681"/>
      <point x="599" y="704"/>
      <point x="577" y="717" type="curve"/>
      <point x="545" y="704"/>
      <point x="456" y="684"/>
      <point x="357" y="691" type="curve"/>
      <point x="345" y="670"/>
      <point x="338" y="641"/>
      <point x="336" y="618" type="curve"/>
      <point x="389" y="605"/>
      <point x="403" y="594"/>
      <point x="396" y="556" type="curve" smooth="yes"/>
      <point x="278" y="-46" type="line" smooth="yes"/>
      <point x="257" y="-151"/>
      <point x="254" y="-167"/>
      <point x="239" y="-188" type="curve"/>
      <point x="242" y="-216"/>
      <point x="249" y="-236"/>
    </contour>
    <contour>
      <point x="356" y="-7" type="curve" smooth="yes"/>
      <point x="643" y="-7"/>
      <point x="773" y="83"/>
      <point x="815" y="279" type="curve" smooth="yes"/>
      <point x="827" y="335"/>
      <point x="827" y="380"/>
      <point x="821" y="406" type="curve" smooth="yes"/>
      <point x="814" y="434"/>
      <point x="800" y="462"/>
      <point x="783" y="467" type="curve"/>
      <point x="760" y="453"/>
      <point x="697" y="432"/>
      <point x="625" y="439" type="curve"/>
      <point x="613" y="418"/>
      <point x="607" y="389"/>
      <point x="605" y="365" type="curve"/>
      <point x="670" y="357"/>
      <point x="675" y="306"/>
      <point x="666" y="255" type="curve" smooth="yes"/>
      <point x="644" y="133"/>
      <point x="549" y="71"/>
      <point x="378" y="71" type="curve" smooth="yes"/>
      <point x="240" y="71"/>
      <point x="202" y="111"/>
      <point x="231" y="260" type="curve" smooth="yes"/>
      <point x="257" y="396" type="line" smooth="yes"/>
      <point x="264" y="431"/>
      <point x="254" y="454"/>
      <point x="232" y="467" type="curve"/>
      <point x="200" y="454"/>
      <point x="122" y="434"/>
      <point x="23" y="441" type="curve"/>
      <point x="11" y="420"/>
      <point x="5" y="391"/>
      <point x="3" y="368" type="curve"/>
      <point x="57" y="354"/>
      <point x="56" y="344"/>
      <point x="44" y="277" type="curve" smooth="yes"/>
      <point x="39" y="248" type="line" smooth="yes"/>
      <point x="7" y="69"/>
      <point x="92" y="-7"/>
    </contour>
  </outline>
</glyph>
<glyph name="Lje-cy" format="2">
  <advance width="1087"/>
  <unicode hex="0409"/>
  <outline>
    <contour>
      <point x="74" y="-9" type="curve" smooth="yes"/>
      <point x="110" y="-9"/>
      <point x="164" y="3"/>
      <point x="216" y="60" type="curve" smooth="yes"/>
      <point x="281" y="132"/>
      <point x="329" y="261"/>
      <point x="392" y="491" type="curve" smooth="yes"/>
      <point x="414" y="573"/>
      <point x="418" y="585"/>
      <point x="439" y="595" type="curve" smooth="yes"/>
      <point x="448" y="599"/>
      <point x="463" y="604"/>
      <point x="484" y="604" type="curve" smooth="yes"/>
      <point x="500" y="604"/>
      <point x="514" y="601"/>
      <point x="525" y="594" type="curve" smooth="yes"/>
      <point x="545" y="581"/>
      <point x="543" y="558"/>
      <point x="530" y="491" type="curve" smooth="yes"/>
      <point x="471" y="187" type="line" smooth="yes"/>
      <point x="453" y="95"/>
      <point x="438" y="79"/>
      <point x="383" y="75" type="curve"/>
      <point x="374" y="56"/>
      <point x="368" y="26"/>
      <point x="366" y="-3" type="curve"/>
      <point x="465" y="-1"/>
      <point x="538" y="0"/>
      <point x="698" y="0" type="curve" smooth="yes"/>
      <point x="948" y="0"/>
      <point x="1031" y="81"/>
      <point x="1057" y="182" type="curve" smooth="yes"/>
      <point x="1095" y="328"/>
      <point x="987" y="396"/>
      <point x="779" y="396" type="curve" smooth="yes"/>
      <point x="743" y="396"/>
      <point x="723" y="394"/>
      <point x="700" y="391" type="curve"/>
      <point x="684" y="308" type="line"/>
      <point x="705" y="312"/>
      <point x="726" y="313"/>
      <point x="738" y="313" type="curve" smooth="yes"/>
      <point x="811" y="313"/>
      <point x="850" y="276"/>
      <point x="834" y="193" type="curve" smooth="yes"/>
      <point x="818" y="109"/>
      <point x="766" y="74"/>
      <point x="715" y="74" type="curve" smooth="yes"/>
      <point x="682" y="74"/>
      <point x="652" y="89"/>
      <point x="669" y="178" type="curve" smooth="yes"/>
      <point x="730" y="491" type="line" smooth="yes"/>
      <point x="747" y="581"/>
      <point x="760" y="595"/>
      <point x="816" y="601" type="curve"/>
      <point x="830" y="627"/>
      <point x="833" y="652"/>
      <point x="834" y="679" type="curve"/>
      <point x="798" y="677"/>
      <point x="719" y="676"/>
      <point x="531" y="676" type="curve" smooth="yes"/>
      <point x="397" y="676"/>
      <point x="309" y="676"/>
      <point x="256" y="679" type="curve"/>
      <point x="251" y="653"/>
      <point x="249" y="621"/>
      <point x="250" y="601" type="curve"/>
      <point x="334" y="592"/>
      <point x="338" y="583"/>
      <point x="317" y="491" type="curve" smooth="yes"/>
      <point x="279" y="324"/>
      <point x="241" y="235"/>
      <point x="222" y="199" type="curve" smooth="yes"/>
      <point x="195" y="148"/>
      <point x="170" y="134"/>
      <point x="113" y="134" type="curve" smooth="yes"/>
      <point x="64" y="134"/>
      <point x="22" y="144"/>
      <point x="1" y="153" type="curve"/>
      <point x="-18" y="119"/>
      <point x="-32" y="71"/>
      <point x="-33" y="45" type="curve"/>
      <point x="-18" y="16"/>
      <point x="22" y="-9"/>
    </contour>
  </outline>
</glyph>
<glyph name="Be-cy" format="2">
  <advance width="695"/>
  <unicode hex="0411"/>
  <outline>
    <contour>
      <point x="-15" y="-3" type="curve"/>
      <point x="86" y="-1"/>
      <point x="158" y="0"/>
      <point x="314" y="0" type="curve" smooth="yes"/>
      <point x="561" y="0"/>
      <point x="641" y="83"/>
      <point x="666" y="184" type="curve" smooth="yes"/>
      <point x="701" y="324"/>
      <point x="607" y="396"/>
      <point x="394" y="396" type="curve" smooth="yes"/>
      <point x="358" y="396"/>
      <point x="340" y="394"/>
      <point x="317" y="391" type="curve"/>
      <point x="301" y="308" type="line"/>
      <point x="322" y="312"/>
      <point x="342" y="313"/>
      <point x="354" y="313" type="curve" smooth="yes"/>
      <point x="426" y="313"/>
      <point x="464" y="276"/>
      <point x="448" y="193" type="curve" smooth="yes"/>
      <point x="433" y="114"/>
      <point x="385" y="74"/>
      <point x="332" y="74" type="curve" smooth="yes"/>
      <point x="299" y="74"/>
      <point x="269" y="89"/>
      <point x="286" y="178" type="curve" smooth="yes"/>
      <point x="383" y="676" type="line"/>
      <point x="314" y="676"/>
      <point x="171" y="677"/>
      <point x="108" y="679" type="curve"/>
      <point x="103" y="647"/>
      <point x="102" y="621"/>
      <point x="103" y="601" type="curve"/>
      <point x="158" y="593"/>
      <point x="164" y="580"/>
      <point x="147" y="491" type="curve" smooth="yes"/>
      <point x="88" y="187" type="line" smooth="yes"/>
      <point x="70" y="95"/>
      <point x="55" y="79"/>
      <point x="0" y="75" type="curve"/>
      <point x="-9" y="56"/>
      <point x="-14" y="26"/>
    </contour>
    <contour>
      <point x="542" y="483" type="curve"/>
      <point x="588" y="483"/>
      <point x="619" y="491"/>
      <point x="647" y="501" type="curve"/>
      <point x="643" y="548"/>
      <point x="652" y="628"/>
      <point x="660" y="679" type="curve"/>
      <point x="603" y="677"/>
      <point x="533" y="676"/>
      <point x="373" y="676" type="curve"/>
      <point x="324" y="601" type="line"/>
      <point x="427" y="601" type="line" smooth="yes"/>
      <point x="526" y="601"/>
      <point x="543" y="555"/>
    </contour>
  </outline>
</glyph>
<glyph name="Ka-cy" format="2">
  <advance width="765"/>
  <unicode hex="041A"/>
  <anchor x="731" y="75" name="bottomright"/>
  <anchor x="254" y="504" name="center"/>
  <anchor x="474" y="676" name="top"/>
  <outline>
    <contour>
      <point x="492" y="-9" type="curve"/>
      <point x="558" y="0"/>
      <point x="661" y="0"/>
      <point x="711" y="0" type="curve"/>
      <point x="724" y="24"/>
      <point x="731" y="50"/>
      <point x="731" y="75" type="curve"/>
      <point x="640" y="85"/>
      <point x="628" y="115"/>
      <point x="568" y="280" type="curve" smooth="yes"/>
      <point x="541" y="356"/>
      <point x="503" y="385"/>
      <point x="436" y="389" type="curve"/>
      <point x="456" y="384" type="line"/>
      <point x="493" y="390"/>
      <point x="503" y="399"/>
      <point x="547" y="464" type="curve" smooth="yes"/>
      <point x="590" y="527"/>
      <point x="612" y="553"/>
      <point x="638" y="553" type="curve" smooth="yes"/>
      <point x="654" y="553"/>
      <point x="659" y="550"/>
      <point x="657" y="489" type="curve"/>
      <point x="690" y="483"/>
      <point x="729" y="487"/>
      <point x="757" y="497" type="curve"/>
      <point x="757" y="542"/>
      <point x="770" y="628"/>
      <point x="786" y="676" type="curve"/>
      <point x="773" y="681"/>
      <point x="745" y="685"/>
      <point x="710" y="685" type="curve" smooth="yes"/>
      <point x="617" y="685"/>
      <point x="587" y="656"/>
      <point x="487" y="518" type="curve" smooth="yes"/>
      <point x="408" y="409"/>
      <point x="389" y="391"/>
      <point x="331" y="391" type="curve"/>
      <point x="322" y="316" type="line"/>
      <point x="359" y="316"/>
      <point x="375" y="260"/>
      <point x="391" y="210" type="curve" smooth="yes"/>
      <point x="430" y="89"/>
      <point x="433" y="41"/>
    </contour>
    <contour>
      <point x="10" y="-3" type="curve"/>
      <point x="56" y="-1"/>
      <point x="112" y="0"/>
      <point x="185" y="0" type="curve" smooth="yes"/>
      <point x="250" y="0"/>
      <point x="291" y="0"/>
      <point x="348" y="-3" type="curve"/>
      <point x="351" y="25"/>
      <point x="350" y="49"/>
      <point x="346" y="75" type="curve"/>
      <point x="297" y="84"/>
      <point x="288" y="95"/>
      <point x="303" y="180" type="curve" smooth="yes"/>
      <point x="355" y="481" type="line" smooth="yes"/>
      <point x="373" y="582"/>
      <point x="379" y="595"/>
      <point x="434" y="601" type="curve"/>
      <point x="444" y="628"/>
      <point x="448" y="654"/>
      <point x="448" y="679" type="curve"/>
      <point x="389" y="676"/>
      <point x="328" y="676"/>
      <point x="276" y="676" type="curve" smooth="yes"/>
      <point x="212" y="676"/>
      <point x="157" y="676"/>
      <point x="108" y="679" type="curve"/>
      <point x="104" y="652"/>
      <point x="105" y="623"/>
      <point x="109" y="601" type="curve"/>
      <point x="166" y="593"/>
      <point x="171" y="579"/>
      <point x="158" y="501" type="curve" smooth="yes"/>
      <point x="103" y="177" type="line" smooth="yes"/>
      <point x="88" y="93"/>
      <point x="78" y="82"/>
      <point x="29" y="75" type="curve"/>
      <point x="18" y="48"/>
      <point x="13" y="26"/>
    </contour>
  </outline>
</glyph>
<glyph name="Pe-cy" format="2">
  <advance width="787"/>
  <unicode hex="041F"/>
  <anchor x="723" y="75" name="bottomright"/>
  <anchor x="481" y="676" name="top"/>
  <anchor x="102" y="601" name="topleft"/>
  <outline>
    <contour>
      <point x="-13" y="-3" type="curve"/>
      <point x="34" y="-1"/>
      <point x="107" y="0"/>
      <point x="176" y="0" type="curve" smooth="yes"/>
      <point x="245" y="0"/>
      <point x="305" y="-1"/>
      <point x="335" y="-3" type="curve"/>
      <point x="341" y="23"/>
      <point x="343" y="57"/>
      <point x="337" y="75" type="curve"/>
      <point x="284" y="79"/>
      <point x="275" y="95"/>
      <point x="293" y="187" type="curve" smooth="yes"/>
      <point x="352" y="491" type="line" smooth="yes"/>
      <point x="364" y="553"/>
      <point x="373" y="579"/>
      <point x="399" y="592" type="curve" smooth="yes"/>
      <point x="409" y="597"/>
      <point x="422" y="601"/>
      <point x="466" y="601" type="curve" smooth="yes"/>
      <point x="510" y="601"/>
      <point x="523" y="597"/>
      <point x="531" y="592" type="curve" smooth="yes"/>
      <point x="550" y="580"/>
      <point x="550" y="553"/>
      <point x="538" y="491" type="curve" smooth="yes"/>
      <point x="479" y="187" type="line" smooth="yes"/>
      <point x="461" y="95"/>
      <point x="448" y="79"/>
      <point x="393" y="75" type="curve"/>
      <point x="382" y="56"/>
      <point x="373" y="21"/>
      <point x="373" y="-3" type="curve"/>
      <point x="420" y="-1"/>
      <point x="493" y="0"/>
      <point x="562" y="0" type="curve" smooth="yes"/>
      <point x="631" y="0"/>
      <point x="691" y="-1"/>
      <point x="721" y="-3" type="curve"/>
      <point x="727" y="23"/>
      <point x="729" y="57"/>
      <point x="723" y="75" type="curve"/>
      <point x="670" y="79"/>
      <point x="661" y="95"/>
      <point x="679" y="187" type="curve" smooth="yes"/>
      <point x="738" y="491" type="line" smooth="yes"/>
      <point x="755" y="581"/>
      <point x="768" y="595"/>
      <point x="818" y="601" type="curve"/>
      <point x="832" y="627"/>
      <point x="836" y="652"/>
      <point x="836" y="679" type="curve"/>
      <point x="797" y="677"/>
      <point x="718" y="676"/>
      <point x="573" y="676" type="curve" smooth="yes"/>
      <point x="387" y="676" type="line" smooth="yes"/>
      <point x="239" y="676"/>
      <point x="141" y="677"/>
      <point x="108" y="679" type="curve"/>
      <point x="103" y="653"/>
      <point x="101" y="621"/>
      <point x="102" y="601" type="curve"/>
      <point x="163" y="593"/>
      <point x="169" y="580"/>
      <point x="152" y="491" type="curve" smooth="yes"/>
      <point x="93" y="187" type="line" smooth="yes"/>
      <point x="75" y="95"/>
      <point x="62" y="79"/>
      <point x="7" y="75" type="curve"/>
      <point x="-4" y="56"/>
      <point x="-13" y="21"/>
    </contour>
  </outline>
</glyph>
<glyph name="U-cy" format="2">
  <advance width="698"/>
  <unicode hex="0423"/>
  <anchor x="486" y="676" name="top"/>
  <outline>
    <contour>
      <point x="153" y="-9" type="curve" smooth="yes"/>
      <point x="232" y="-9"/>
      <point x="307" y="32"/>
      <point x="379" y="130" type="curve" smooth="yes"/>
      <point x="645" y="492" type="line" smooth="yes"/>
      <point x="704" y="572"/>
      <point x="717" y="592"/>
      <point x="754" y="601" type="curve"/>
      <point x="763" y="622"/>
      <point x="773" y="648"/>
      <point x="779" y="679" type="curve"/>
      <point x="759" y="677"/>
      <point x="713" y="676"/>
      <point x="680" y="676" type="curve" smooth="yes"/>
      <point x="647" y="676"/>
      <point x="589" y="677"/>
      <point x="566" y="679" type="curve"/>
      <point x="559" y="641"/>
      <point x="558" y="618"/>
      <point x="559" y="601" type="curve"/>
      <point x="607" y="594"/>
      <point x="608" y="574"/>
      <point x="578" y="528" type="curve" smooth="yes"/>
      <point x="553" y="490"/>
      <point x="483" y="391"/>
      <point x="424" y="320" type="curve"/>
      <point x="451" y="307" type="line"/>
      <point x="424" y="386"/>
      <point x="406" y="429"/>
      <point x="364" y="516" type="curve" smooth="yes"/>
      <point x="341" y="564"/>
      <point x="344" y="592"/>
      <point x="402" y="601" type="curve"/>
      <point x="410" y="617"/>
      <point x="418" y="641"/>
      <point x="425" y="679" type="curve"/>
      <point x="361" y="676"/>
      <point x="287" y="676"/>
      <point x="255" y="676" type="curve" smooth="yes"/>
      <point x="223" y="676"/>
      <point x="126" y="677"/>
      <point x="92" y="679" type="curve"/>
      <point x="86" y="645"/>
      <point x="84" y="618"/>
      <point x="85" y="601" type="curve"/>
      <point x="130" y="594"/>
      <point x="153" y="563"/>
      <point x="179" y="495" type="curve" smooth="yes"/>
      <point x="208" y="418"/>
      <point x="265" y="277"/>
      <point x="308" y="158" type="curve"/>
      <point x="302" y="188" type="line"/>
      <point x="276" y="152"/>
      <point x="248" y="134"/>
      <point x="183" y="134" type="curve" smooth="yes"/>
      <point x="126" y="134"/>
      <point x="85" y="141"/>
      <point x="64" y="157" type="curve"/>
      <point x="47" y="126"/>
      <point x="35" y="78"/>
      <point x="37" y="59" type="curve"/>
      <point x="50" y="22"/>
      <point x="92" y="-9"/>
    </contour>
  </outline>
</glyph>
<glyph name="Sha-cy" format="2">
  <advance width="1103"/>
  <unicode hex="0428"/>
  <anchor x="1043" y="75" name="bottomright"/>
  <outline>
    <contour>
      <point x="-16" y="-3" type="curve"/>
      <point x="25" y="-1"/>
      <point x="105" y="0"/>
      <point x="253" y="0" type="curve" smooth="yes"/>
      <point x="754" y="0" type="line" smooth="yes"/>
      <point x="906" y="0"/>
      <point x="1003" y="-1"/>
      <point x="1037" y="-3" type="curve"/>
      <point x="1042" y="23"/>
      <point x="1044" y="55"/>
      <point x="1043" y="75" type="curve"/>
      <point x="987" y="83"/>
      <point x="979" y="95"/>
      <point x="996" y="185" type="curve" smooth="yes"/>
      <point x="1057" y="489" type="line" smooth="yes"/>
      <point x="1075" y="581"/>
      <point x="1089" y="597"/>
      <point x="1144" y="601" type="curve"/>
      <point x="1155" y="620"/>
      <point x="1165" y="655"/>
      <point x="1165" y="679" type="curve"/>
      <point x="1118" y="677"/>
      <point x="1044" y="676"/>
      <point x="975" y="676" type="curve" smooth="yes"/>
      <point x="906" y="676"/>
      <point x="855" y="677"/>
      <point x="823" y="679" type="curve"/>
      <point x="819" y="653"/>
      <point x="818" y="619"/>
      <point x="821" y="601" type="curve"/>
      <point x="867" y="597"/>
      <point x="876" y="581"/>
      <point x="857" y="489" type="curve" smooth="yes"/>
      <point x="797" y="185" type="line" smooth="yes"/>
      <point x="785" y="122"/>
      <point x="775" y="96"/>
      <point x="750" y="84" type="curve" smooth="yes"/>
      <point x="740" y="79"/>
      <point x="725" y="75"/>
      <point x="700" y="75" type="curve" smooth="yes"/>
      <point x="674" y="75"/>
      <point x="661" y="79"/>
      <point x="652" y="84" type="curve" smooth="yes"/>
      <point x="632" y="96"/>
      <point x="631" y="122"/>
      <point x="643" y="185" type="curve" smooth="yes"/>
      <point x="704" y="489" type="line" smooth="yes"/>
      <point x="722" y="581"/>
      <point x="736" y="597"/>
      <point x="782" y="601" type="curve"/>
      <point x="793" y="620"/>
      <point x="802" y="655"/>
      <point x="802" y="679" type="curve"/>
      <point x="755" y="677"/>
      <point x="691" y="676"/>
      <point x="622" y="676" type="curve" smooth="yes"/>
      <point x="553" y="676"/>
      <point x="502" y="677"/>
      <point x="471" y="679" type="curve"/>
      <point x="466" y="653"/>
      <point x="465" y="619"/>
      <point x="468" y="601" type="curve"/>
      <point x="514" y="597"/>
      <point x="523" y="581"/>
      <point x="504" y="489" type="curve" smooth="yes"/>
      <point x="444" y="185" type="line" smooth="yes"/>
      <point x="432" y="122"/>
      <point x="422" y="96"/>
      <point x="397" y="84" type="curve" smooth="yes"/>
      <point x="387" y="79"/>
      <point x="372" y="75"/>
      <point x="347" y="75" type="curve" smooth="yes"/>
      <point x="321" y="75"/>
      <point x="307" y="79"/>
      <point x="299" y="84" type="curve" smooth="yes"/>
      <point x="279" y="96"/>
      <point x="278" y="122"/>
      <point x="290" y="185" type="curve" smooth="yes"/>
      <point x="351" y="489" type="line" smooth="yes"/>
      <point x="370" y="581"/>
      <point x="383" y="597"/>
      <point x="429" y="601" type="curve"/>
      <point x="440" y="620"/>
      <point x="450" y="655"/>
      <point x="449" y="679" type="curve"/>
      <point x="402" y="677"/>
      <point x="338" y="676"/>
      <point x="269" y="676" type="curve" smooth="yes"/>
      <point x="200" y="676"/>
      <point x="139" y="677"/>
      <point x="108" y="679" type="curve"/>
      <point x="103" y="653"/>
      <point x="102" y="619"/>
      <point x="105" y="601" type="curve"/>
      <point x="161" y="597"/>
      <point x="170" y="581"/>
      <point x="151" y="489" type="curve" smooth="yes"/>
      <point x="91" y="185" type="line" smooth="yes"/>
      <point x="74" y="95"/>
      <point x="61" y="81"/>
      <point x="4" y="75" type="curve"/>
      <point x="-8" y="49"/>
      <point x="-12" y="24"/>
    </contour>
  </outline>
</glyph>
<glyph name="Ereversed-cy" format="2">
  <advance width="623"/>
  <unicode hex="042D"/>
  <anchor x="341" y="676" name="top"/>
  <outline>
    <contour>
      <point x="218" y="-9" type="curve" smooth="yes"/>
      <point x="434" y="-9"/>
      <point x="559" y="109"/>
      <point x="609" y="294" type="curve" smooth="yes"/>
      <point x="670" y="523"/>
      <point x="569" y="685"/>
      <point x="343" y="685" type="curve" smooth="yes"/>
      <point x="272" y="685"/>
      <point x="190" y="669"/>
      <point x="121" y="644" type="curve"/>
      <point x="121" y="594"/>
      <point x="112" y="540"/>
      <point x="105" y="491" type="curve"/>
      <point x="118" y="473"/>
      <point x="169" y="464"/>
      <point x="198" y="464" type="curve"/>
      <point x="216" y="561"/>
      <point x="262" y="608"/>
      <point x="322" y="608" type="curve" smooth="yes"/>
      <point x="410" y="608"/>
      <point x="450" y="499"/>
      <point x="409" y="315" type="curve" smooth="yes"/>
      <point x="376" y="170"/>
      <point x="317" y="68"/>
      <point x="205" y="68" type="curve" smooth="yes"/>
      <point x="141" y="68"/>
      <point x="105" y="103"/>
      <point x="119" y="206" type="curve"/>
      <point x="87" y="215"/>
      <point x="41" y="213"/>
      <point x="22" y="209" type="curve"/>
      <point x="19" y="154"/>
      <point x="8" y="96"/>
      <point x="-2" y="54" type="curve"/>
      <point x="62" y="10"/>
      <point x="132" y="-9"/>
    </contour>
    <contour>
      <point x="128" y="295" type="curve"/>
      <point x="304" y="301"/>
      <point x="421" y="301"/>
      <point x="562" y="301" type="curve"/>
      <point x="603" y="384" type="line"/>
      <point x="157" y="384" type="line"/>
      <point x="142" y="359"/>
      <point x="131" y="326"/>
    </contour>
  </outline>
</glyph>
<glyph name="ka-cy" format="2">
  <advance width="582"/>
  <unicode hex="043A"/>
  <anchor x="551" y="75" name="bottomright"/>
  <anchor x="353" y="458" name="top"/>
  <outline>
    <contour>
      <point x="32" y="0" type="line"/>
      <point x="218" y="0" type="line"/>
      <point x="238" y="102"/>
      <point x="346" y="257"/>
      <point x="400" y="314" type="curve" smooth="yes"/>
      <point x="423" y="338"/>
      <point x="436" y="344"/>
      <point x="451" y="344" type="curve" smooth="yes"/>
      <point x="471" y="344"/>
      <point x="477" y="334"/>
      <point x="474" y="306" type="curve"/>
      <point x="514" y="300"/>
      <point x="544" y="303"/>
      <point x="572" y="312" type="curve"/>
      <point x="572" y="349"/>
      <point x="578" y="422"/>
      <point x="586" y="458" type="curve"/>
      <point x="574" y="462"/>
      <point x="551" y="465"/>
      <point x="530" y="465" type="curve" smooth="yes"/>
      <point x="461" y="465"/>
      <point x="416" y="433"/>
      <point x="355" y="362" type="curve" smooth="yes"/>
      <point x="314" y="314"/>
      <point x="245" y="224"/>
      <point x="206" y="143" type="curve"/>
      <point x="204" y="126" type="line"/>
      <point x="255" y="225"/>
      <point x="295" y="352"/>
      <point x="301" y="402" type="curve" smooth="yes"/>
      <point x="304" y="429"/>
      <point x="301" y="449"/>
      <point x="271" y="467" type="curve"/>
      <point x="204" y="441"/>
      <point x="126" y="428"/>
      <point x="44" y="426" type="curve"/>
      <point x="35" y="404"/>
      <point x="30" y="375"/>
      <point x="30" y="351" type="curve"/>
      <point x="92" y="351"/>
      <point x="93" y="334"/>
      <point x="80" y="262" type="curve" smooth="yes"/>
    </contour>
    <contour>
      <point x="226" y="201" type="line"/>
      <point x="257" y="201" type="line"/>
      <point x="257" y="217" type="line"/>
      <point x="226" y="217" type="line"/>
    </contour>
    <contour>
      <point x="350" y="-6" type="curve"/>
      <point x="405" y="-2"/>
      <point x="456" y="0"/>
      <point x="529" y="0" type="curve"/>
      <point x="538" y="17"/>
      <point x="548" y="49"/>
      <point x="551" y="75" type="curve"/>
      <point x="488" y="91"/>
      <point x="486" y="100"/>
      <point x="484" y="155" type="curve" smooth="yes"/>
      <point x="482" y="196"/>
      <point x="473" y="263"/>
      <point x="342" y="263" type="curve"/>
      <point x="306" y="202" type="line"/>
      <point x="334" y="202"/>
      <point x="330" y="158"/>
      <point x="325" y="106" type="curve" smooth="yes"/>
      <point x="321" y="60"/>
      <point x="316" y="13"/>
    </contour>
  </outline>
</glyph>
<glyph name="el-cy" format="2">
  <advance width="601"/>
  <unicode hex="043B"/>
  <anchor x="582" y="52" name="bottomright"/>
  <outline>
    <contour>
      <point x="429" y="-9" type="curve" smooth="yes"/>
      <point x="478" y="-9"/>
      <point x="538" y="9"/>
      <point x="582" y="52" type="curve"/>
      <point x="581" y="76"/>
      <point x="565" y="106"/>
      <point x="550" y="118" type="curve"/>
      <point x="534" y="106"/>
      <point x="526" y="104"/>
      <point x="520" y="104" type="curve" smooth="yes"/>
      <point x="504" y="104"/>
      <point x="501" y="120"/>
      <point x="518" y="205" type="curve" smooth="yes"/>
      <point x="569" y="458" type="line"/>
      <point x="402" y="458" type="line" smooth="yes"/>
      <point x="266" y="458"/>
      <point x="232" y="400"/>
      <point x="189" y="282" type="curve" smooth="yes"/>
      <point x="156" y="191"/>
      <point x="140" y="135"/>
      <point x="83" y="135" type="curve" smooth="yes"/>
      <point x="68" y="135"/>
      <point x="40" y="139"/>
      <point x="20" y="147" type="curve"/>
      <point x="1" y="112"/>
      <point x="-8" y="74"/>
      <point x="-7" y="40" type="curve"/>
      <point x="3" y="21"/>
      <point x="24" y="-6"/>
      <point x="81" y="-6" type="curve" smooth="yes"/>
      <point x="176" y="-6"/>
      <point x="202" y="71"/>
      <point x="253" y="227" type="curve" smooth="yes"/>
      <point x="293" y="348"/>
      <point x="312" y="383"/>
      <point x="367" y="383" type="curve"/>
      <point x="366" y="404" type="line"/>
      <point x="319" y="178" type="line" smooth="yes"/>
      <point x="294" y="58"/>
      <point x="333" y="-9"/>
    </contour>
  </outline>
</glyph>
<glyph name="sha-cy" format="2">
  <advance width="1001"/>
  <unicode hex="0448"/>
  <anchor x="982" y="52" name="bottomright"/>
  <anchor x="522" y="458" name="top"/>
  <outline>
    <contour>
      <point x="154" y="-9" type="curve" smooth="yes"/>
      <point x="255" y="-9"/>
      <point x="345" y="52"/>
      <point x="396" y="156" type="curve"/>
      <point x="398" y="201" type="line"/>
      <point x="359" y="30"/>
      <point x="405" y="-9"/>
      <point x="481" y="-9" type="curve" smooth="yes"/>
      <point x="579" y="-9"/>
      <point x="669" y="52"/>
      <point x="720" y="156" type="curve"/>
      <point x="721" y="156" type="line"/>
      <point x="713" y="139"/>
      <point x="709" y="123"/>
      <point x="706" y="108" type="curve" smooth="yes"/>
      <point x="694" y="48"/>
      <point x="713" y="-9"/>
      <point x="819" y="-9" type="curve" smooth="yes"/>
      <point x="878" y="-9"/>
      <point x="938" y="9"/>
      <point x="982" y="52" type="curve"/>
      <point x="981" y="76"/>
      <point x="965" y="106"/>
      <point x="950" y="118" type="curve"/>
      <point x="938" y="109"/>
      <point x="928" y="104"/>
      <point x="921" y="104" type="curve" smooth="yes"/>
      <point x="905" y="104"/>
      <point x="902" y="116"/>
      <point x="918" y="205" type="curve" smooth="yes"/>
      <point x="962" y="458" type="line"/>
      <point x="769" y="458" type="line"/>
      <point x="760" y="408" type="line" smooth="yes"/>
      <point x="725" y="220"/>
      <point x="663" y="153"/>
      <point x="625" y="153" type="curve" smooth="yes"/>
      <point x="594" y="153"/>
      <point x="584" y="173"/>
      <point x="606" y="288" type="curve" smooth="yes"/>
      <point x="638" y="458" type="line"/>
      <point x="445" y="458" type="line"/>
      <point x="436" y="408" type="line" smooth="yes"/>
      <point x="401" y="220"/>
      <point x="339" y="153"/>
      <point x="298" y="153" type="curve" smooth="yes"/>
      <point x="267" y="153"/>
      <point x="256" y="174"/>
      <point x="281" y="288" type="curve" smooth="yes"/>
      <point x="311" y="426"/>
      <point x="311" y="442"/>
      <point x="271" y="467" type="curve"/>
      <point x="205" y="441"/>
      <point x="125" y="428"/>
      <point x="43" y="426" type="curve"/>
      <point x="34" y="404"/>
      <point x="30" y="375"/>
      <point x="30" y="351" type="curve"/>
      <point x="100" y="347"/>
      <point x="103" y="342"/>
      <point x="71" y="201" type="curve" smooth="yes"/>
      <point x="32" y="30"/>
      <point x="78" y="-9"/>
    </contour>
  </outline>
</glyph>
<glyph name="ereversed-cy" format="2">
  <advance width="502"/>
  <unicode hex="044D"/>
  <anchor x="282" y="458" name="top"/>
  <outline>
    <contour>
      <point x="158" y="-9" type="curve" smooth="yes"/>
      <point x="329" y="-9"/>
      <point x="439" y="70"/>
      <point x="470" y="223" type="curve" smooth="yes"/>
      <point x="501" y="377"/>
      <point x="423" y="467"/>
      <point x="255" y="467" type="curve" smooth="yes"/>
      <point x="208" y="467"/>
      <point x="133" y="460"/>
      <point x="78" y="446" type="curve"/>
      <point x="76" y="410"/>
      <point x="68" y="370"/>
      <point x="57" y="337" type="curve"/>
      <point x="84" y="322"/>
      <point x="125" y="313"/>
      <point x="158" y="317" type="curve"/>
      <point x="170" y="350"/>
      <point x="190" y="391"/>
      <point x="233" y="391" type="curve" smooth="yes"/>
      <point x="288" y="391"/>
      <point x="293" y="325"/>
      <point x="266" y="208" type="curve" smooth="yes"/>
      <point x="245" y="117"/>
      <point x="221" y="67"/>
      <point x="164" y="67" type="curve" smooth="yes"/>
      <point x="117" y="67"/>
      <point x="108" y="101"/>
      <point x="109" y="144" type="curve"/>
      <point x="74" y="150"/>
      <point x="41" y="148"/>
      <point x="8" y="138" type="curve"/>
      <point x="8" y="103"/>
      <point x="3" y="66"/>
      <point x="-5" y="27" type="curve"/>
      <point x="31" y="6"/>
      <point x="84" y="-9"/>
    </contour>
    <contour>
      <point x="100" y="181" type="curve"/>
      <point x="163" y="186"/>
      <point x="217" y="187"/>
      <point x="266" y="187" type="curve"/>
      <point x="283" y="273" type="line"/>
      <point x="128" y="273" type="line"/>
      <point x="114" y="252"/>
      <point x="102" y="213"/>
    </contour>
  </outline>
</glyph>
<glyph name="lje-cy" format="2">
  <advance width="833"/>
  <unicode hex="0459"/>
  <outline>
    <contour>
      <point x="533" y="-9" type="curve" smooth="yes"/>
      <point x="731" y="-9"/>
      <point x="793" y="69"/>
      <point x="807" y="145" type="curve" smooth="yes"/>
      <point x="826" y="248"/>
      <point x="749" y="301"/>
      <point x="616" y="301" type="curve" smooth="yes"/>
      <point x="579" y="301"/>
      <point x="547" y="298"/>
      <point x="529" y="293" type="curve"/>
      <point x="515" y="222" type="line"/>
      <point x="532" y="225"/>
      <point x="547" y="226"/>
      <point x="556" y="226" type="curve" smooth="yes"/>
      <point x="609" y="226"/>
      <point x="617" y="190"/>
      <point x="612" y="144" type="curve" smooth="yes"/>
      <point x="606" y="91"/>
      <point x="587" y="65"/>
      <point x="552" y="65" type="curve" smooth="yes"/>
      <point x="509" y="65"/>
      <point x="496" y="103"/>
      <point x="519" y="213" type="curve" smooth="yes"/>
      <point x="569" y="458" type="line"/>
      <point x="402" y="458" type="line" smooth="yes"/>
      <point x="266" y="458"/>
      <point x="232" y="400"/>
      <point x="189" y="282" type="curve" smooth="yes"/>
      <point x="156" y="191"/>
      <point x="140" y="135"/>
      <point x="83" y="135" type="curve" smooth="yes"/>
      <point x="68" y="135"/>
      <point x="40" y="139"/>
      <point x="20" y="147" type="curve"/>
      <point x="1" y="112"/>
      <point x="-8" y="74"/>
      <point x="-7" y="40" type="curve"/>
      <point x="3" y="21"/>
      <point x="24" y="-6"/>
      <point x="81" y="-6" type="curve" smooth="yes"/>
      <point x="176" y="-6"/>
      <point x="202" y="71"/>
      <point x="253" y="227" type="curve" smooth="yes"/>
      <point x="293" y="348"/>
      <point x="312" y="383"/>
      <point x="367" y="383" type="curve"/>
      <point x="366" y="404" type="line"/>
      <point x="325" y="208" type="line" smooth="yes"/>
      <point x="285" y="19"/>
      <point x="403" y="-9"/>
    </contour>
  </outline>
</glyph>
<glyph name="yat-cy" format="2">
  <advance width="934"/>
  <unicode hex="0463"/>
  <outline>
    <contour>
      <point x="606" y="-9" type="curve" smooth="yes"/>
      <point x="823" y="-9"/>
      <point x="890" y="58"/>
      <point x="905" y="129" type="curve" smooth="yes"/>
      <point x="925" y="223"/>
      <point x="843" y="277"/>
      <point x="675" y="277" type="curve" smooth="yes"/>
      <point x="635" y="277"/>
      <point x="604" y="274"/>
      <point x="587" y="269" type="curve"/>
      <point x="573" y="198" type="line"/>
      <point x="590" y="201"/>
      <point x="604" y="202"/>
      <point x="615" y="202" type="curve" smooth="yes"/>
      <point x="678" y="202"/>
      <point x="698" y="171"/>
      <point x="690" y="126" type="curve" smooth="yes"/>
      <point x="683" y="85"/>
      <point x="659" y="65"/>
      <point x="624" y="65" type="curve" smooth="yes"/>
      <point x="579" y="65"/>
      <point x="563" y="103"/>
      <point x="579" y="171" type="curve" smooth="yes"/>
      <point x="601" y="267" type="line" smooth="yes"/>
      <point x="633" y="408"/>
      <point x="588" y="467"/>
      <point x="501" y="467" type="curve" smooth="yes"/>
      <point x="408" y="467"/>
      <point x="325" y="401"/>
      <point x="281" y="311" type="curve" smooth="yes"/>
      <point x="236" y="218" type="line"/>
      <point x="235" y="50" type="line"/>
      <point x="270" y="237"/>
      <point x="334" y="320"/>
      <point x="377" y="320" type="curve" smooth="yes"/>
      <point x="407" y="320"/>
      <point x="408" y="279"/>
      <point x="398" y="237" type="curve" smooth="yes"/>
      <point x="391" y="202" type="line" smooth="yes"/>
      <point x="353" y="26"/>
      <point x="461" y="-9"/>
    </contour>
    <contour>
      <point x="33" y="0" type="line"/>
      <point x="226" y="0" type="line"/>
      <point x="235" y="50" type="line"/>
      <point x="264" y="278" type="line"/>
      <point x="287" y="329"/>
      <point x="296" y="359"/>
      <point x="302" y="402" type="curve" smooth="yes"/>
      <point x="306" y="430"/>
      <point x="297" y="453"/>
      <point x="271" y="467" type="curve"/>
      <point x="205" y="441"/>
      <point x="125" y="428"/>
      <point x="43" y="426" type="curve"/>
      <point x="34" y="404"/>
      <point x="30" y="375"/>
      <point x="30" y="351" type="curve"/>
      <point x="94" y="351"/>
      <point x="95" y="334"/>
      <point x="82" y="262" type="curve" smooth="yes"/>
    </contour>
  </outline>
</glyph>
<glyph name="yusbig-cy" format="2">
  <advance width="858"/>
  <unicode hex="046B"/>
  <outline>
    <contour>
      <point x="381" y="166" type="line"/>
      <point x="451" y="166" type="line"/>
      <point x="744" y="371" type="line" smooth="yes"/>
      <point x="755" y="379"/>
      <point x="771" y="382"/>
      <point x="792" y="383" type="curve"/>
      <point x="802" y="402"/>
      <point x="808" y="428"/>
      <point x="814" y="461" type="curve"/>
      <point x="789" y="459"/>
      <point x="713" y="458"/>
      <point x="644" y="458" type="curve" smooth="yes"/>
      <point x="287" y="458" type="line" smooth="yes"/>
      <point x="218" y="458"/>
      <point x="144" y="459"/>
      <point x="119" y="461" type="curve"/>
      <point x="113" y="428"/>
      <point x="111" y="402"/>
      <point x="113" y="383" type="curve"/>
      <point x="134" y="382"/>
      <point x="148" y="379"/>
      <point x="157" y="371" type="curve" smooth="yes"/>
    </contour>
    <contour>
      <point x="488" y="245" type="curve"/>
      <point x="498" y="245" type="line"/>
      <point x="499" y="266"/>
      <point x="456" y="314"/>
      <point x="379" y="379" type="curve" smooth="yes"/>
      <point x="326" y="424" type="line"/>
      <point x="247" y="390" type="line"/>
      <point x="746" y="390" type="line"/>
      <point x="723" y="424" type="line"/>
      <point x="651" y="377" type="line" smooth="yes"/>
      <point x="556" y="315"/>
      <point x="497" y="267"/>
    </contour>
    <contour>
      <point x="133" y="-6" type="curve"/>
      <point x="182" y="20"/>
      <point x="183" y="21"/>
      <point x="244" y="120" type="curve" smooth="yes"/>
      <point x="269" y="162"/>
      <point x="283" y="182"/>
      <point x="323" y="182" type="curve"/>
      <point x="335" y="249" type="line"/>
      <point x="138" y="246"/>
      <point x="140" y="242"/>
      <point x="59" y="135" type="curve" smooth="yes"/>
      <point x="22" y="85"/>
      <point x="14" y="78"/>
      <point x="-31" y="71" type="curve"/>
      <point x="-36" y="41"/>
      <point x="-37" y="15"/>
      <point x="-31" y="0" type="curve"/>
      <point x="-2" y="0"/>
      <point x="83" y="-1"/>
    </contour>
    <contour>
      <point x="237" y="-2" type="curve"/>
      <point x="276" y="-1"/>
      <point x="341" y="0"/>
      <point x="402" y="0" type="curve" smooth="yes"/>
      <point x="463" y="0"/>
      <point x="513" y="-1"/>
      <point x="533" y="-2" type="curve"/>
      <point x="537" y="20"/>
      <point x="541" y="55"/>
      <point x="540" y="71" type="curve"/>
      <point x="503" y="74"/>
      <point x="498" y="85"/>
      <point x="511" y="162" type="curve" smooth="yes"/>
      <point x="522" y="221" type="line"/>
      <point x="329" y="221" type="line"/>
      <point x="318" y="162" type="line" smooth="yes"/>
      <point x="305" y="85"/>
      <point x="297" y="74"/>
      <point x="260" y="71" type="curve"/>
      <point x="252" y="54"/>
      <point x="241" y="18"/>
    </contour>
    <contour>
      <point x="637" y="-6" type="curve"/>
      <point x="688" y="-1"/>
      <point x="775" y="0"/>
      <point x="803" y="0" type="curve"/>
      <point x="813" y="14"/>
      <point x="822" y="40"/>
      <point x="827" y="71" type="curve"/>
      <point x="783" y="78"/>
      <point x="780" y="86"/>
      <point x="760" y="135" type="curve" smooth="yes"/>
      <point x="715" y="248"/>
      <point x="699" y="249"/>
      <point x="526" y="249" type="curve"/>
      <point x="514" y="182" type="line"/>
      <point x="546" y="182"/>
      <point x="556" y="175"/>
      <point x="572" y="120" type="curve" smooth="yes"/>
      <point x="591" y="54"/>
      <point x="585" y="30"/>
    </contour>
  </outline>
</glyph>
<glyph name="izhitsa-cy" format="2">
  <advance width="582"/>
  <unicode hex="0475"/>
  <anchor x="317" y="458" name="top"/>
  <outline>
    <contour>
      <point x="263" y="-8" type="curve"/>
      <point x="396" y="289"/>
      <point x="425" y="339"/>
      <point x="493" y="339" type="curve" smooth="yes"/>
      <point x="510" y="339"/>
      <point x="535" y="336"/>
      <point x="550" y="320" type="curve"/>
      <point x="568" y="349"/>
      <point x="583" y="385"/>
      <point x="587" y="406" type="curve"/>
      <point x="579" y="445"/>
      <point x="552" y="464"/>
      <point x="510" y="464" type="curve" smooth="yes"/>
      <point x="405" y="464"/>
      <point x="349" y="346"/>
      <point x="272" y="142" type="curve"/>
      <point x="307" y="155" type="line"/>
      <point x="293" y="241"/>
      <point x="264" y="362"/>
      <point x="249" y="411" type="curve" smooth="yes"/>
      <point x="238" y="448"/>
      <point x="229" y="459"/>
      <point x="203" y="467" type="curve"/>
      <point x="162" y="451"/>
      <point x="69" y="430"/>
      <point x="16" y="426" type="curve"/>
      <point x="8" y="404"/>
      <point x="4" y="379"/>
      <point x="4" y="350" type="curve"/>
      <point x="58" y="353"/>
      <point x="72" y="338"/>
      <point x="87" y="292" type="curve" smooth="yes"/>
      <point x="107" y="230"/>
      <point x="134" y="115"/>
      <point x="153" y="11" type="curve"/>
      <point x="178" y="-3"/>
      <point x="226" y="-9"/>
    </contour>
  </outline>
</glyph>
<glyph name="Kaverticalstroke-cy" format="2">
  <advance width="809"/>
  <unicode hex="049C"/>
  <outline>
    <contour>
      <point x="-24" y="-3" type="curve"/>
      <point x="23" y="-1"/>
      <point x="96" y="0"/>
      <point x="165" y="0" type="curve" smooth="yes"/>
      <point x="234" y="0"/>
      <point x="294" y="-1"/>
      <point x="324" y="-3" type="curve"/>
      <point x="329" y="23"/>
      <point x="333" y="57"/>
      <point x="331" y="75" type="curve"/>
      <point x="278" y="79"/>
      <point x="269" y="95"/>
      <point x="287" y="187" type="curve" smooth="yes"/>
      <point x="346" y="491" type="line" smooth="yes"/>
      <point x="363" y="581"/>
      <point x="376" y="595"/>
      <point x="432" y="601" type="curve"/>
      <point x="446" y="627"/>
      <point x="451" y="652"/>
      <point x="456" y="679" type="curve"/>
      <point x="416" y="677"/>
      <point x="335" y="676"/>
      <point x="287" y="676" type="curve" smooth="yes"/>
      <point x="239" y="676"/>
      <point x="141" y="677"/>
      <point x="108" y="679" type="curve"/>
      <point x="103" y="653"/>
      <point x="101" y="621"/>
      <point x="102" y="601" type="curve"/>
      <point x="157" y="593"/>
      <point x="163" y="581"/>
      <point x="146" y="491" type="curve" smooth="yes"/>
      <point x="87" y="187" type="line" smooth="yes"/>
      <point x="69" y="95"/>
      <point x="56" y="79"/>
      <point x="1" y="75" type="curve"/>
      <point x="-8" y="56"/>
      <point x="-19" y="21"/>
    </contour>
    <contour>
      <point x="534" y="-9" type="curve"/>
      <point x="600" y="-1"/>
      <point x="709" y="0"/>
      <point x="751" y="0" type="curve"/>
      <point x="765" y="20"/>
      <point x="776" y="65"/>
      <point x="778" y="75" type="curve"/>
      <point x="694" y="83"/>
      <point x="690" y="119"/>
      <point x="642" y="293" type="curve" smooth="yes"/>
      <point x="623" y="364"/>
      <point x="577" y="385"/>
      <point x="522" y="389" type="curve"/>
      <point x="541" y="385" type="line"/>
      <point x="577" y="391"/>
      <point x="589" y="414"/>
      <point x="632" y="478" type="curve" smooth="yes"/>
      <point x="669" y="531"/>
      <point x="685" y="553"/>
      <point x="707" y="553" type="curve" smooth="yes"/>
      <point x="722" y="553"/>
      <point x="725" y="543"/>
      <point x="720" y="489" type="curve"/>
      <point x="769" y="485"/>
      <point x="798" y="491"/>
      <point x="825" y="498" type="curve"/>
      <point x="827" y="546"/>
      <point x="843" y="625"/>
      <point x="857" y="676" type="curve"/>
      <point x="844" y="680"/>
      <point x="818" y="684"/>
      <point x="787" y="684" type="curve" smooth="yes"/>
      <point x="690" y="684"/>
      <point x="678" y="646"/>
      <point x="573" y="506" type="curve" smooth="yes"/>
      <point x="500" y="410"/>
      <point x="477" y="391"/>
      <point x="444" y="391" type="curve" smooth="yes"/>
      <point x="316" y="391" type="line"/>
      <point x="302" y="316" type="line"/>
      <point x="430" y="316" type="line" smooth="yes"/>
      <point x="458" y="316"/>
      <point x="468" y="250"/>
      <point x="476" y="187" type="curve" smooth="yes"/>
      <point x="488" y="82"/>
      <point x="485" y="43"/>
    </contour>
    <contour>
      <point x="418" y="171" type="curve"/>
      <point x="430" y="245"/>
      <point x="442" y="313"/>
      <point x="450" y="352" type="curve" smooth="yes"/>
      <point x="457" y="390"/>
      <point x="470" y="450"/>
      <point x="485" y="521" type="curve"/>
      <point x="470" y="532"/>
      <point x="427" y="538"/>
      <point x="400" y="536" type="curve"/>
      <point x="331" y="182" type="line"/>
      <point x="349" y="170"/>
      <point x="389" y="167"/>
    </contour>
  </outline>
</glyph>
<glyph name="kabashkir-cy" format="2">
  <advance width="691"/>
  <unicode hex="04A1"/>
  <outline>
    <contour>
      <point x="449" y="-6" type="curve"/>
      <point x="504" y="-2"/>
      <point x="566" y="0"/>
      <point x="639" y="0" type="curve"/>
      <point x="648" y="17"/>
      <point x="658" y="49"/>
      <point x="660" y="75" type="curve"/>
      <point x="589" y="91"/>
      <point x="588" y="101"/>
      <point x="553" y="195" type="curve" smooth="yes"/>
      <point x="533" y="248"/>
      <point x="486" y="266"/>
      <point x="444" y="269" type="curve"/>
      <point x="459" y="262" type="line"/>
      <point x="487" y="266"/>
      <point x="504" y="276"/>
      <point x="530" y="310" type="curve" smooth="yes"/>
      <point x="549" y="335"/>
      <point x="560" y="350"/>
      <point x="570" y="350" type="curve" smooth="yes"/>
      <point x="580" y="350"/>
      <point x="582" y="340"/>
      <point x="581" y="320" type="curve"/>
      <point x="619" y="307"/>
      <point x="653" y="307"/>
      <point x="682" y="312" type="curve"/>
      <point x="679" y="349"/>
      <point x="686" y="422"/>
      <point x="700" y="458" type="curve"/>
      <point x="688" y="462"/>
      <point x="667" y="465"/>
      <point x="638" y="465" type="curve" smooth="yes"/>
      <point x="563" y="465"/>
      <point x="559" y="442"/>
      <point x="477" y="352" type="curve" smooth="yes"/>
      <point x="422" y="291"/>
      <point x="404" y="273"/>
      <point x="362" y="273" type="curve"/>
      <point x="354" y="207" type="line"/>
      <point x="399" y="207"/>
      <point x="374" y="38"/>
    </contour>
    <contour>
      <point x="126" y="0" type="line"/>
      <point x="319" y="0" type="line"/>
      <point x="405" y="458" type="line"/>
      <point x="212" y="458" type="line"/>
    </contour>
    <contour>
      <point x="91" y="300" type="curve"/>
      <point x="112" y="362"/>
      <point x="136" y="390"/>
      <point x="193" y="390" type="curve" smooth="yes"/>
      <point x="247" y="390" type="line"/>
      <point x="258" y="458" type="line"/>
      <point x="136" y="458"/>
      <point x="86" y="458"/>
      <point x="35" y="467" type="curve"/>
      <point x="30" y="430"/>
      <point x="12" y="370"/>
      <point x="-3" y="342" type="curve"/>
      <point x="19" y="321"/>
      <point x="53" y="307"/>
    </contour>
  </outline>
</glyph>
<glyph name="Enghe-cy" format="2">
  <advance width="968"/>
  <unicode hex="04A4"/>
  <outline>
    <contour>
      <point x="10" y="-3" type="curve"/>
      <point x="56" y="-1"/>
      <point x="112" y="0"/>
      <point x="185" y="0" type="curve" smooth="yes"/>
      <point x="250" y="0"/>
      <point x="291" y="0"/>
      <point x="348" y="-3" type="curve"/>
      <point x="351" y="25"/>
      <point x="350" y="49"/>
      <point x="346" y="75" type="curve"/>
      <point x="297" y="84"/>
      <point x="288" y="95"/>
      <point x="303" y="180" type="curve" smooth="yes"/>
      <point x="355" y="481" type="line" smooth="yes"/>
      <point x="372" y="582"/>
      <point x="379" y="595"/>
      <point x="434" y="601" type="curve"/>
      <point x="444" y="628"/>
      <point x="448" y="654"/>
      <point x="448" y="679" type="curve"/>
      <point x="389" y="676"/>
      <point x="328" y="676"/>
      <point x="276" y="676" type="curve" smooth="yes"/>
      <point x="212" y="676"/>
      <point x="157" y="676"/>
      <point x="108" y="679" type="curve"/>
      <point x="104" y="652"/>
      <point x="105" y="623"/>
      <point x="109" y="601" type="curve"/>
      <point x="166" y="593"/>
      <point x="171" y="579"/>
      <point x="158" y="501" type="curve" smooth="yes"/>
      <point x="103" y="177" type="line" smooth="yes"/>
      <point x="89" y="93"/>
      <point x="78" y="82"/>
      <point x="29" y="75" type="curve"/>
      <point x="18" y="48"/>
      <point x="13" y="26"/>
    </contour>
    <contour>
      <point x="297" y="285" type="line"/>
      <point x="363" y="294"/>
      <point x="454" y="296"/>
      <point x="531" y="296" type="curve"/>
      <point x="542" y="377" type="line"/>
      <point x="310" y="377" type="line"/>
    </contour>
    <contour>
      <point x="396" y="-3" type="curve"/>
      <point x="447" y="-1"/>
      <point x="510" y="0"/>
      <point x="591" y="0" type="curve" smooth="yes"/>
      <point x="664" y="0"/>
      <point x="710" y="0"/>
      <point x="774" y="-3" type="curve"/>
      <point x="777" y="25"/>
      <point x="776" y="49"/>
      <point x="772" y="75" type="curve"/>
      <point x="696" y="83"/>
      <point x="677" y="107"/>
      <point x="689" y="180" type="curve" smooth="yes"/>
      <point x="775" y="676" type="line"/>
      <point x="633" y="676"/>
      <point x="601" y="676"/>
      <point x="494" y="679" type="curve"/>
      <point x="490" y="652"/>
      <point x="491" y="623"/>
      <point x="495" y="601" type="curve"/>
      <point x="552" y="593"/>
      <point x="557" y="579"/>
      <point x="544" y="501" type="curve" smooth="yes"/>
      <point x="489" y="177" type="line" smooth="yes"/>
      <point x="475" y="93"/>
      <point x="464" y="82"/>
      <point x="415" y="75" type="curve"/>
      <point x="404" y="48"/>
      <point x="399" y="26"/>
    </contour>
    <contour>
      <point x="911" y="485" type="curve"/>
      <point x="954" y="485"/>
      <point x="984" y="491"/>
      <point x="1010" y="498" type="curve"/>
      <point x="1005" y="546"/>
      <point x="1010" y="627"/>
      <point x="1019" y="679" type="curve"/>
      <point x="965" y="677"/>
      <point x="903" y="676"/>
      <point x="763" y="676" type="curve"/>
      <point x="745" y="601" type="line"/>
      <point x="800" y="601" type="line" smooth="yes"/>
      <point x="890" y="601"/>
      <point x="906" y="556"/>
    </contour>
  </outline>
</glyph>
<glyph name="ustrait-cy" format="2">
  <advance width="563"/>
  <unicode hex="04AF"/>
  <anchor x="246" y="16" name="center"/>
  <outline>
    <contour>
      <point x="165" y="-81" type="curve"/>
      <point x="245" y="-75" type="line"/>
      <point x="276" y="-42"/>
      <point x="310" y="-3"/>
      <point x="350" y="43" type="curve" smooth="yes"/>
      <point x="541" y="263"/>
      <point x="559" y="316"/>
      <point x="559" y="375" type="curve" smooth="yes"/>
      <point x="559" y="425"/>
      <point x="541" y="455"/>
      <point x="503" y="467" type="curve"/>
      <point x="462" y="451"/>
      <point x="369" y="430"/>
      <point x="316" y="426" type="curve"/>
      <point x="308" y="404"/>
      <point x="304" y="379"/>
      <point x="304" y="350" type="curve"/>
      <point x="356" y="353"/>
      <point x="385" y="326"/>
      <point x="385" y="281" type="curve" smooth="yes"/>
      <point x="385" y="234"/>
      <point x="369" y="191"/>
      <point x="273" y="69" type="curve"/>
      <point x="309" y="69" type="line"/>
      <point x="300" y="180"/>
      <point x="282" y="296"/>
      <point x="249" y="411" type="curve" smooth="yes"/>
      <point x="238" y="448"/>
      <point x="229" y="459"/>
      <point x="203" y="467" type="curve"/>
      <point x="162" y="451"/>
      <point x="69" y="430"/>
      <point x="16" y="426" type="curve"/>
      <point x="8" y="404"/>
      <point x="4" y="379"/>
      <point x="4" y="350" type="curve"/>
      <point x="56" y="353"/>
      <point x="73" y="338"/>
      <point x="87" y="292" type="curve" smooth="yes"/>
      <point x="124" y="172"/>
      <point x="146" y="68"/>
    </contour>
    <contour>
      <point x="21" y="-246" type="curve"/>
      <point x="47" y="-244"/>
      <point x="122" y="-242"/>
      <point x="191" y="-242" type="curve" smooth="yes"/>
      <point x="259" y="-242"/>
      <point x="333" y="-244"/>
      <point x="359" y="-246" type="curve"/>
      <point x="365" y="-214"/>
      <point x="368" y="-188"/>
      <point x="366" y="-169" type="curve"/>
      <point x="313" y="-166"/>
      <point x="302" y="-148"/>
      <point x="316" y="-78" type="curve" smooth="yes"/>
      <point x="346" y="79" type="line"/>
      <point x="160" y="79" type="line"/>
      <point x="130" y="-78" type="line" smooth="yes"/>
      <point x="116" y="-148"/>
      <point x="100" y="-166"/>
      <point x="44" y="-169" type="curve"/>
      <point x="34" y="-188"/>
      <point x="27" y="-214"/>
    </contour>
  </outline>
</glyph>
<glyph name="Cheverticalstroke-cy" format="2">
  <advance width="809"/>
  <unicode hex="04B8"/>
  <outline>
    <contour>
      <point x="357" y="278" type="curve" smooth="yes"/>
      <point x="441" y="278"/>
      <point x="488" y="290"/>
      <point x="533" y="304" type="curve"/>
      <point x="546" y="375" type="line"/>
      <point x="520" y="369"/>
      <point x="478" y="365"/>
      <point x="445" y="365" type="curve" smooth="yes"/>
      <point x="350" y="365"/>
      <point x="324" y="402"/>
      <point x="343" y="504" type="curve" smooth="yes"/>
      <point x="359" y="585"/>
      <point x="379" y="596"/>
      <point x="427" y="601" type="curve"/>
      <point x="441" y="627"/>
      <point x="446" y="652"/>
      <point x="451" y="679" type="curve"/>
      <point x="411" y="677"/>
      <point x="330" y="676"/>
      <point x="282" y="676" type="curve" smooth="yes"/>
      <point x="234" y="676"/>
      <point x="136" y="677"/>
      <point x="103" y="679" type="curve"/>
      <point x="98" y="653"/>
      <point x="96" y="621"/>
      <point x="97" y="601" type="curve"/>
      <point x="156" y="591"/>
      <point x="156" y="585"/>
      <point x="141" y="491" type="curve" smooth="yes"/>
      <point x="116" y="339"/>
      <point x="175" y="278"/>
    </contour>
    <contour>
      <point x="435" y="143" type="curve"/>
      <point x="448" y="217"/>
      <point x="460" y="284"/>
      <point x="468" y="326" type="curve" smooth="yes"/>
      <point x="475" y="361"/>
      <point x="488" y="422"/>
      <point x="503" y="493" type="curve"/>
      <point x="487" y="504"/>
      <point x="446" y="510"/>
      <point x="417" y="508" type="curve"/>
      <point x="348" y="154" type="line"/>
      <point x="367" y="142"/>
      <point x="407" y="139"/>
    </contour>
    <contour>
      <point x="357" y="-3" type="curve"/>
      <point x="394" y="-1"/>
      <point x="486" y="0"/>
      <point x="572" y="0" type="curve" smooth="yes"/>
      <point x="658" y="0"/>
      <point x="713" y="-1"/>
      <point x="743" y="-3" type="curve"/>
      <point x="748" y="23"/>
      <point x="752" y="57"/>
      <point x="750" y="75" type="curve"/>
      <point x="697" y="79"/>
      <point x="688" y="95"/>
      <point x="706" y="187" type="curve" smooth="yes"/>
      <point x="765" y="491" type="line" smooth="yes"/>
      <point x="782" y="581"/>
      <point x="795" y="595"/>
      <point x="851" y="601" type="curve"/>
      <point x="863" y="627"/>
      <point x="867" y="652"/>
      <point x="871" y="679" type="curve"/>
      <point x="832" y="677"/>
      <point x="753" y="676"/>
      <point x="706" y="676" type="curve" smooth="yes"/>
      <point x="658" y="676"/>
      <point x="560" y="677"/>
      <point x="527" y="679" type="curve"/>
      <point x="522" y="653"/>
      <point x="520" y="621"/>
      <point x="521" y="601" type="curve"/>
      <point x="576" y="593"/>
      <point x="582" y="580"/>
      <point x="565" y="491" type="curve" smooth="yes"/>
      <point x="506" y="187" type="line" smooth="yes"/>
      <point x="491" y="111"/>
      <point x="460" y="81"/>
      <point x="375" y="75" type="curve"/>
      <point x="366" y="53"/>
      <point x="361" y="22"/>
    </contour>
  </outline>
</glyph>
<glyph name="kahook-cy" format="2">
  <advance width="631"/>
  <unicode hex="04C4"/>
  <outline>
    <contour>
      <point x="233" y="-246" type="curve"/>
      <point x="428" y="-188"/>
      <point x="537" y="-107"/>
      <point x="564" y="43" type="curve" smooth="yes"/>
      <point x="593" y="205"/>
      <point x="489" y="256"/>
      <point x="326" y="265" type="curve"/>
      <point x="346" y="258" type="line"/>
      <point x="394" y="266"/>
      <point x="410" y="275"/>
      <point x="437" y="310" type="curve" smooth="yes"/>
      <point x="452" y="329"/>
      <point x="465" y="350"/>
      <point x="478" y="350" type="curve" smooth="yes"/>
      <point x="487" y="350"/>
      <point x="489" y="339"/>
      <point x="488" y="320" type="curve"/>
      <point x="526" y="307"/>
      <point x="560" y="307"/>
      <point x="589" y="312" type="curve"/>
      <point x="586" y="349"/>
      <point x="593" y="422"/>
      <point x="607" y="458" type="curve"/>
      <point x="595" y="462"/>
      <point x="574" y="465"/>
      <point x="545" y="465" type="curve" smooth="yes"/>
      <point x="472" y="465"/>
      <point x="466" y="445"/>
      <point x="384" y="352" type="curve" smooth="yes"/>
      <point x="330" y="290"/>
      <point x="311" y="273"/>
      <point x="269" y="273" type="curve"/>
      <point x="261" y="206" type="line"/>
      <point x="362" y="206"/>
      <point x="405" y="121"/>
      <point x="372" y="3" type="curve" smooth="yes"/>
      <point x="345" y="-92"/>
      <point x="288" y="-138"/>
      <point x="202" y="-167" type="curve"/>
      <point x="202" y="-203"/>
      <point x="212" y="-228"/>
    </contour>
    <contour>
      <point x="33" y="0" type="line"/>
      <point x="226" y="0" type="line"/>
      <point x="302" y="402" type="line"/>
      <point x="306" y="430"/>
      <point x="297" y="453"/>
      <point x="271" y="467" type="curve"/>
      <point x="205" y="441"/>
      <point x="125" y="428"/>
      <point x="43" y="426" type="curve"/>
      <point x="34" y="404"/>
      <point x="30" y="375"/>
      <point x="30" y="351" type="curve"/>
      <point x="94" y="351"/>
      <point x="95" y="334"/>
      <point x="82" y="262" type="curve" smooth="yes"/>
    </contour>
  </outline>
</glyph>
<glyph name="eltail-cy" format="2">
  <advance width="623"/>
  <unicode hex="04C6"/>
  <outline>
    <contour>
      <point x="81" y="-6" type="curve" smooth="yes"/>
      <point x="176" y="-6"/>
      <point x="202" y="71"/>
      <point x="253" y="227" type="curve" smooth="yes"/>
      <point x="293" y="348"/>
      <point x="312" y="383"/>
      <point x="367" y="383" type="curve"/>
      <point x="366" y="404" type="line"/>
      <point x="283" y="0" type="line"/>
      <point x="529" y="0" type="line"/>
      <point x="549" y="75" type="line"/>
      <point x="507" y="75"/>
      <point x="494" y="88"/>
      <point x="505" y="141" type="curve" smooth="yes"/>
      <point x="569" y="458" type="line"/>
      <point x="402" y="458" type="line" smooth="yes"/>
      <point x="266" y="458"/>
      <point x="232" y="400"/>
      <point x="189" y="282" type="curve" smooth="yes"/>
      <point x="156" y="191"/>
      <point x="140" y="135"/>
      <point x="83" y="135" type="curve" smooth="yes"/>
      <point x="68" y="135"/>
      <point x="40" y="139"/>
      <point x="20" y="147" type="curve"/>
      <point x="1" y="112"/>
      <point x="-8" y="74"/>
      <point x="-7" y="40" type="curve"/>
      <point x="3" y="21"/>
      <point x="24" y="-6"/>
    </contour>
    <component base="__tail-cy" xOffset="471"/>
  </outline>
</glyph>
<glyph name="Dzeabkhasian-cy" format="2">
  <advance width="562"/>
  <unicode hex="04E0"/>
  <outline>
    <contour>
      <point x="210" y="-9" type="curve" smooth="yes"/>
      <point x="418" y="-9"/>
      <point x="501" y="59"/>
      <point x="527" y="179" type="curve" smooth="yes"/>
      <point x="553" y="299"/>
      <point x="503" y="386"/>
      <point x="346" y="401" type="curve"/>
      <point x="290" y="327" type="line"/>
      <point x="387" y="407"/>
      <point x="478" y="501"/>
      <point x="558" y="601" type="curve"/>
      <point x="561" y="636"/>
      <point x="557" y="659"/>
      <point x="545" y="679" type="curve"/>
      <point x="493" y="676"/>
      <point x="398" y="676"/>
      <point x="336" y="676" type="curve" smooth="yes"/>
      <point x="279" y="676"/>
      <point x="189" y="676"/>
      <point x="122" y="679" type="curve"/>
      <point x="114" y="615"/>
      <point x="94" y="525"/>
      <point x="70" y="460" type="curve"/>
      <point x="92" y="443"/>
      <point x="129" y="429"/>
      <point x="171" y="429" type="curve"/>
      <point x="195" y="498"/>
      <point x="210" y="518"/>
      <point x="285" y="518" type="curve" smooth="yes"/>
      <point x="425" y="518" type="line"/>
      <point x="373" y="532" type="line"/>
      <point x="321" y="465"/>
      <point x="257" y="398"/>
      <point x="202" y="357" type="curve"/>
      <point x="198" y="327"/>
      <point x="203" y="293"/>
      <point x="214" y="276" type="curve"/>
      <point x="297" y="265"/>
      <point x="335" y="234"/>
      <point x="324" y="169" type="curve" smooth="yes"/>
      <point x="314" y="112"/>
      <point x="274" y="75"/>
      <point x="218" y="75" type="curve" smooth="yes"/>
      <point x="158" y="75"/>
      <point x="146" y="118"/>
      <point x="156" y="220" type="curve"/>
      <point x="117" y="227"/>
      <point x="74" y="228"/>
      <point x="35" y="225" type="curve"/>
      <point x="26" y="169"/>
      <point x="13" y="108"/>
      <point x="-5" y="56" type="curve"/>
      <point x="49" y="13"/>
      <point x="92" y="-9"/>
    </contour>
  </outline>
</glyph>
<glyph name="dzeabkhasian-cy" format="2">
  <advance width="513"/>
  <unicode hex="04E1"/>
  <anchor x="108" y="-242" name="bottom"/>
  <anchor x="289" y="243" name="center"/>
  <anchor x="287" y="458" name="top"/>
  <outline>
    <contour>
      <point x="115" y="-248" type="curve" smooth="yes"/>
      <point x="302" y="-248"/>
      <point x="405" y="-165"/>
      <point x="430" y="-38" type="curve" smooth="yes"/>
      <point x="455" y="90"/>
      <point x="395" y="148"/>
      <point x="282" y="152" type="curve"/>
      <point x="280" y="107" type="line"/>
      <point x="363" y="202"/>
      <point x="435" y="295"/>
      <point x="497" y="381" type="curve"/>
      <point x="502" y="416"/>
      <point x="500" y="444"/>
      <point x="490" y="461" type="curve"/>
      <point x="440" y="458"/>
      <point x="384" y="458"/>
      <point x="298" y="458" type="curve" smooth="yes"/>
      <point x="207" y="458"/>
      <point x="145" y="458"/>
      <point x="84" y="461" type="curve"/>
      <point x="77" y="413"/>
      <point x="61" y="353"/>
      <point x="46" y="314" type="curve"/>
      <point x="69" y="293"/>
      <point x="106" y="280"/>
      <point x="148" y="278" type="curve"/>
      <point x="173" y="357"/>
      <point x="197" y="383"/>
      <point x="249" y="383" type="curve" smooth="yes"/>
      <point x="403" y="383" type="line"/>
      <point x="304" y="412" type="line"/>
      <point x="258" y="335"/>
      <point x="171" y="223"/>
      <point x="90" y="140" type="curve"/>
      <point x="87" y="109"/>
      <point x="93" y="79"/>
      <point x="105" y="60" type="curve"/>
      <point x="125" y="63"/>
      <point x="147" y="67"/>
      <point x="169" y="67" type="curve" smooth="yes"/>
      <point x="235" y="67"/>
      <point x="257" y="31"/>
      <point x="245" y="-30" type="curve" smooth="yes"/>
      <point x="229" y="-112"/>
      <point x="181" y="-167"/>
      <point x="124" y="-167" type="curve" smooth="yes"/>
      <point x="83" y="-167"/>
      <point x="64" y="-142"/>
      <point x="66" y="-77" type="curve"/>
      <point x="35" y="-70"/>
      <point x="-9" y="-72"/>
      <point x="-34" y="-79" type="curve"/>
      <point x="-35" y="-115"/>
      <point x="-45" y="-165"/>
      <point x="-56" y="-203" type="curve"/>
      <point x="-13" y="-231"/>
      <point x="40" y="-248"/>
    </contour>
  </outline>
</glyph>
<glyph name="Hahook-cy" format="2">
  <advance width="685"/>
  <unicode hex="04FC"/>
  <outline>
    <contour>
      <point x="343" y="-246" type="curve"/>
      <point x="491" y="-207"/>
      <point x="607" y="-111"/>
      <point x="636" y="8" type="curve" smooth="yes"/>
      <point x="653" y="80"/>
      <point x="638" y="152"/>
      <point x="591" y="227" type="curve" smooth="yes"/>
      <point x="411" y="513" type="line" smooth="yes"/>
      <point x="372" y="574"/>
      <point x="383" y="592"/>
      <point x="427" y="601" type="curve"/>
      <point x="434" y="620"/>
      <point x="440" y="647"/>
      <point x="441" y="679" type="curve"/>
      <point x="378" y="676"/>
      <point x="299" y="676"/>
      <point x="263" y="676" type="curve" smooth="yes"/>
      <point x="234" y="676"/>
      <point x="145" y="676"/>
      <point x="93" y="679" type="curve"/>
      <point x="89" y="649"/>
      <point x="90" y="620"/>
      <point x="94" y="601" type="curve"/>
      <point x="124" y="593"/>
      <point x="134" y="588"/>
      <point x="189" y="498" type="curve" smooth="yes"/>
      <point x="404" y="146" type="line" smooth="yes"/>
      <point x="444" y="80"/>
      <point x="451" y="35"/>
      <point x="442" y="-8" type="curve" smooth="yes"/>
      <point x="428" y="-73"/>
      <point x="377" y="-142"/>
      <point x="312" y="-167" type="curve"/>
      <point x="312" y="-203"/>
      <point x="322" y="-228"/>
    </contour>
    <contour>
      <point x="-32" y="-3" type="curve"/>
      <point x="10" y="0"/>
      <point x="62" y="0"/>
      <point x="98" y="0" type="curve" smooth="yes"/>
      <point x="128" y="0"/>
      <point x="182" y="0"/>
      <point x="245" y="-3" type="curve"/>
      <point x="249" y="25"/>
      <point x="249" y="51"/>
      <point x="244" y="75" type="curve"/>
      <point x="185" y="81"/>
      <point x="182" y="110"/>
      <point x="230" y="165" type="curve" smooth="yes"/>
      <point x="273" y="214"/>
      <point x="296" y="243"/>
      <point x="334" y="295" type="curve"/>
      <point x="286" y="358" type="line"/>
      <point x="249" y="301"/>
      <point x="164" y="200"/>
      <point x="126" y="158" type="curve" smooth="yes"/>
      <point x="77" y="103"/>
      <point x="45" y="84"/>
      <point x="-18" y="75" type="curve"/>
      <point x="-26" y="52"/>
      <point x="-31" y="24"/>
    </contour>
    <contour>
      <point x="453" y="323" type="line"/>
      <point x="516" y="392"/>
      <point x="545" y="429"/>
      <point x="616" y="520" type="curve" smooth="yes"/>
      <point x="664" y="582"/>
      <point x="688" y="592"/>
      <point x="734" y="601" type="curve"/>
      <point x="742" y="624"/>
      <point x="747" y="652"/>
      <point x="748" y="679" type="curve"/>
      <point x="706" y="676"/>
      <point x="669" y="676"/>
      <point x="632" y="676" type="curve" smooth="yes"/>
      <point x="603" y="676"/>
      <point x="548" y="676"/>
      <point x="515" y="679" type="curve"/>
      <point x="511" y="651"/>
      <point x="511" y="625"/>
      <point x="516" y="601" type="curve"/>
      <point x="549" y="594"/>
      <point x="556" y="572"/>
      <point x="497" y="498" type="curve" smooth="yes"/>
      <point x="442" y="429"/>
      <point x="419" y="400"/>
      <point x="390" y="369" type="curve"/>
    </contour>
  </outline>
</glyph>
<glyph name="elhook-cy" format="2">
  <advance width="624"/>
  <unicode hex="0513"/>
  <outline>
    <contour>
      <point x="248" y="-246" type="curve"/>
      <point x="439" y="-183"/>
      <point x="519" y="-102"/>
      <point x="563" y="125" type="curve" smooth="yes"/>
      <point x="627" y="458" type="line"/>
      <point x="460" y="458" type="line" smooth="yes"/>
      <point x="356" y="458"/>
      <point x="317" y="413"/>
      <point x="259" y="282" type="curve" smooth="yes"/>
      <point x="200" y="149"/>
      <point x="171" y="118"/>
      <point x="108" y="118" type="curve" smooth="yes"/>
      <point x="73" y="118"/>
      <point x="32" y="125"/>
      <point x="18" y="141" type="curve"/>
      <point x="2" y="113"/>
      <point x="-8" y="74"/>
      <point x="-6" y="60" type="curve"/>
      <point x="6" y="22"/>
      <point x="37" y="-6"/>
      <point x="100" y="-6" type="curve" smooth="yes"/>
      <point x="207" y="-6"/>
      <point x="249" y="73"/>
      <point x="308" y="222" type="curve" smooth="yes"/>
      <point x="367" y="370"/>
      <point x="392" y="383"/>
      <point x="425" y="383" type="curve"/>
      <point x="424" y="404" type="line"/>
      <point x="360" y="52" type="line" smooth="yes"/>
      <point x="338" y="-70"/>
      <point x="286" y="-132"/>
      <point x="217" y="-167" type="curve"/>
      <point x="217" y="-203"/>
      <point x="227" y="-228"/>
    </contour>
  </outline>
</glyph>
<glyph name="quotedblrightreversed" format="2">
  <advance width="505"/>
  <unicode hex="201F"/>
  <outline>
    <contour>
      <point x="201" y="717" type="curve"/>
      <point x="172" y="706"/>
      <point x="139" y="675"/>
      <point x="123" y="597" type="curve" smooth="yes"/>
      <point x="106" y="518"/>
      <point x="118" y="440"/>
      <point x="170" y="387" type="curve"/>
      <point x="202" y="391"/>
      <point x="228" y="404"/>
      <point x="247" y="424" type="curve"/>
      <point x="202" y="494"/>
      <point x="219" y="555"/>
      <point x="302" y="570" type="curve"/>
      <point x="318" y="611"/>
      <point x="323" y="647"/>
      <point x="315" y="680" type="curve"/>
      <point x="263" y="682"/>
      <point x="227" y="697"/>
    </contour>
    <contour>
      <point x="416" y="717" type="curve"/>
      <point x="374" y="701"/>
      <point x="347" y="660"/>
      <point x="335" y="578" type="curve" smooth="yes"/>
      <point x="323" y="505"/>
      <point x="337" y="431"/>
      <point x="374" y="394" type="curve"/>
      <point x="406" y="398"/>
      <point x="432" y="411"/>
      <point x="451" y="431" type="curve"/>
      <point x="404" y="503"/>
      <point x="434" y="560"/>
      <point x="516" y="570" type="curve"/>
      <point x="532" y="611"/>
      <point x="537" y="647"/>
      <point x="529" y="680" type="curve"/>
      <point x="477" y="682"/>
      <point x="442" y="697"/>
    </contour>
  </outline>
</glyph>
<glyph name="dagger" format="2">
  <advance width="494"/>
  <unicode hex="2020"/>
  <outline>
    <contour>
      <point x="485" y="458" type="curve"/>
      <point x="90" y="458" type="line"/>
      <point x="74" y="426"/>
      <point x="66" y="389"/>
      <point x="66" y="343" type="curve"/>
      <point x="131" y="356"/>
      <point x="186" y="364"/>
      <point x="276" y="371" type="curve"/>
      <point x="352" y="368"/>
      <point x="397" y="361"/>
      <point x="451" y="344" type="curve"/>
      <point x="471" y="376"/>
      <point x="483" y="417"/>
    </contour>
    <contour>
      <point x="308" y="329"/>
      <point x="383" y="604" type="curve" smooth="yes"/>
      <point x="394" y="644"/>
      <point x="390" y="661"/>
      <point x="360" y="674" type="curve"/>
      <point x="324" y="655"/>
      <point x="293" y="646"/>
      <point x="244" y="645" type="curve"/>
      <point x="218" y="352"/>
      <point x="178" y="59"/>
      <point x="125" y="-221" type="curve"/>
      <point x="143" y="-242"/>
      <point x="166" y="-248"/>
      <point x="197" y="-250" type="curve"/>
      <point x="246" y="47"/>
    </contour>
  </outline>
</glyph>
<glyph name="daggerdbl" format="2">
  <advance width="476"/>
  <unicode hex="2021"/>
  <outline>
    <contour>
      <point x="485" y="458" type="curve"/>
      <point x="90" y="458" type="line"/>
      <point x="74" y="426"/>
      <point x="66" y="389"/>
      <point x="66" y="343" type="curve"/>
      <point x="131" y="356"/>
      <point x="186" y="364"/>
      <point x="276" y="371" type="curve"/>
      <point x="352" y="368"/>
      <point x="397" y="361"/>
      <point x="451" y="344" type="curve"/>
      <point x="471" y="376"/>
      <point x="483" y="417"/>
    </contour>
    <contour>
      <point x="2" y="0" type="curve"/>
      <point x="397" y="0" type="line"/>
      <point x="413" y="32"/>
      <point x="421" y="69"/>
      <point x="421" y="115" type="curve"/>
      <point x="356" y="102"/>
      <point x="301" y="94"/>
      <point x="211" y="87" type="curve"/>
      <point x="135" y="90"/>
      <point x="90" y="97"/>
      <point x="36" y="114" type="curve"/>
      <point x="16" y="82"/>
      <point x="4" y="41"/>
    </contour>
    <contour>
      <point x="179" y="233" type="curve"/>
      <point x="189" y="208"/>
      <point x="190" y="176"/>
      <point x="177" y="116" type="curve" smooth="yes"/>
      <point x="166" y="59"/>
      <point x="142" y="-23"/>
      <point x="104" y="-147" type="curve" smooth="yes"/>
      <point x="92" y="-187"/>
      <point x="97" y="-204"/>
      <point x="127" y="-217" type="curve"/>
      <point x="163" y="-198"/>
      <point x="194" y="-189"/>
      <point x="243" y="-188" type="curve"/>
      <point x="252" y="-41"/>
      <point x="260" y="53"/>
      <point x="269" y="115" type="curve" smooth="yes"/>
      <point x="279" y="178"/>
      <point x="291" y="207"/>
      <point x="308" y="224" type="curve"/>
      <point x="298" y="250"/>
      <point x="297" y="283"/>
      <point x="311" y="348" type="curve" smooth="yes"/>
      <point x="323" y="404"/>
      <point x="346" y="485"/>
      <point x="383" y="604" type="curve" smooth="yes"/>
      <point x="395" y="644"/>
      <point x="390" y="661"/>
      <point x="360" y="674" type="curve"/>
      <point x="324" y="655"/>
      <point x="293" y="646"/>
      <point x="244" y="645" type="curve"/>
      <point x="235" y="505"/>
      <point x="228" y="413"/>
      <point x="219" y="351" type="curve" smooth="yes"/>
      <point x="209" y="282"/>
      <point x="197" y="251"/>
    </contour>
  </outline>
</glyph>
<glyph name="tripleprime" format="2">
  <advance width="677"/>
  <unicode hex="2034"/>
  <outline>
    <contour>
      <point x="580" y="411" type="curve"/>
      <point x="626" y="507"/>
      <point x="672" y="581"/>
      <point x="706" y="655" type="curve" smooth="yes"/>
      <point x="719" y="683"/>
      <point x="718" y="711"/>
      <point x="695" y="717" type="curve"/>
      <point x="668" y="704"/>
      <point x="626" y="691"/>
      <point x="581" y="687" type="curve"/>
      <point x="567" y="611"/>
      <point x="540" y="515"/>
      <point x="509" y="426" type="curve"/>
      <point x="530" y="416"/>
      <point x="553" y="411"/>
    </contour>
    <contour>
      <point x="160" y="411" type="curve"/>
      <point x="206" y="507"/>
      <point x="252" y="581"/>
      <point x="286" y="655" type="curve" smooth="yes"/>
      <point x="299" y="683"/>
      <point x="298" y="711"/>
      <point x="275" y="717" type="curve"/>
      <point x="248" y="704"/>
      <point x="206" y="691"/>
      <point x="161" y="687" type="curve"/>
      <point x="147" y="611"/>
      <point x="120" y="515"/>
      <point x="89" y="426" type="curve"/>
      <point x="110" y="416"/>
      <point x="133" y="411"/>
    </contour>
    <contour>
      <point x="370" y="411" type="curve"/>
      <point x="416" y="507"/>
      <point x="462" y="581"/>
      <point x="496" y="655" type="curve" smooth="yes"/>
      <point x="509" y="683"/>
      <point x="508" y="711"/>
      <point x="485" y="717" type="curve"/>
      <point x="458" y="704"/>
      <point x="416" y="691"/>
      <point x="371" y="687" type="curve"/>
      <point x="357" y="611"/>
      <point x="330" y="515"/>
      <point x="299" y="426" type="curve"/>
      <point x="320" y="416"/>
      <point x="343" y="411"/>
    </contour>
  </outline>
</glyph>
<glyph name="primeReversed" format="2">
  <advance width="299"/>
  <unicode hex="2035"/>
  <outline>
    <contour>
      <point x="275" y="680" type="curve" smooth="yes"/>
      <point x="273" y="702"/>
      <point x="259" y="713"/>
      <point x="239" y="716" type="curve"/>
      <point x="216" y="701"/>
      <point x="180" y="690"/>
      <point x="139" y="681" type="curve"/>
      <point x="169" y="604"/>
      <point x="192" y="510"/>
      <point x="208" y="419" type="curve"/>
      <point x="229" y="412"/>
      <point x="259" y="411"/>
      <point x="284" y="416" type="curve"/>
      <point x="267" y="585"/>
      <point x="280" y="651"/>
    </contour>
  </outline>
</glyph>
<glyph name="interrobang" format="2">
  <advance width="655.526"/>
  <unicode hex="203D"/>
  <outline>
    <contour>
      <point x="442" y="717" type="curve" smooth="yes"/>
      <point x="369" y="717"/>
      <point x="252" y="702"/>
      <point x="194" y="672" type="curve"/>
      <point x="191" y="624"/>
      <point x="183" y="584"/>
      <point x="166" y="529" type="curve"/>
      <point x="192" y="513"/>
      <point x="219" y="506"/>
      <point x="263" y="506" type="curve"/>
      <point x="296" y="613"/>
      <point x="350" y="640"/>
      <point x="413" y="640" type="curve" smooth="yes"/>
      <point x="470" y="640"/>
      <point x="519" y="618"/>
      <point x="501" y="534" type="curve" smooth="yes"/>
      <point x="480" y="434"/>
      <point x="402" y="424"/>
      <point x="368" y="299" type="curve"/>
      <point x="390" y="421"/>
      <point x="450" y="458"/>
      <point x="466" y="532" type="curve" smooth="yes"/>
      <point x="474" y="571"/>
      <point x="465" y="594"/>
      <point x="438" y="602" type="curve"/>
      <point x="409" y="585"/>
      <point x="353" y="568"/>
      <point x="312" y="563" type="curve"/>
      <point x="312" y="475"/>
      <point x="326" y="379"/>
      <point x="313" y="258" type="curve"/>
      <point x="340" y="245"/>
      <point x="378" y="242"/>
      <point x="414" y="245" type="curve"/>
      <point x="462" y="381"/>
      <point x="649" y="392"/>
      <point x="679" y="530" type="curve" smooth="yes"/>
      <point x="701" y="632"/>
      <point x="618" y="717"/>
    </contour>
    <component base="_part.dot" xOffset="217" yOffset="-1"/>
  </outline>
</glyph>
<glyph name="undertie" format="2">
  <advance width="675"/>
  <unicode hex="203F"/>
  <outline>
    <contour>
      <point x="277" y="-193" type="curve" smooth="yes"/>
      <point x="404" y="-193"/>
      <point x="517" y="-156"/>
      <point x="579" y="-84" type="curve"/>
      <point x="580" y="-61"/>
      <point x="562" y="-33"/>
      <point x="541" y="-18" type="curve"/>
      <point x="480" y="-59"/>
      <point x="420" y="-91"/>
      <point x="277" y="-91" type="curve" smooth="yes"/>
      <point x="134" y="-91"/>
      <point x="74" y="-59"/>
      <point x="13" y="-18" type="curve"/>
      <point x="-8" y="-33"/>
      <point x="-26" y="-61"/>
      <point x="-25" y="-84" type="curve"/>
      <point x="37" y="-156"/>
      <point x="150" y="-193"/>
    </contour>
  </outline>
</glyph>
<glyph name="paragraphreversed" format="2">
  <advance width="584"/>
  <unicode hex="204B"/>
  <outline>
    <contour>
      <point x="-44" y="-249" type="curve"/>
      <point x="-14" y="-249"/>
      <point x="20" y="-248"/>
      <point x="49" y="-237" type="curve"/>
      <point x="249" y="641" type="line"/>
      <point x="219" y="601" type="line"/>
      <point x="254" y="608"/>
      <point x="282" y="609"/>
      <point x="307" y="609" type="curve" smooth="yes"/>
      <point x="421" y="609"/>
      <point x="451" y="588"/>
      <point x="424" y="478" type="curve" smooth="yes"/>
      <point x="411" y="425"/>
      <point x="385" y="354"/>
      <point x="315" y="354" type="curve"/>
      <point x="298" y="282" type="line"/>
      <point x="306" y="281"/>
      <point x="326" y="279"/>
      <point x="349" y="279" type="curve" smooth="yes"/>
      <point x="497" y="279"/>
      <point x="598" y="361"/>
      <point x="621" y="487" type="curve" smooth="yes"/>
      <point x="644" y="616"/>
      <point x="564" y="681"/>
      <point x="353" y="681" type="curve" smooth="yes"/>
      <point x="301" y="681"/>
      <point x="251" y="677"/>
      <point x="204" y="677" type="curve" smooth="yes"/>
      <point x="174" y="677"/>
      <point x="145" y="677"/>
      <point x="114" y="679" type="curve"/>
      <point x="103" y="653"/>
      <point x="96" y="623"/>
      <point x="96" y="601" type="curve"/>
      <point x="134" y="596"/>
      <point x="137" y="582"/>
      <point x="120" y="501" type="curve" smooth="yes"/>
      <point x="54" y="188"/>
      <point x="31" y="72"/>
    </contour>
    <contour>
      <point x="96" y="-249" type="curve"/>
      <point x="126" y="-249"/>
      <point x="160" y="-245"/>
      <point x="191" y="-230" type="curve"/>
      <point x="385" y="621" type="line"/>
      <point x="296" y="620" type="line"/>
      <point x="232" y="318"/>
      <point x="172" y="64"/>
    </contour>
  </outline>
</glyph>
<glyph name="dong" format="2">
  <advance width="620"/>
  <unicode hex="20AB"/>
  <outline>
    <contour>
      <point x="187" y="98" type="curve" smooth="yes"/>
      <point x="257" y="98"/>
      <point x="328" y="123"/>
      <point x="364" y="216" type="curve"/>
      <point x="370" y="215" type="line"/>
      <point x="365" y="201"/>
      <point x="361" y="189"/>
      <point x="360" y="178" type="curve" smooth="yes"/>
      <point x="356" y="143"/>
      <point x="372" y="98"/>
      <point x="462" y="98" type="curve" smooth="yes"/>
      <point x="511" y="98"/>
      <point x="566" y="111"/>
      <point x="603" y="145" type="curve"/>
      <point x="598" y="169"/>
      <point x="579" y="201"/>
      <point x="565" y="213" type="curve"/>
      <point x="548" y="208"/>
      <point x="540" y="207"/>
      <point x="534" y="207" type="curve" smooth="yes"/>
      <point x="518" y="207"/>
      <point x="516" y="214"/>
      <point x="524" y="256" type="curve" smooth="yes"/>
      <point x="590" y="625" type="line" smooth="yes"/>
      <point x="597" y="664"/>
      <point x="588" y="689"/>
      <point x="558" y="717" type="curve"/>
      <point x="494" y="691"/>
      <point x="415" y="685"/>
      <point x="333" y="683" type="curve"/>
      <point x="326" y="660"/>
      <point x="325" y="632"/>
      <point x="327" y="608" type="curve"/>
      <point x="394" y="608"/>
      <point x="399" y="588"/>
      <point x="392" y="547" type="curve" smooth="yes"/>
      <point x="383" y="497"/>
      <point x="376" y="457"/>
      <point x="382" y="434" type="curve"/>
      <point x="364" y="415" type="line"/>
      <point x="358" y="380" type="line" smooth="yes"/>
      <point x="336" y="251"/>
      <point x="291" y="226"/>
      <point x="256" y="226" type="curve" smooth="yes"/>
      <point x="216" y="226"/>
      <point x="208" y="259"/>
      <point x="220" y="308" type="curve" smooth="yes"/>
      <point x="232" y="357"/>
      <point x="256" y="388"/>
      <point x="305" y="388" type="curve" smooth="yes"/>
      <point x="325" y="388"/>
      <point x="350" y="383"/>
      <point x="363" y="379" type="curve"/>
      <point x="425" y="437" type="line"/>
      <point x="402" y="446"/>
      <point x="348" y="458"/>
      <point x="283" y="458" type="curve" smooth="yes"/>
      <point x="135" y="458"/>
      <point x="44" y="395"/>
      <point x="19" y="306" type="curve" smooth="yes"/>
      <point x="-6" y="215"/>
      <point x="35" y="98"/>
    </contour>
    <contour>
      <point x="4" y="0" type="curve"/>
      <point x="556" y="0" type="line"/>
      <point x="566" y="22"/>
      <point x="571" y="48"/>
      <point x="569" y="71" type="curve"/>
      <point x="430" y="65"/>
      <point x="123" y="65"/>
      <point x="18" y="65" type="curve"/>
      <point x="7" y="45"/>
      <point x="2" y="23"/>
    </contour>
    <contour>
      <point x="254" y="497" type="curve"/>
      <point x="356" y="505"/>
      <point x="417" y="505"/>
      <point x="625" y="505" type="curve"/>
      <point x="639" y="529"/>
      <point x="639" y="548"/>
      <point x="637" y="572" type="curve"/>
      <point x="272" y="572" type="line"/>
      <point x="253" y="549"/>
      <point x="248" y="520"/>
    </contour>
  </outline>
</glyph>
<glyph name="manat" format="2">
  <advance width="807"/>
  <unicode hex="20BC"/>
  <outline>
    <contour>
      <point x="0" y="-3" type="curve"/>
      <point x="28" y="-1"/>
      <point x="75" y="0"/>
      <point x="113" y="0" type="curve" smooth="yes"/>
      <point x="153" y="0"/>
      <point x="217" y="-1"/>
      <point x="249" y="-3" type="curve"/>
      <point x="254" y="21"/>
      <point x="257" y="48"/>
      <point x="258" y="75" type="curve"/>
      <point x="199" y="85"/>
      <point x="187" y="110"/>
      <point x="206" y="209" type="curve" smooth="yes"/>
      <point x="239" y="379" type="line" smooth="yes"/>
      <point x="269" y="534"/>
      <point x="331" y="604"/>
      <point x="423" y="604" type="curve" smooth="yes"/>
      <point x="520" y="604"/>
      <point x="554" y="526"/>
      <point x="524" y="370" type="curve" smooth="yes"/>
      <point x="489" y="190" type="line" smooth="yes"/>
      <point x="472" y="100"/>
      <point x="460" y="84"/>
      <point x="391" y="75" type="curve"/>
      <point x="384" y="52"/>
      <point x="379" y="29"/>
      <point x="375" y="-3" type="curve"/>
      <point x="411" y="-1"/>
      <point x="523" y="0"/>
      <point x="579" y="0" type="curve" smooth="yes"/>
      <point x="638" y="0"/>
      <point x="700" y="-1"/>
      <point x="731" y="-3" type="curve"/>
      <point x="737" y="27"/>
      <point x="739" y="54"/>
      <point x="738" y="75" type="curve"/>
      <point x="679" y="84"/>
      <point x="667" y="98"/>
      <point x="685" y="190" type="curve" smooth="yes"/>
      <point x="724" y="387" type="line" smooth="yes"/>
      <point x="762" y="580"/>
      <point x="682" y="685"/>
      <point x="488" y="685" type="curve" smooth="yes"/>
      <point x="297" y="685"/>
      <point x="189" y="584"/>
      <point x="147" y="369" type="curve" smooth="yes"/>
      <point x="114" y="200" type="line" smooth="yes"/>
      <point x="96" y="108"/>
      <point x="77" y="82"/>
      <point x="17" y="75" type="curve"/>
      <point x="10" y="53"/>
      <point x="4" y="26"/>
    </contour>
    <contour>
      <point x="375" y="108" type="curve"/>
      <point x="390" y="186"/>
      <point x="380" y="141"/>
      <point x="437" y="437" type="curve" smooth="yes"/>
      <point x="454" y="527"/>
      <point x="470" y="606"/>
      <point x="498" y="738" type="curve"/>
      <point x="486" y="747"/>
      <point x="444" y="753"/>
      <point x="412" y="753" type="curve"/>
      <point x="289" y="119" type="line"/>
      <point x="307" y="111"/>
      <point x="346" y="108"/>
    </contour>
  </outline>
</glyph>
<glyph name="trademark" format="2">
  <advance width="1051"/>
  <unicode hex="2122"/>
  <outline>
    <contour>
      <point x="684" y="400" type="line"/>
      <point x="699" y="400"/>
      <point x="724" y="401"/>
      <point x="735" y="405" type="curve"/>
      <point x="892" y="675" type="line"/>
      <point x="874" y="675" type="line"/>
      <point x="861" y="524" type="line" smooth="yes"/>
      <point x="858" y="488"/>
      <point x="851" y="479"/>
      <point x="826" y="476" type="curve"/>
      <point x="820" y="454"/>
      <point x="817" y="428"/>
      <point x="816" y="402" type="curve"/>
      <point x="826" y="403"/>
      <point x="877" y="405"/>
      <point x="907" y="405" type="curve" smooth="yes"/>
      <point x="937" y="405"/>
      <point x="1023" y="404"/>
      <point x="1034" y="403" type="curve"/>
      <point x="1034" y="428"/>
      <point x="1033" y="454"/>
      <point x="1029" y="476" type="curve"/>
      <point x="1000" y="480"/>
      <point x="997" y="490"/>
      <point x="1001" y="529" type="curve" smooth="yes"/>
      <point x="1011" y="640" type="line" smooth="yes"/>
      <point x="1014" y="669"/>
      <point x="1023" y="682"/>
      <point x="1054" y="684" type="curve"/>
      <point x="1060" y="709"/>
      <point x="1062" y="734"/>
      <point x="1061" y="758" type="curve"/>
      <point x="1039" y="757"/>
      <point x="994" y="757"/>
      <point x="966" y="757" type="curve" smooth="yes"/>
      <point x="937" y="757"/>
      <point x="905" y="757"/>
      <point x="883" y="758" type="curve"/>
      <point x="760" y="543" type="line"/>
      <point x="794" y="543" type="line"/>
      <point x="753" y="758" type="line"/>
      <point x="723" y="757"/>
      <point x="665" y="757"/>
      <point x="646" y="757" type="curve" smooth="yes"/>
      <point x="627" y="757"/>
      <point x="591" y="758"/>
      <point x="552" y="759" type="curve"/>
      <point x="552" y="728"/>
      <point x="552" y="708"/>
      <point x="557" y="684" type="curve"/>
      <point x="587" y="683"/>
      <point x="586" y="667"/>
      <point x="578" y="639" type="curve" smooth="yes"/>
      <point x="553" y="550" type="line" smooth="yes"/>
      <point x="536" y="490"/>
      <point x="521" y="477"/>
      <point x="495" y="476" type="curve"/>
      <point x="488" y="453"/>
      <point x="486" y="428"/>
      <point x="486" y="403" type="curve"/>
      <point x="494" y="404"/>
      <point x="534" y="405"/>
      <point x="560" y="405" type="curve" smooth="yes"/>
      <point x="587" y="405"/>
      <point x="612" y="404"/>
      <point x="618" y="403" type="curve"/>
      <point x="618" y="428"/>
      <point x="617" y="452"/>
      <point x="613" y="476" type="curve"/>
      <point x="586" y="478"/>
      <point x="582" y="492"/>
      <point x="602" y="557" type="curve" smooth="yes"/>
      <point x="639" y="679" type="line"/>
      <point x="619" y="679" type="line"/>
    </contour>
    <contour>
      <point x="150" y="403" type="curve"/>
      <point x="175" y="404"/>
      <point x="245" y="405"/>
      <point x="304" y="405" type="curve" smooth="yes"/>
      <point x="363" y="405"/>
      <point x="410" y="404"/>
      <point x="427" y="403" type="curve"/>
      <point x="427" y="428"/>
      <point x="426" y="453"/>
      <point x="422" y="475" type="curve"/>
      <point x="374" y="477"/>
      <point x="369" y="495"/>
      <point x="380" y="552" type="curve" smooth="yes"/>
      <point x="415" y="736" type="line"/>
      <point x="274" y="736" type="line"/>
      <point x="239" y="552" type="line" smooth="yes"/>
      <point x="228" y="493"/>
      <point x="213" y="477"/>
      <point x="160" y="475" type="curve"/>
      <point x="152" y="453"/>
      <point x="150" y="428"/>
    </contour>
    <contour>
      <point x="204" y="635" type="curve"/>
      <point x="224" y="687"/>
      <point x="251" y="705"/>
      <point x="279" y="705" type="curve" smooth="yes"/>
      <point x="404" y="705" type="line" smooth="yes"/>
      <point x="435" y="705"/>
      <point x="443" y="688"/>
      <point x="448" y="635" type="curve"/>
      <point x="478" y="633"/>
      <point x="503" y="637"/>
      <point x="523" y="646" type="curve"/>
      <point x="519" y="679"/>
      <point x="521" y="726"/>
      <point x="526" y="758" type="curve"/>
      <point x="473" y="757"/>
      <point x="437" y="757"/>
      <point x="349" y="757" type="curve" smooth="yes"/>
      <point x="244" y="757"/>
      <point x="219" y="756"/>
      <point x="167" y="758" type="curve"/>
      <point x="158" y="718"/>
      <point x="146" y="679"/>
      <point x="132" y="644" type="curve"/>
      <point x="151" y="634"/>
      <point x="179" y="632"/>
    </contour>
  </outline>
</glyph>
<glyph name="northEastArrow" format="2">
  <advance width="721"/>
  <unicode hex="2197"/>
  <outline>
    <contour>
      <point x="106" y="24" type="curve"/>
      <point x="207" y="138"/>
      <point x="339" y="275"/>
      <point x="508" y="443" type="curve"/>
      <point x="533" y="397"/>
      <point x="548" y="353"/>
      <point x="560" y="300" type="curve"/>
      <point x="570" y="299"/>
      <point x="589" y="309"/>
      <point x="600" y="320" type="curve" smooth="yes"/>
      <point x="617" y="337"/>
      <point x="620" y="352"/>
      <point x="620" y="368" type="curve" smooth="yes"/>
      <point x="620" y="450"/>
      <point x="631" y="520"/>
      <point x="671" y="633" type="curve"/>
      <point x="660" y="645"/>
      <point x="630" y="665"/>
      <point x="613" y="670" type="curve"/>
      <point x="560" y="643"/>
      <point x="405" y="612"/>
      <point x="317" y="616" type="curve"/>
      <point x="303" y="585"/>
      <point x="298" y="566"/>
      <point x="312" y="551" type="curve" smooth="yes"/>
      <point x="319" y="543"/>
      <point x="332" y="537"/>
      <point x="350" y="534" type="curve" smooth="yes"/>
      <point x="382" y="529"/>
      <point x="420" y="515"/>
      <point x="447" y="504" type="curve"/>
      <point x="50" y="107" type="line"/>
      <point x="60" y="77"/>
      <point x="78" y="52"/>
    </contour>
  </outline>
</glyph>
<glyph name="downTipLeftArrow" format="2">
  <advance width="719"/>
  <unicode hex="21B2"/>
  <outline>
    <contour>
      <point x="313" y="-77" type="curve"/>
      <point x="345" y="-65"/>
      <point x="362" y="-55"/>
      <point x="362" y="-35" type="curve" smooth="yes"/>
      <point x="362" y="-24"/>
      <point x="358" y="-11"/>
      <point x="348" y="4" type="curve" smooth="yes"/>
      <point x="330" y="32"/>
      <point x="311" y="67"/>
      <point x="300" y="94" type="curve"/>
      <point x="410" y="94"/>
      <point x="521" y="93"/>
      <point x="631" y="88" type="curve"/>
      <point x="617" y="70" type="line"/>
      <point x="616" y="124"/>
      <point x="616" y="179"/>
      <point x="616" y="234" type="curve" smooth="yes"/>
      <point x="616" y="416"/>
      <point x="619" y="597"/>
      <point x="619" y="716" type="curve"/>
      <point x="587" y="716"/>
      <point x="544" y="710"/>
      <point x="530" y="701" type="curve"/>
      <point x="530" y="165" type="line"/>
      <point x="541" y="180" type="line"/>
      <point x="300" y="180" type="line"/>
      <point x="315" y="231"/>
      <point x="335" y="272"/>
      <point x="364" y="318" type="curve"/>
      <point x="358" y="326"/>
      <point x="338" y="332"/>
      <point x="322" y="332" type="curve" smooth="yes"/>
      <point x="298" y="332"/>
      <point x="285" y="324"/>
      <point x="274" y="312" type="curve" smooth="yes"/>
      <point x="219" y="252"/>
      <point x="159" y="213"/>
      <point x="50" y="161" type="curve"/>
      <point x="50" y="145"/>
      <point x="57" y="109"/>
      <point x="65" y="94" type="curve"/>
      <point x="122" y="75"/>
      <point x="254" y="-12"/>
    </contour>
  </outline>
</glyph>
<glyph name="rightDoubleArrow" format="2">
  <advance width="846"/>
  <unicode hex="21D2"/>
  <outline>
    <contour>
      <point x="526" y="-56" type="curve" smooth="yes"/>
      <point x="550" y="-56"/>
      <point x="564" y="-47"/>
      <point x="577" y="-29" type="curve" smooth="yes"/>
      <point x="633" y="49"/>
      <point x="660" y="83"/>
      <point x="796" y="205" type="curve"/>
      <point x="796" y="221"/>
      <point x="789" y="257"/>
      <point x="781" y="272" type="curve"/>
      <point x="725" y="309"/>
      <point x="593" y="442"/>
      <point x="533" y="533" type="curve"/>
      <point x="498" y="520"/>
      <point x="484" y="510"/>
      <point x="484" y="490" type="curve" smooth="yes"/>
      <point x="484" y="481"/>
      <point x="487" y="469"/>
      <point x="502" y="445" type="curve" smooth="yes"/>
      <point x="550" y="368"/>
      <point x="588" y="308"/>
      <point x="636" y="197" type="curve"/>
      <point x="632" y="281" type="line"/>
      <point x="597" y="161"/>
      <point x="550" y="66"/>
      <point x="482" y="-42" type="curve"/>
      <point x="488" y="-50"/>
      <point x="507" y="-56"/>
    </contour>
    <contour>
      <point x="50" y="82" type="curve"/>
      <point x="196" y="90"/>
      <point x="377" y="94"/>
      <point x="606" y="94" type="curve"/>
      <point x="636" y="180" type="line"/>
      <point x="69" y="180" type="line"/>
      <point x="55" y="152"/>
      <point x="50" y="121"/>
    </contour>
    <contour>
      <point x="50" y="288" type="curve"/>
      <point x="636" y="288" type="line"/>
      <point x="606" y="380" type="line"/>
      <point x="69" y="380" type="line"/>
      <point x="55" y="352"/>
      <point x="50" y="327"/>
    </contour>
  </outline>
</glyph>
<glyph name="existential" format="2">
  <advance width="646"/>
  <unicode hex="2203"/>
  <outline>
    <contour>
      <point x="571" y="-3" type="curve"/>
      <point x="577" y="26"/>
      <point x="579" y="56"/>
      <point x="578" y="75" type="curve"/>
      <point x="525" y="79"/>
      <point x="516" y="95"/>
      <point x="534" y="187" type="curve" smooth="yes"/>
      <point x="593" y="491" type="line" smooth="yes"/>
      <point x="610" y="581"/>
      <point x="624" y="593"/>
      <point x="681" y="601" type="curve"/>
      <point x="690" y="621"/>
      <point x="699" y="657"/>
      <point x="703" y="679" type="curve"/>
      <point x="641" y="677"/>
      <point x="507" y="676"/>
      <point x="432" y="676" type="curve" smooth="yes"/>
      <point x="287" y="676"/>
      <point x="218" y="677"/>
      <point x="162" y="679" type="curve"/>
      <point x="152" y="628"/>
      <point x="129" y="548"/>
      <point x="107" y="501" type="curve"/>
      <point x="131" y="491"/>
      <point x="158" y="483"/>
      <point x="204" y="483" type="curve"/>
      <point x="231" y="555"/>
      <point x="266" y="601"/>
      <point x="365" y="601" type="curve" smooth="yes"/>
      <point x="414" y="601" type="line"/>
      <point x="370" y="374" type="line"/>
      <point x="369" y="374" type="line" smooth="yes"/>
      <point x="304" y="374"/>
      <point x="293" y="393"/>
      <point x="302" y="445" type="curve"/>
      <point x="281" y="454"/>
      <point x="246" y="457"/>
      <point x="216" y="457" type="curve"/>
      <point x="212" y="425"/>
      <point x="207" y="390"/>
      <point x="198" y="340" type="curve" smooth="yes"/>
      <point x="187" y="284"/>
      <point x="178" y="250"/>
      <point x="170" y="221" type="curve"/>
      <point x="207" y="221"/>
      <point x="234" y="223"/>
      <point x="258" y="231" type="curve"/>
      <point x="274" y="286"/>
      <point x="296" y="299"/>
      <point x="355" y="299" type="curve" smooth="yes"/>
      <point x="356" y="299" type="line"/>
      <point x="335" y="192" type="line" smooth="yes"/>
      <point x="317" y="100"/>
      <point x="294" y="75"/>
      <point x="234" y="75" type="curve" smooth="yes"/>
      <point x="217" y="75" type="line" smooth="yes"/>
      <point x="149" y="75"/>
      <point x="121" y="115"/>
      <point x="114" y="211" type="curve"/>
      <point x="69" y="207"/>
      <point x="25" y="193"/>
      <point x="5" y="177" type="curve"/>
      <point x="11" y="131"/>
      <point x="9" y="63"/>
      <point x="1" y="-2" type="curve"/>
      <point x="60" y="-1"/>
      <point x="178" y="0"/>
      <point x="262" y="0" type="curve" smooth="yes"/>
      <point x="332" y="0"/>
      <point x="525" y="-2"/>
    </contour>
  </outline>
</glyph>
<glyph name="emptyset" format="2">
  <advance width="550"/>
  <unicode hex="2205"/>
  <outline>
    <contour>
      <point x="64" y="-10" type="curve"/>
      <point x="550" y="477" type="line"/>
      <point x="537" y="502"/>
      <point x="515" y="519"/>
      <point x="482" y="526" type="curve"/>
      <point x="15" y="60" type="line"/>
      <point x="22" y="29"/>
      <point x="39" y="6"/>
    </contour>
    <component base="heavyCircle"/>
  </outline>
</glyph>
<glyph name="product" format="2">
  <advance width="802"/>
  <unicode hex="220F"/>
  <outline>
    <contour>
      <point x="-31" y="-103" type="curve"/>
      <point x="17" y="-101"/>
      <point x="90" y="-100"/>
      <point x="159" y="-100" type="curve" smooth="yes"/>
      <point x="228" y="-100"/>
      <point x="288" y="-101"/>
      <point x="317" y="-103" type="curve"/>
      <point x="320" y="-77"/>
      <point x="322" y="-43"/>
      <point x="321" y="-25" type="curve"/>
      <point x="267" y="-21"/>
      <point x="258" y="-5"/>
      <point x="276" y="87" type="curve" smooth="yes"/>
      <point x="355" y="491" type="line" smooth="yes"/>
      <point x="367" y="554"/>
      <point x="377" y="580"/>
      <point x="402" y="592" type="curve" smooth="yes"/>
      <point x="412" y="597"/>
      <point x="425" y="601"/>
      <point x="473" y="601" type="curve" smooth="yes"/>
      <point x="521" y="601"/>
      <point x="534" y="597"/>
      <point x="542" y="592" type="curve" smooth="yes"/>
      <point x="561" y="580"/>
      <point x="561" y="554"/>
      <point x="549" y="491" type="curve" smooth="yes"/>
      <point x="470" y="87" type="line" smooth="yes"/>
      <point x="452" y="-5"/>
      <point x="439" y="-21"/>
      <point x="385" y="-25" type="curve"/>
      <point x="377" y="-44"/>
      <point x="366" y="-79"/>
      <point x="363" y="-103" type="curve"/>
      <point x="411" y="-101"/>
      <point x="484" y="-100"/>
      <point x="553" y="-100" type="curve" smooth="yes"/>
      <point x="622" y="-100"/>
      <point x="682" y="-101"/>
      <point x="711" y="-103" type="curve"/>
      <point x="714" y="-77"/>
      <point x="716" y="-43"/>
      <point x="715" y="-25" type="curve"/>
      <point x="661" y="-21"/>
      <point x="652" y="-5"/>
      <point x="670" y="87" type="curve" smooth="yes"/>
      <point x="749" y="491" type="line" smooth="yes"/>
      <point x="767" y="581"/>
      <point x="779" y="595"/>
      <point x="835" y="601" type="curve"/>
      <point x="848" y="627"/>
      <point x="852" y="652"/>
      <point x="855" y="679" type="curve"/>
      <point x="815" y="677"/>
      <point x="734" y="676"/>
      <point x="586" y="676" type="curve" smooth="yes"/>
      <point x="392" y="676" type="line" smooth="yes"/>
      <point x="244" y="676"/>
      <point x="146" y="677"/>
      <point x="113" y="679" type="curve"/>
      <point x="112" y="653"/>
      <point x="111" y="621"/>
      <point x="111" y="601" type="curve"/>
      <point x="166" y="593"/>
      <point x="173" y="581"/>
      <point x="155" y="491" type="curve" smooth="yes"/>
      <point x="76" y="87" type="line" smooth="yes"/>
      <point x="58" y="-5"/>
      <point x="45" y="-21"/>
      <point x="-9" y="-25" type="curve"/>
      <point x="-17" y="-44"/>
      <point x="-28" y="-79"/>
    </contour>
  </outline>
</glyph>
<glyph name="minus" format="2">
  <advance width="550"/>
  <unicode hex="2212"/>
  <outline>
    <contour>
      <point x="28" y="220" type="curve"/>
      <point x="120" y="221"/>
      <point x="196" y="224"/>
      <point x="286" y="224" type="curve" smooth="yes"/>
      <point x="374" y="224"/>
      <point x="399" y="224"/>
      <point x="512" y="221" type="curve"/>
      <point x="521" y="245"/>
      <point x="524" y="274"/>
      <point x="524" y="307" type="curve"/>
      <point x="40" y="307" type="line"/>
      <point x="32" y="280"/>
      <point x="28" y="245"/>
    </contour>
  </outline>
</glyph>
<glyph name="minusplus" format="2">
  <advance width="550"/>
  <unicode hex="2213"/>
  <outline>
    <contour>
      <point x="196" y="20" type="curve"/>
      <point x="230" y="10"/>
      <point x="262" y="9"/>
      <point x="285" y="18" type="curve"/>
      <point x="343" y="371" type="line"/>
      <point x="323" y="375"/>
      <point x="288" y="376"/>
      <point x="254" y="370" type="curve"/>
      <point x="248" y="318"/>
      <point x="226" y="188"/>
    </contour>
    <contour>
      <point x="98" y="404" type="curve"/>
      <point x="183" y="407"/>
      <point x="244" y="407"/>
      <point x="325" y="407" type="curve" smooth="yes"/>
      <point x="408" y="407"/>
      <point x="421" y="407"/>
      <point x="524" y="406" type="curve"/>
      <point x="537" y="431"/>
      <point x="538" y="456"/>
      <point x="534" y="485" type="curve"/>
      <point x="107" y="485" type="line"/>
      <point x="98" y="468"/>
      <point x="95" y="426"/>
    </contour>
    <contour>
      <point x="80" y="145" type="curve"/>
      <point x="171" y="147"/>
      <point x="232" y="147"/>
      <point x="275" y="147" type="curve" smooth="yes"/>
      <point x="362" y="147"/>
      <point x="381" y="148"/>
      <point x="448" y="147" type="curve"/>
      <point x="459" y="171"/>
      <point x="462" y="198"/>
      <point x="458" y="229" type="curve"/>
      <point x="89" y="229" type="line"/>
      <point x="81" y="206"/>
      <point x="78" y="175"/>
    </contour>
  </outline>
</glyph>
<glyph name="setminus" format="2">
  <advance width="550"/>
  <unicode hex="2216"/>
  <outline>
    <contour>
      <point x="295" y="-104" type="curve"/>
      <point x="329" y="-100"/>
      <point x="361" y="-87"/>
      <point x="386" y="-64" type="curve"/>
      <point x="267" y="622" type="line"/>
      <point x="233" y="621"/>
      <point x="206" y="612"/>
      <point x="178" y="592" type="curve"/>
      <point x="235" y="306"/>
      <point x="252" y="193"/>
    </contour>
  </outline>
</glyph>
<glyph name="bulletoperator" format="2">
  <advance width="550"/>
  <unicode hex="2219"/>
  <outline>
    <contour>
      <point x="262" y="103" type="curve" smooth="yes"/>
      <point x="350" y="103"/>
      <point x="412" y="153"/>
      <point x="429" y="242" type="curve" smooth="yes"/>
      <point x="447" y="336"/>
      <point x="405" y="410"/>
      <point x="299" y="410" type="curve" smooth="yes"/>
      <point x="210" y="410"/>
      <point x="151" y="358"/>
      <point x="133" y="270" type="curve" smooth="yes"/>
      <point x="113" y="172"/>
      <point x="159" y="103"/>
    </contour>
  </outline>
</glyph>
